<mxfile host="Electron" modified="2023-12-16T18:27:14.583Z" agent="Mozilla/5.0 (Windows NT 10.0; Win64; x64) AppleWebKit/537.36 (KHTML, like Gecko) draw.io/21.6.8 Chrome/114.0.5735.289 Electron/25.5.0 Safari/537.36" etag="Vp8KEfVDR5rn3LEPsjk1" version="21.6.8" type="device">
  <diagram name="V1.5" id="qk2ehlaL02nI2IYCrrtN">
    <mxGraphModel dx="1418" dy="820" grid="1" gridSize="10" guides="1" tooltips="1" connect="1" arrows="1" fold="1" page="1" pageScale="1" pageWidth="850" pageHeight="1100" math="0" shadow="0">
      <root>
        <mxCell id="QIXlH9156Hlg0ZABz43d-0" />
        <mxCell id="QIXlH9156Hlg0ZABz43d-1" parent="QIXlH9156Hlg0ZABz43d-0" />
        <mxCell id="QIXlH9156Hlg0ZABz43d-2" value="" style="shape=image;verticalLabelPosition=bottom;labelBackgroundColor=default;verticalAlign=top;aspect=fixed;imageAspect=0;image=data:image/png,iVBORw0KGgoAAAANSUhEUgAAAT0AAAIkCAYAAABsqvxTAAAACXBIWXMAAA7BAAAOwQG4kWvtAADTpklEQVR4Xu39B5Rdx3nni1YHdM4NNHIGCIAIBAkQAAmCBEkwiZRE0ZYlW7q2rPGSw9ijefbMXc+z3rx1w7ued2fejDzLHo9njbKtRMsScw4AExIJgACInHMD6JwT+n2/Qldjn9Mn7H12ne7Tp6u4zmrwnL1rV3276l9f/pRyzVHAUcBRwFHAUcBRwFHAUcBRwFHAUcBRwFHAUcBRwFHAUcBRwFHAUcBRwFHAUcBRwFHAUcBRwFHAUcBRwFHAUcBRwFHAUcBRwFHAUcBRwFHAUcBRwFHAUcBRwFHAUcBRwFHAUcBRwFHAUSAuBXImOm3eeustaOD9GJKEpc2gh7ax/j24ZcsW7/cT/VW4+UdRYGht8q1Zi2adRn8X6/+93yWjLeuwT9bjQLILs+H3sBt73NHgb/7mb5YdOHDg/zUwMLBCBl86NAFeNi/+RtSEYtGH6wxY8dd7jfd7v//2XpeInt5nmWdG3xvr/6PHa55hvmfuzNv85d+xPtH9mP+P13/0XLwbN3eIbvyN9W/vIWSuidVf9GEVDQ7Rv5t3bOZn/t/71zsf7wEYvRa8z4oFTPxuxm7maL6LNe5E/Zn+zTX05/3Ob7/mudHj6pfO6qdOnfp3f/VXf/XDcbepAw44P+D14/7ys2fPbvr0009/p7+f9+yao4CjwBAF5sydO/dfPfvssz//rd/6re5spsqEAz15mdVBX2hOztgzxIODThIO+t7c9YEpMFPuqJSPA73ApMvsGwIhWEFBgSopKVH5+WNzPgB2PT09qr29PS1UBdCZ26RJk9LSf5BOmSuf7u707TnmWVpqtBpBRhfuWu/BORYHGDRlHSV59tgs8nCkDXz3hJhkFFUCybWFhYWqurpaFRUVBSaujRtYpK2trWkDvdzcXA0CFRUVNoYbqg/m2tvbmzbQA3h4n3V1daHGGfRmnmtAzwB70D7CXt/Y2Kj6+vqU6LKTdRWt1052/bj7fSKCXt+4e0tpHDCbEW52LLif6GkBCHl5eWmcrVidZL7pfkaiCYyVqoTDzWfLej2Kb0r4JNh4uCwQpzceJuTG6ChgiQKofhzoWSJmJnXjQC+T3oYbi6PAKFNgInJ6WX+SjfIaco/LHgoEMvKN12lPRJ2elXeF/glfvxs37Ol9saKOpb4plo4tXZZGr3LfygsJ2Yl5nyG7GXE77zOWPg2Dgs21Yx4c73m25zWe+3Ogl+LbwxLW0NCgurq6Uuwh8jZAoKamRlVW4iY19g0QYI6dnZ3WB2OMJ8XFxdb7TrVDQOj69etWgQgAwiqOy1N06+jo0BZ5m4cK4FpeXq7KyspSJYM3zC3VPjL+vokIelZYeE5pQAHfJxuNBevDncDGo3z1wWYE0C9fvuzr+iAXMVfAPZNAj/eJa5BN7gvOPd4cWTdtbW1WnwfIhnStsrI3gqyFsbh2Iur0JuKcx2JtuWeOTwpkPfBNRACYiHMen9vPjXq0KTAhxNuJCABZf5KN9k5xz8sqCmT9/piIoDcR55xVu9JNJm0UyHrAg3ITEQAmxItN27ZwHWc7BbJ+fzjQy/Yl7ObnKOCfAk6n559W4+rKrD/JxtXbcIN1FBhlCkxETm8iznmUl5V73DimQNYzBRMRALL+pY7jDeeGPvYUyPr9MRFBb+yXlRuBo0DmUsCBXua+GzcyRwFHgTRQwIFeGojqunQUcBRwFBgzCjjxdsxI7x7sKJCRFHCcXka+FjcoRwFHAUeBFCngOL0UCeducxTIUgo4Ti9LX6yblqOAo8AEpcBE5PSy/iSboGvZTdtRwBcFHOj5IpO7yFFgwlAg65kCB3oTZi27iToKJKWASziQlETj84KsP8nG52txo84QCmT9/piInF6GrC03DEeBjKOA4/Qy7pW4ATkKOAo4CoSkwETk9AZD0szd7ijgKDCOKTAR696OO9CjODa1YtPR6Jf+M6UxFuq3pqOlk47pGK/rMz0UmIigdyM9pExfrxSNDlG1PuHAAJiCgoL0DT5AzwbwqqqqAtzl/1L6nzRpkv8b3JVZSYGJCHrjitNjo5aUlOjPRGiAUl1d3USYqpvjGFEgPTLTGE3G52PHHafnc17uMkcBRwEfFHCg54NI7hJHgQlCgXElBaX6TiYi6E2IF5vqgnD3OQpkOwUc6GX7G3bzcxRwFIiggDNkuAUxJhQYHBxUAwMDY/LsWA+9ccOpejPmZaR5IBMR9NJM0tS6BwQaGhpUU1NTah1YvovxpAsI6LelpUW1tbVZHnXq3aVzvqmPyt2ZDgo40EsHVVPok03X39+fwp3j85ZM4/TGJxXdqFOhwETU6aVCJ3ePo8BEoEDmhOakkdoO9NJIXNe1o4CjQOZRwIFe5r0TNyJHgbGigOP0xory7rmOAo4CjgLpooDj9NJFWdevo8D4pEDWO+870BufC9ON2lEgXRRwoJcuyrp+HQUcBTKSAg70MvK1hBvUhFDWhiORu3uCUgDAy/rQFCfeTtDV7abtKBCDAoCe4/Tc0nAUcBSYMBRwoJelrzrrT7IsfW9uWumngBNv009j9wRHAUeBDKIA+jyn08ugF+KG4ijgKJBeCjhOL730db07CjgKZBgFnE4vw16IreE4lxVblHT9ZBsFJoS+eyK6rASaM3nf+MRq8b7Ptp3g5uMokE0UCAQAWTLxQHPu6+tTvb29EcAH2Jnvs4QmbhpZRoEccbfLyw2cjn9CiLcTMXNyINAD8Nrb2xVFqAsKCvTW6OnpUa2trRMq03GWYcIoTmdQ5ef2qaJJXSo3Z0AN3MhX3X3pK9wO2BXmd6mSgnZVlN+tuuRZHb1lMl9fkiuqH18XjiIBrT/KgV4SksLVUcsB8CsuLtZXd3d3649rjgKJKACCAHjTKs6rBbVHVXF+h2rvrVDHry1XV3PyrBOP5xVM6lELa8+o+fI8QLZ3oECet1Lqr1T5ed6E0HdPRNAL/GIBPgd0fvaMu8ZLgdzcG6q2tFmtnL5Hgx+tRriv1bNa1IUra1RDjl2mKi9vQE2vvK4WTj48zLAV5PWqpXWfqjOX71RXc6lA595RIFEvS8hl/4jNEsK4adilQEF+n5pdWz8MeKb3wrweNav2unxv1w84X3R4M2uuj5BQ83L71bTKJjUpuY4PhiDrMSHrJxhjGU/EOdvdza43XxTIEU6uYFJsNUhxQY/id9stR8Vm5RB1fTS7KOzjgWNxyUQEgMDi7Vi8GPfM8U+B/oEc1dhy0/gV3a42TRKjht2lyPMuXisaYYkYHMxR568Vqj75PUmjBqkvdEzWUSb/7kAvk9+OG9u4pkBXT57af7pcdfZEWmsb2ivUkXOlqq8/KQgFmn9PX646cLpCXWmqjrjv6KXp6mx9kZ/n9U4E0JuIhoyJCPSBNo+72A4F8GlvbCtUv3hvvlq7pElVl/ao+uYitetorerqTc/W6+iZpH75/hy1aGa1qi3vVZcaitTZq+WqVwDRR8PakvUibnoo74O6Y3jJTb8T1xwFRoECN0SEvd5aqN7ZO1Xr8Pj/voFccXZPz8PpF0A9fK5KXFbEWivPCyBGl8uoiuTTlp7RZUavdvnrJHP62U9/uvjEiRPzT588ubKxqWmmtIYhIkNolB/mOGJcWFkBZf7y4TczXu+4OZm8nuT8Zn7ne/QUfLiu8sSpU19taGiIG1qWGa/FjcJRYPQpUF5ermbOmHG8qrLyI3l6i3wQd9lDxqpr9hZ70XzYo3zM/vTuR5O1he/QFZqPSWE1IP6veeLoX1BcUnJu2bJlHy1evPjsM7/xG5fTOfu0g95bb75Z/ctf/vJ/3bljx+OtLS1zS0tLq2/IcTQgDkO1tbXpnFvMvnslrGzgRmIOPicnR0dg5OU575ZRf0HugWmhAFFEN5Ks+7lz56rJkyer+itXVMN1XF/S3/r7+3XEE3/Zb709PZdqamsP3Xffff/zP3/nO8+mYwRpBb3/43//33//xRde+N96urvnVFRV6YkB/bkCKrS8/NGXromsAHDjtbKyMrV582Z1++23D4edpYPwrk9HgdGkAMDywgsvqHPnzsUNn5wzZ46aMmWKunr1qro+SqCHnA8TMsgHgsj/5+Xm6mCAwsLCN7/49NP/+v/5l395yCat0oI6H7z/fsHPf/az//bLf/qnPxC2VZVWVKh8OCcBuUzPTDJ79my1dOlStWDBAtHBpPVMsPkeXV+OAgkpwEG/YsUKde3aNR1WGauZjEKs+1wBntFquR6Jyuy5HHm+cH2P/OwnP3nzX3/72//2r//rf/2prfGkZWa/+tWvvrNt69Y/gGsqknhVAvVhraMBjwnCUj/wwANqy5Yt6s477xyOb7U1waD9lAhIFxUVOcALSjh3fUZTANGxQpiPRCobk0hjLOPKDfDCJJUIfhQUFc145623/u4v/vzPP2+LwNY5vf/wV3/1B//8y1/+SakoRWXAcfUIAOGmTZvUypUr9akCKKJHA3D27t07pgH9jsOztbxcP5lEgWTruqWlRWcQSqb7Czun6upqNX36dL3vL1++LMkQsGdGNsCP8YoNgL+VL7344nf+x9///ZE//KM/Oh72+VZBT8TZeT/64Q//b3R35XKqxDMYcNqI5VatX79eNTc3qw8//FDrGQA82O9EOrewE3b3Owo4CsSmADkiAZp0GfBER6dWr16txWwsxQAbKdpgcvbt2xcT+GRACunrxsDAwh9873v/t1z0TNj3ZxX0duzY8WdnzpypEetLQgspkwfwQPrXXntNnT59elj0hehh9X70P3/+fLVo0aLo80MNNP9cTa26on2YTMOo9fzWyerC1cKw9Ax9P4DPB9qw+JKdzqEf6DqYkBR4alODmju9W9bZrem3d5WqTnWPeOqtiqAJwHT06FFVX18filbikqLWrVunurq6NMjxF0YnkThtsADJ8czJk4/9l//8nzf8+V/8xY4wA7EGeq+8/HL597773d9mMCgmE3Fr+WLQgNODiKdOndLgBBvLJr9w4YJmd8Nwe4jO6Ao3btw4AvTUlR+rlfOui4XoltsKoPfR/soxBz3ECjhdrGc06AGAcyryIZ+fA8Ewy93dayiwcXWLumdlawToXWnsV/UD09RgaeS+uSIuLFhzw4Ae+v3ly5frjOPCHKljx47pHJXs1WRrWjvhyt6YPmNGiajO/lj+NzNA78Tx48sErKZXVFb6Aiw4GaxITBhLaV1dnf5s375ds7xhQM8LGJHLXOpdTLqhigsHVH6eF/SEpZdcY+lugBrzNdws8+S04xAA0FgA6DWhTVNTk/ZfAvg4EAA9/Br5cDq65igQhgKFBTdUSdENWWu31n1hwYAq7JdoETlovY11GVbkxf+vUrDh+PHjmrFhr/P/gCCAii4xUWNPlMke+HjXrnVh5s291jg9UUiuRj9XK5PrE/1csgbbCvrz9+zZs5q7w1WkSvz5whI42bPH4ncA7+LFi9qCBsA1NjaqS5cuqY6ODg166C0MuMEF19TU6MUAXQBAlMz8BSj5nX5ccxQYLxQA4FjnrGH2AtLdkiVLNOh9+umnej8karoujeCK3Dvlxz/6Ud3v/t7v3RSHUmjWQE825WK4lmSsKmNk0gDk1KlT1cKFCzWry6SeeuqpFKYwPm5BZEVMgEuDTugxzQJgBoAbiwKODusWoIezKOCGhQt6wRlzL6fivHnz9AERtEFnozeMda/x0WIs3oahKRH3bThU7mEhc2083SzPoH/vM7iWZ/CJ1zgMeU6sNZbqvBhnomcyxuhDmPXLffGsnHAl3Gc4eujBtXxv6qyYOfK9dtqPE4zLs7NBtwsNmD/rn7myHzi8Z82apde7nwbNZX/UCl4sluvHHvTaOzqma188H6Nn06LIfPTRR/UH6w2EQH8V1ojh4/GjfklnZ6dm6Xm5gBicLaJr9KZh8RuuDhDErM89cIHcz0LhGkCQe+GM+c1vg+5wjImKGrHBOJURP2g8D47ThArFexYLGM6djc4cOLnjgSTXsPmhBfMDyLiW5yQ68Q1HjIjv1W+iGzLzYnPFamw4njdt2jT9M8+DxskKPPEOOIi439RL4QBC+R4P9Bgb9GC80I93B+1Z36hyaPRl3nV0tT3v+Bkz8+Xe8dzQByLVcFhz4B8+fFi/w6ChqNgLTp48uVpo8WGq9LDG6fX39ZVohaOP9BEszP379+vNJQHG2l+PBUSIDCJgvIWb6iTH+j7EWMCEDcRmZ95sCjYOm4K/cHDmxIcWbGK+QxfCachmoQ+4RejDImLRICL48Z43RhIWHBs93ntifESlAHoGiI4cOaJBL1FjTkM+VXoz8y7ZzPEaY+Ye5gVdGB8gJNb/hM8xRioMVYZr4D4MYoBRvHkBQDNmzNCgx7MAVyyS0DlRY058GC+HF/PifSaaG0DOcwzonT9/XtOPQ8GAHlw7+i3GnsgvjncP6I530OPdQAdcVu655x4liUf0OgsSCKALH8n67OvtrQyzp62BnoSYURzW91hYNO+88446dOiQXghsMDYkp31YI4bvQYzChQAaFllOOF4wC5xFrH2PhsQkwA0g4sNmgCtg80IjQI7/xwWHPvgeTg8asYgADD9iLuOgL57BZmQs0SIs5IDrMlXfeD6bnA1rOKV46otosY2+uJa+ojcs4M6cARyj1Pa+Cu6Dw4kGczgFAJ95G+6HMXIAsKk4FJgXc4huzBXwopk+eL6feZk5szZ5l9xv5hWLHow9mZqHwx3gNbrtWGNmrMarYRSWalofwXo9ePDgMLfLnmfurC0OSV9taF3Igezzhti9WgM96d4/4g2NxWxgNnG2NjYJCxpgArx4wXzYrHxvOAk4P7gDs7EAP6MLMqIiyl8WC/3QL+DBQcHpmWyTwaUYMGUsPM+AQDTgGABjoQIMxjMerjKefgkuJhqkABpA2YiUPId3DngBXMzLVJnzbnqeh67XywUYSQCAM/fwHeDJ/9MvYANnZMTs6DXlnRcgaUA50bw4nMy82KA8i7EyJz6xuGxoFOtA8Y7H6HMZEwcaB2Gsd8jv453LM/PmgOPQRb2DJMH6hWvmYA3YAmONt3+boJcwOh9nYMzk2l0kfzDCOdg7IPL5k+u/W1Jtd/USnja+g/4BJ7gSXjAbnRcfLRqxiTBcYNjhg3gEJ4AOzwAViwURDgdPwA/gAMgAAa5J5sbC840YxQZj0cXiziLfhVjMhrz0uYcMHEEagACwRiuq2cSADqBnFPnRoGfEZe/zmDPioDGqGOOHd16M0XCq8cZq7jOclN95GeMFQMicguqjvOMxKhzGigoj1gEUhNaZei2uYMVFA6pI9j7/zskRg955PrdGXCFpfcsKJbmquMt0y54nzX6SFipngE3QizkQJlpe2q+mT+5Ws6d2qllTulRZyYBwDLHBGkfhju58dfm6pLm+XKL/trRP0kA43prhlBBLES0Bsli6IKOjg8tjA2K1RWcFOACSRmkO1wXwYcCAO0AZzDMADziqZNxeNKCNN3oaH8fxNu5E4w3yzsbTvPNlf9dW9qhpk0U1M6NT1VX3CMPTH+EMHXEISL0Q9jn7/fSlEnWtuVC1yv/HaRkDeiNGyMRnCMhtvuu6evzeejVT/h2kXWsqVG/tqlNv7Z6izl0p8ZvnX3MPcEaATHS7cVW4j/ySyIgMwd/O7lB0jDktAI6xwFEBegbwjEsDN3ndR/g318HBAXqIoIhKAJ1xA4HTQR2AGMdfIy4jaqVzA6U7CD3IurB5rR/DW/TzUrnH5pht9HVJQi6PnSsWietWb1dbClXjjQ6lWiP3DYdxkMwrk/LFD292h/rCpsvq3lUNqrKMmF5/o+4X8GOvv7J9qtr6yRR1XcAvhqkgLhr6eYpNTi+CJ8XTG87uNx++qD63sT6uOJtokFPkdPjqo+fVzLou9bPXZ6uj58oEJJJTDzHogw8+0J/o1t1dKn0s8UOb0NcAcnBr/AW0huMIReQznJnxv0NENQYcABtdHQ0xFL0VHB/AQ1/8GzEYbs+4TwQZrLEYRwOZCTY3oqbhrIzuDLpG67AMgPM3naDL/KBfIsAx84pFCw4PI857OUY2c6x5GV9Crw7T3GcMMbwXb/P6OPqxqHMvtGUM8XSD8fwSg7zvWNf+//5h9oivb/oR7pOD9kDK3QNuS+a2q29/9YRaOLMjrkQX7wGovhbM6lC/9+Q5NWdql/reC/NUc9sIjMtM0Ksu71Ob11xTTwiH5w3uD0pNiLhptfhvtUwS9neW1PUcP3V9ALpYi5aNhLIdgwIcHUYL44dnfLZQmqPwZaMi7vL/xoeNTYLy97bbbtPKey+g+qEv3CR9RYMUz4JjBExpRtHPsxGtd+7cGeGoy+/ot3AFQS8VrSM0DsPRLkiGazXPiAWW0CHaGAAHbIA61j3oQDkEogEEejM+1ALeeXHQQPvoeXENhxXz4tDh38a3kDFBf1wueAfmWQYkjZHIjwWX5/B83LdigR4HI24dyXSUft75aF1TWdqn/uiZU2pBCoDnHWN5Sb+6/06xljcVqH98bU60bj8Usxbq5ihCDnN6Bu0fWktgfyhDy9AiVep+EZEPnqpUlxuKhQCj9QrDPYfNBveGkYGNA2cAELAx9+zZo79jM7KwsSCyUfBTg/MwGwLjB78BfNxnFP8YMDBoIOYaC6vf0RrOM/p6w5Wa742VEvGa5wI60Q2ulLGsWrVKc69eoGLuWOe4xjTmD2gwF5pxM/H2y32EJnmBgPt4Pr+ZRAzRkRKAaazoCnPImGcwRsCdccWbF2CEKgHDETQG0DE2cVjw4Vmx/En5DZXDHXfcoQ+2ZC3e87kPOo039y3UWOjwUG2FbZXCOD264ap6c+dU2fcR8eZJLR2Jnp0W0Cst6peJd6g500ZuklQJUVPRpxbNalf7jlZqJed4aAZE4ALQzxn3CjN2OA30juhM4K64ho0OF+EFSHR3/Ia1EGswDeCCswEw4Uj8ilPcy7gA4uh7TBJXMz7jTmGiCmLp9XQUzpDvIFwOVl7T2LBG5xjrfTEO5sRzog08iZyhvdEf3n7jzYt5eiNXmCccNqAFtxYLWLzzAuwYIweUuZaDJpoeRvwGnHmvHFbJmkkoESvenDGPpzh0mB3093ho2GgosirECHqfSHr/9PYsb5fJdVwJBpAW0Kut7FWzRA9nu80SGX9yde+4Aj0jysGpmXC06A0O+AF0bCi4CiM+GQdlY52FkzKgx4ZDTAX0gm4MQNL4wSV7RwAJSR8plGTcZ8w9zINwQuM+kyiG1fscA0LMFct2rGZCvwzAG188XEW4J5aLB5ZvInz8uH8AfHBxiLzRujnmAadpsuAYoOPwgkNEn8o1Xk6P9wHHS5QH10f3GY/OcIN33XWXrzEne1dj/XtNRY94aXQF1uMlGjdubkvn3YoGGjqMQlkdbYLe8EBA+vKS2DGQYV5Mhcj5JT5OETYVepBYi3+g56IU6IQDvcV+Yx2qbyjQPkI2G2CEyApXAGfFBkNHBHCZeFazoYwfHyDD5uUek1ePDQTwmThV47Rswq7SbUCAJoamXvoYGgPmsQwMcEfoHQHmWC2e8QO6AQRwOsyNhY5+U2IutVgMF0XfyXwT/bxLo5f0XmuiJADzWPPiHkDT61tonKMNd5/p1u46YR6KJbWU16o6mCO6yzxJz54XmcGHtQktkqV/mlLVG9clxc+7iHVNvuS9rJV+TYPOYde7TdC7hSLectupzjbGfVSI55OssVmI76OUY0QTgt248keSRPSEys+9xYLfEIfof/OdhWrv0eQ6mGTPjv4dkQgRz4RN8RfwQh/H93B4/DW6LsDQ5M4DHA23Bwgax2UDhgAmuqexSjNlrJnxFqGxZgblRA3ImvsAR8RR5m1SckELG6AX632m4g9oaBB2QwZdX6le/+3fuajWr2iN0LlfbqxSVwdkz5R9KaJbJIq3335bh4wmajcBNPn+DDRm6TMGKxJKvLXJ2gyjSE9vnurssomnN8nUIX368NbWJ4GJIYUbGf6UFEviRHGWFo6xvFS4UfNJ4Cwd6AXFuJjNiULciIaMDaBiIcGtAH7eiAVEKvRZcKlGDwW4GSW+V2cGIGZbcoZ49Mb4YHKymQQNmc5NhV076byfKIkK7x6Qf5cWk1j0ZkJb74fDxc/B1SSuJbYjqHBRa2q7hSVDh0oo3Ap1s/elCL4Ppz5tahXP6khri5X3h7d2Y2uBlb5GqxMThoW+x6RAQu9D5hL+8hJRlBtRyfiN8f9e5TvAZ9JrG06I+/wkG4ieq03nWqPwHw16AvhsPhO/myjTSdjxeOcVhF5Brg07xky7HwNjg+xPm8DX0yeGvQu3JDANesSqhmjW2DEZxbDg3dqZL6Ekpaq+sVBNrUmcBtrv2NukTyZ/vXl8gR4vCdHss88+0wCFfs4E/yOywqkBjOiCjK7OcG9evzfjqmJqCpi0Un5OYGgMiJprERHRkcVLOGBiS014XLx3xO9wrYzNm0TU7zsNep0344hJyAAHaKzQ6Puwxnq5YfMM43PIQYGOClE5HqfI78Y6650XagjjThQ9dvri+XD0XkfooHMcz9fDlW0/UKum13YLx2jHgtsu+377/pphsmjQy8kJ1bk10JNRDVsuQPpjEj3x0f5a9fQDl33p4ZK97F0Ha9ThM+U6KHm8NSx0WEzZkBgpAC6ADxAEYPi3132EDcTHqx+Cg+AaDCFUlGKzB9HlARgAJX0gPrM5Y7m5sMmN7hBOipxv8cCBMRnlNnNJlsAg7HuDjsYPkDkwPmhgMqFAR/waYx0E3AftAT3AGqNIPE7R6FH5i+rBZDmBW8fvMB43Z5I6IA76zQYcliaZdv9rH01VG1Y0aF+9sD66MDrbD9SosxKWFtUyBvQiBkLc7DsSM1tX063uXYn3f+qvZ//xSvXGzjp1oX78RGN4Zwu44G7CpoTLMklBTV0MvvNuQDYt93j9x/h/AMn4tpnQNFxh/DTu47k8h+fFs8R5XTFM+Fki3RnjAiTxnUt3CiTjRwiXBy2ZC7Ti2fwbI1A8IAP0zG9mXonEYw4ck8DVGEy43vhPxqK5sQRDZ+6diO3StSL1k1fnqG9+4YzE2hNel5phA939vqNV6rltM2MxOqHCE2xyehHvuE8Ch4+dL1M/f2O2ahI5f9Pqm4HHQRqGix3C4b0uwccHT5Ur5Pvx2kw4GZwCYhKcnxHXADfDPbA5AQ8v6PFvvuNjxCgiN1Ds+21sSLgP3GYAjHh1GbyOvGz2lStXJox3ZV7G6GI4R0DQZFH2O0YDXiZ8KxaAMgfyCeIrZ1xE+A4uE0dgwCZeSJ7XNYW+8TtMBOZGp+oVqek/kQ7VRIoYdQXvBvpAc+jtjVbBR5DvzEHm9z1m+nUDIuXtlD1L1NST99WrlYtaAjkr3xCMJMnAtj2T1Rs7pkpZ1piV/1JD0iHi2QS9EbwcOfGOiEgK6H1yuFpHaUyt7dG+dvFOAHSUZDxh4ugFT1wo1fG2PZZ96MZi8bAZTL1foizgWBBXAQk2hMnkCzhxLVEaiGRmg7Oh8VHDwguYeJNz+pmPsYCa6vLxfNCMWG1SrCdSzsdKKgpwGb2a30gR+mFOJplmPF0ltAF4jLjPWLmW+xB/4xlWvG4oXA/nHXRePDeeSsH0HyvuN1a+PvNeU3GP8fOux/Kaju48zaxcaSzSMbjzpndKmilJviElJr1ZXbxjJHVcuzA59Q2FWnfP3r98nQwrMUXEEHKjxRKQ8YjcK9zZeRFLsbx+KmIq7iIFUns2nr8dk4RLhABkVxiPOrxECw6Rlg2Hfs1kkYUb4P8BMbgQroEDAAT4a1JqI1qZpABhisX4BSIDKEE3kN/+o/vlvmT3Jvrd73j9XpfK+GLRKtaYsxHsvHPvFrc1GB7Aq0okvNJi4XQlHjfevscOgCTX1iGHf0dS15eMib0d8b45UTkd4WTQI6EIbmgp0Aub741TrrmRjQ93YVL9YPXkWriieN7xQTdkJlyP2AiHBzcHt2f8zkxkQzQHAg2gC0p4k1E4GThkwjzdGBwFkNDw4pCIb5vEyJjUUiMmhQ7kgQce0FwMGxvL2ieffKJFEEo/fvjhh/o70zZs2KA5Hb4nosKAHq4ApN8hx5yfZIb0D0iaONVbA5OTpnmScJ4E29/ShQ7KP7t7RldfCGgZkQwFOYBnqqMZA4YBO8P9BakcZXOFub6yjwLXGgvEKoru+NbcrksS0YaBHnWj+2ZSC9MSGb6CUgb1BPHRSDvoNLGik8UnoM9lKLVcqJujJjxCzjZ+XlgKsWYBaoARxb1RSCPeGdCDK7zzzju1/xSbHRCAGDTS9LDxTd65ZIQ2rhYjM3VIoev2QvV+EVmGI2NvL10fG/8/xBxjpEg2L/e7o4AtCryxo1qHXXq9Knr6ilVf7jmVU/BGxGNQq5jQxzDPZ49jGCMNGfsb6QUpkD1A6YMALRSHYhP0RgwESyUfGq4VBJ8DfpSCQ2Q1NUD5HaU9uqwDBw5otwBv1mOUvnz8FrYGbL3P9hKzuztHXEH8VVQP8BLcpY4C44oCnxy+lQLMDBxmo6DgqhiGGtIyF7g7MAAJjP2NUY+a13yXyG8yxmBCGTJCIWbUYEb0ZZCcjBnLly/XLCyTA5QIXjbB9/RDGUN+h/PjLwCHqf/uu+/W12G19F0fMy2vzHXqKOAoEIYCpATDMEf4Jaoc9Pr8P4yQ34p0YZ4/DO42OhnqYwToMSGD5oAX/28KNjNxGrnaOGHQ/3mrheF+gLhLphR82hCRA8r9FqfmunIUcBQISwEYGfR4GORQdQGCMEDoqgOW0wzlp2eT0xvBcjJBvOQRZwmwh/MD/Ez4EtlH4ABx1cAqiVxvgA2ZH66QZI5kJCEbCeDnmqOAo8D4pIBJ24+Onr3MfgcXUkhaEQr0bOr0RrwJk46bmFMUliA8rho0LJQYKtavX6+BMDoeEiPErl279LXo+NauXeu7QAqcI6dHrIIqfd2XJD8XuREi6XZdrLqxHKB5IfHqFJh8cdFxsyZxAN/zoqMdeE3RaOZm+ojlt8XhwLUmeuKmzqUgZhJFb30IDhc+qeR245mmmDbjY+yx+jLXmJoVfhMO0L+JhIh2QDaRKdEFgUwssqGjuc649hj/vkTzNfMytDRJARLdY2jPXxMGGD1mMx+T3DKWU7V532Y9+IUs7jMRJvHeqUlEYdYo13mTm8Z7Vm2lcFiF0dFcsrYmSXx2XqS+z6Q2CytpQXucu2GEPvroI10PZuPGjXo9xEvkEGf8GROGFoEiBtVNWBEyOy/DWGshAG4oKDIJIaIamCGqCdg2gMG9JiW5nwVjajuY6lfee3Ja/0HVVYqFOMfjsiIO0T9/ndq6I0NesBjHqodAn8wHEzxsO4se7tTkw2N+3rAk3FMMYOECYHzy2HQsVOZMPyYEjcUO8NOfKfbN89CDGKdlxsCCoT/GaXL20ZepVxENIPHoZ4Ls6Yfn8kzG5g0zM4VuoIdJpW7Cq3jPPNNUDov3HJPBhI3EezUHhqmnAV1QeHs3Lu+eZ3JgMh7+zRi94Mn30M/4enqfb7LBmJhd8+6gI+OODnkzqasMLbgfOuJXaRIcGHBj3NCCa/kdMc0LpPyO4p53w71+ExFw0OOqxTzpw+wJ3oF5NuNCz22SLzAvc12yamyb1zZLicYuleOR9dq7K1SHWqVuFNwZ8fqgN1xZrDrSfvajuQY/XeOxgZSHcRP1F+t3pHtZwp4zM+GASY+OXo7GouTl7N69W/+/qSmA6MpCwbBhaiywuO+77z69iFj83IuYi8XXTzOFXzhFIpvUTb3092r1gmviHX4L9PAGf2d3VUzQ4+XAkbLQok9QNpjhKNmYXMcLZLxsEhO8zyYC2NnkfA/w0y/XsemhBX/5nUUAQNIfJyGLxFxnat6aKmjMjYWP+sDLkUFTNjLPZJMlc2Q2WZuhr8kiYjKmmBofjAmDFI1sz4zPPJNrOLTwq0Q3myjxgEnrxEZiA5v0VvQB/djEgJc3YJ9xMSeTyYV/8515vuEEGSMbifVk5ky/bChSaUE/76HCmBGz0C15M8QAYKhWoD3vnHcG8PBMwIRnGLrSP9/zroyHgfEyMAchgMEhwnP8gJ6hJyBhDn5cRlgzeDkgMdHYT0Y3bg435gg4JavGtnF1i7rvjtaIcNCL1/tVfX+dGiyP3DfMj7GEBT1oiscG1lreJfsHulNnBZoHaP0Brh1xqU3xNgJ9TSYLWFleIi8N4PKWEWQh4YjMYoHrM3nk2BimiDWLhUXDAh2rLMEsYsAIEd3bDJfGuNiIfAAaakIYMGPjACTRYhQv3RS4MVXRWFwm4J/FDl1Y5CYeFaDgcMBJm/EYkRidqKkQxvhYoFwHzQGVZGnVoTf3oIZgQ5lnGjA0KZXM3M3YTSZjuBJcjRi/NxVTrIXJIgfs2MAmQzTXMQYWPpsX4POCHvOGBl6ulQ3DBmIsZn2xRqC1SYDA+FlH0It7MZoZwGDMfM+HMQHY0JNxkE6LsfB+AEV+53sDbhxagKE3DtccctDc2xeHYHSygWQbljGzbwBv3gVAzTtgrIwBuptDmPduonvYczyfvcS7JKlBKiqOZONL9XcOSpge9jR7hPdGsAKHdsCWMaAXMW4WFcTnEwkUoicaTjczoPbtvcn50fKHIuquXL6oXhny7wtIjLRcbnRp8cCD05WFyuKECzALzYTbsUgNN2cGaPoEUE0+OJM1mb9s8uhkmDyf77wFgUwWD+/EAUE2CO/AcM+JCMMGZ1MBRpzCZp7MA3BhExtdLP1QSc3buJ57zbgSPYvNaspP8lwOEmhjarwydlMTl35MHRDo6tWXed+JqSvMgcrGYt7QlMMEcKUP5uW1EPI7B5Th6gy4mbq1AKr5Tq9NAU24WPoEWLnO+34AWmgAWJn7uBa68v8ciH6bmT8HiHkXRq3BQcE8TTSPt7Yu9GGOjCVRCU2/47B5HQlGSDZQf+WC/kQ3GbrOuEyRLh8tY8TbuEHAeRJoTCbVYsmywN8ySToQrxjwgEidZEvt7JZK8hK31yF/+yUBwVg2owSPzkFnOD2j+4IjYdMZEYqNabixeFlDhgFfNlWsa4wxwyiTWfBe8S0WXYyRIdqAEo+GgARzY1PHAnZvWiZvH4zJpLFnXLH0Y7GeaerTAjhmfmxSUxAJzt4YSOCUmY/hbuLNwRg1jDjIdcyL+wG4WC4RvB84JSQQxgIXCGgxXzjN6KSofG+u4T17FfscDvwGFwi3hV6SOTEGADcI6PEujFrHzNfQzGRnjpUdmmuNYcNPGcx07ykSi5BRCYMJ1RH5Gy+xaK8kB76573MlJDRP18IhTVWcljGc3oggYEJcCiYN6Cyqj99Tr9Yvb1QzJLGgn3atSdJRHalWr340TWdhhgg+TwE/3Qe6hoWLuBAdigNAGB0cnBCix8cff6y5FwDAgIB3I5oHs0mN5Y+FagwDxhhgrjOiG30zDjYvsYuJNr+px+HNZuy1mpp7jQjOJosHbIkIBT3Ql8H1AEpwY2azmfl5kycYS7UxOiDGAhzMH9CBs6EfU3IQ+nGNMSJ4dZPRlm2Tyt0YGhi30anyXbxMJ4ZTAsR4vjm04h1SgA/jZ9x8vCK34fagC/PgLyqKWAdJtJuGORyNiG1oZehv/p/74ql5jDEIrpk1MpaiLczNXUub1Ja7r8nfZilC1Jc0kTAZlUhC+v6+yerNXVPUxasSFhc7U7o/fjDO4rWp0xsBeiVF/er+O6+rfyFZVKdInc0gjesByo2rGtWPX5mt3pTMyU1tYxMfy7hjuRsYTs7o34grRBmP0txsergM9Bd8vJyDyWDMJmPDs0E43Y2xwwuOXrcVFjRcVbzU7IAnOik4AbgVY3wxFlcj7jJmQJGNakRvv5ZeMzYzLv6f+TA2k3STecGVeLkhwAfQNno9AJPxwiUxJ8RoQIU+jPgImMXi8kz0DnQzHB3XeUVSY91NNC9DR0MX5pTI3YffeO9cH52E1HCUGHrg+Jg/kUaxGgeTKWDO77wnY5027ifRoGX+P5YLFWMxVlbAG05zrBr7/g+fOa0BD6nOb5uUf0PNldx7s6edV/etvq6+/8I89cG+2lgcX8aklooYCBPYsKJR/eGXTqvqimAZk71EKpcT4ptfEMub5Np6XTKp+ikB6ZfIfq9jMbMhEy0kQIQNxzVwTmxmFiEcGg6YLFiAzwtCJqyOjQfY8Yxo6x4gwPd8AAYMFBgN7r333hHiMM/lN8aCSOWNVQYc4FaNiM4z0c0ZF4hE/ojx6IQ4zIdNyHMBW5MCiw2Ptc6rW2IOgB7jA+j4C534y9wALegEGAN60It+4CCjOTVAx6SM5xnMg/69mY0TgYSZkwFlw9nxHL6Ll2DUgJ3xDfTShu84bJgboGc4/liZgTgYef8GOBk/93qzZkePIZ4vIN9DAwwCrC8st8ks9n7XftDrkO6+9aUz6pF1YkQrTk31livJQEg8+q2nTynqZOw5UhU9jIxJLRUR3bF4TrtwaldDAZ6ZabHoBR6/t15SRxerjyUDcyY3NppRrBvrK46Y6IpQ0hvQ4zdcT4wF0Ig3ieZmOEHAhUXuTcXOxtqzZ4/eRGSxMBZf0x/iDs/zNgMKxiUjoIPocFcABlylsbizCRH7oyNovHMEdKETG9/UvgAsGD/AjysGoIYoB5BFi5twg8wJPRquFMayaQxDhntibgB9tCGJ340/Hv8GdIyID+cdzyEdQGRMPJ85RHN7zIGDD1pCg3gNp/xoUDNABT28DuxmrLE4V/pgvAAe9+Milsxan879c/eyJi3dpQp43rFNm9yjvvHUWXXwZIVmejwtFKdnLwzNw4vD5S2Q1PCrFjdbo+9ts9sVQEoG1kxrxrE3GlCMoYNFHL3ADQD4iSYw/RqDCv/vPckBB1wB2BSc8rF0WEYnZJ7nNbIYp+joAkXe5ybzxjcb0tuv91nme9OncXo2YrcX/AE5QBwwM07u8XRyzAtwNU6ucLNeJ3f6hT6xklUwZp4BSBguE/A2Dt/RujPoTz+AqAG96LUIyHK4mUQZ8dZqrPdhrjXlQL0055nQhP6NHyTjZDxw2Qbw/GYiStceemLjlUAibaJxYOzEBrBeJMaoliGgNzg4rB+sEXF27vQuyYkfKlokYp5YgOcLy1tXbaeObpCXbsCGTeD9mJAmdErUtUWc84oy3IfvmLEMBtGZwTUhIhlxlAUOd4e4bKqomVOecD1ABMCDwwsq2gAM6JN4JqK415eS+QIM3pBA9JZefRTXM65oi2MiGnMtY6UfuGDDtRpOGSBi/owtmeXbWGHhnrGSQnPoZQLZoRN6NgDWNJNzEdDAPcU8gz4AXeaI3s0AH/3hqgIt4AqjIy+8c+U9GzekIOvMXAstGDOivxG1+TcfwNboYXHHwdINd4k+mWeOpfGiSCSy2+e3qQJhemy1ksJ+dcfiW+9NG7Bu3IhZLcjvM20aMoa5RvRwk6vEIuh3FD6vq5U+K0qTc3osFBbtO++8M6Ln3PZydfAISUS9ERlKXUmQRBSwYXEhVnobiwy9mHEfAPTQ1XASs6kBLD6c/HAjfmIiTf8m2Sqb1URkAK5sTvzLvM7PxjcNYIpe9CR08IZ7xSI1mxSRDJEKoAGEmAPPYvxsfMOJsfmNUy+gwjWMi+8RN+O5Uow4qof0ekYU8zr6MjdEXIAUAPID4tAI3Z+JZuD/0Tci/iLWQ0ccYU2YmhGdcUD2+lYyH5x6AX9EbN4nfRlOi/GgO/T6x8WiaRjwYcx8AFmAjffDOzb1VRgj8zTheRyqXt9GIwmg5oCOscby9q5qdfJCifjO3TKEdvYKV6yuqBuTIvcN/fsJE5suRb9QRYUp9xpNy0n5g2pWXdfw16yzvFTrSg71YhP0hjFuknBlheKjY7sVCeeI6JysGdDzpqIfPuEliagaJOlBpNW7vTM2x2x84qJ1N/QHiBnRkDhfFO9wEyZ0ixObRWdcV8ziYzPSEuleTFFwTnfD7QGebAaz4eiPvtmk8ZopxZiIZvQDGAAARjcHkPE94GfqctAH1xGOZvR30IV7GFd01ESy98TYoBuntxdEeC6RCNAOOkRzeqYYuVeU4x5TQQ6aQVtjiTURC4wZoGDMgJd5N9EcOP1wWMAFsuHh6JkbtIYWxrnarAHei/ErjDVn1gkHQjKgNPcyHubPs5gLfRsamz6giSnpGQ90E62vrR9LLjsBFG/LyRFf0UnnJOFAZLr4RG4y3vuLhSuLV/gn2VqI9zv4FkM/mBwEEjzQJugNP4ZyblGKx1TnHHEf1ZL6B5KrIY2OLZYeqrubzCX+VQIs9kR6EuMADBgAEGwM467CRoyVfQQg5ZpEYhvcBdeZaA4IwfVedwqz0RMtbr8OyvTFMwEDU0qRZ8JlGTcN8//mGqPsj77G78vmeSa0z8vNMRbmbSzL0ZwKz49FP67jHvO+TJ+M3/jv+RmzOQTMO/BaTaPpaVx/uCYeR8r3cNJ+OFZDO9YSYM1hYubKs0wfxlLsZ23Geh8dXSP3AH0WFPTJOksNU7p78+OVbPS7JEZcd0OSgcTw2EjNLDzUu03QG5Y7MTNT9cx2a2guUK1SIm40WyzXhPin0s3UT8laMh2Vuf/mIkzcX5DxJRuXAbVkzzRgHkRcj8eNxNNzJppXIvrFuy+VMcdyKo+eB/0me5/m2X7o770m2fNtv/ug44u+/orUrAWg/Dgi+31WX1+OuiAlZL17Qg6B1H3gOMj9PjzpdTk5wwOhuPfZKyWqS4r+2mpwj2evlKprTVZLydkanuvHUWDCUwDAo9YtIWW2WpfUz6VetmlDXg8ZAnqDg8OcHqLtqYul6uCpCltz11XPj0s4GtXTXXMUcBTIPAoQJvq6RE4RQ2ujAZ5nLpVEgN5Qv6FcOOyM7uZIhuVs1KNnLpeodz+Zoi0v0yf7i7eNRyg4x3d2T9ExuGRiSNYQz/DbwsoW2STetf01VVVybUQS0bd2Van6huSiabJnu98dBcYDBTavaVYz6np05hPTunpLVXfOagmYXxIxBbwXyBeIVT9Z+/RYpXr34yk6mKAshE8t+/zy9SL1/HszVHPbiACM5C4cCQZqE/QiTEGg/a6DklVY4vCeFIdFkg6k0ghAfmPnVB2E3NzuL/oEXROWSBKRRreca8+ppTMpcxeZRPTAiVIHeqm8IHfPuKTAprta1N23t0UkEb3aXK2uD0xXN0o2RcyJEEas2H5Ar6MrXwMVbisPrr2mqst7A7uwwOGdFknxhfemq48PxYzASs3SMjQrm6A34uVTMf2tXXWqoblQrb5N0lPP6hD/vV5VJCmm4pu2sdbk6uQCpzVrW6X2HK5S16UPv1lWUPBiTR2ZpVY4va5+NbVWsmNEgR5pcFxzFJgoFCAefprsA6/L28Bgr7jnFEjm5EigwYE8mXHLS7dzV4rVr7fOkEzkJWrFwhadRKCqvE87Lcfb9wM3ciWtVJ7s8wIt0e09WqX2iy6P72K0jMmyMmJsgBSi6fuSKeGwKDhnT+2SWFxJ2S0A43WK9N44KC7NFOhp6ZgkqWWK1JWGorS4v0yUxe3m6SgwFhQ4LxbXq2J03H+iQs0Q9RYBCwXiFxgf9HJ0Hr3G1kkSY1+i703A5ISylNjk9OKiLzmxkM/5uOYo4CgwMSgA84JBk4/lljGgN2JeOIqa2g0m7TcKUcRPdG54mxPfaBriKOFahHPhlGnyweFkTEiONxWPZSK67hwFHAVGgQL4ZbLHcUonTjpW1JSPYYRi1kLdHDW4EWZVvOpJdWNCuYh3JM0SmTDWrVun4wpfe+214W5uv/12XbzFFNghENx4nBM7SVZiPzGAPojmLnEUcBQYZQqAAzA77HNCMbdv354q6IXyWwvFJkbRbERfKEDh7Eh9Q+A2nBspd0yqb+IuvSFGBNLjhc7vACIB3+QJI/aULBJjmQ12lNeHe5yjQNZRgLA6EnQQNmlqNKc4yVCgZ5PTGwF6ABcfgA1kB+UBNALyyVoC4kMITOLEuBJcTpEWCGKqqAGCpshymMwVKRLX3eYo4ChgiQJgAdwdEuCaNWvC9Jq5oMesCPQmYwS6PSYL5wboobfjL+LvG2+8oTOFYBYnHToZPmiIt6YOK35CAQsChyGqu9dRwFHAMgVMYa2wMdsyrOQRCgnGblO8jTkQRNqHH35Yi7Wk6DGJHDFsYMQwVZsQbcncy+8mjRMpjLZs2aLFYgDPVO2y/C5cd44CjgLjiwIZ46cX07uXZJ5/+7d/q7m2TZs2aRBDxwcAwu1t3rxZc4NYdPjem6L7l7/8peYOAT8K4ZC1FqBMVsDalFTE4hvdBq/mq7JJUpQm1xORQfoaqbfpmqPARKHApWuF6vj54gh/2WsSTNB4o1MNtkXuGyIxYhU3GkNaZUwYWtwcVyapJwrMp556Sltk4ejIZAsIbty4UedxA/Siict1WG0RkRF/YY2TgR7i8d69e7UhJLoN9EgBGDU/OoeoutroL8RtDF+0e7SjgDUK/OjFaerZN6L4lJwClZN/VOXkXY54jqlDHPbhpgAUrmz8m6gpmBqTlTpA/8HqyUZ1bNOQMQJ9SYRo0odjpIBbIwW4SW1NFltOEWJkEW35GNEWnz2TsBGlJ9wg7ipG35eIQPRB37Gqe3V3D0gSUZeeKsACc5dmIQWuNY085G/mb+yUfRcqiUlcauGbh0saBk3cV0w2aoyaMDwBWqjUUmkFPWqvfvnLXx6uBIZ46q1bgSUXVxYmz18vB/fbv/3burYELwKgo/4D7i+uOQo4CoxPCiDhmapzMDg0mBk4voAtY8TbEcpFQOrHP/6xFlnh8KJriQJy6O34RLcXX3xR+/PgqExqm3jFlwMSy13uKOAoMEYUOHbsmOJjoWUM6I2w3nrdTEg1kydFPvibrHjIoBgWLl06pwZF5UCOfNccBRwFxicFyOJicvb52fckGWDPJ8molDE1MuKKytS/XTSrXd17R6NaOLNdVZb1xc2yggtOS3u+pKUpVR8dqNHpp+Oklxmfq8CN2lFgglCgpGhArVnapNbe3qxmTelSJZJUNF52pT4p+EVGphPnS9WOg7U6vVQC4AuVB86mTm+ElzRc3bzpHep3Hj+vNq1u0OUbNeonY94E7dcsa1ZfuP+S+uRItfqHV+aoo2fLpMhvshtvriasQ/fcc4964IEHopaX5NO78idqxdzjES4rA0LC//WvF6p9x8omyHJ005zoFPg//+S02rAiMonolaZqda3/d9Vg2RcjyIOK6e2339ZRVH7buuWN6htPnVMLZnYM5dFLsu9lz6Mfu3dVg3p682X1gaSj+9HLc3QeTdvNJuiNQKSl89rU73/+jLprSYuverXDk5Oe8JrLl/q5EI8EhN99bp7aI4kF/SQSNdWnRpTHk5sHi25ItaYB6fsWh0xq6vyoGqC2Ce36cxTIJAqUsg/K+rXKybT27n7V0S+x72Jw8DZTIN3v+Detvq6+9aXTauaUbrEE+/Qj9qAH2Za3rLuqaiT35n/+6WLVOLKyYqgwNJseuRGgR+LAh+++GhzwoigL8N02p009dk+9pJzv8Ev32NcNj9Dniwj3NHe3o0DmUiCHdL3227TabvW7T54LBnhRw0BCLBbReNXiFvX1x8/FGmQop9q0gB6DJjX8fUMibVjSAnzrheNbMrddc3+uOQo4CmQmBR4X5gSGxzeHF2caAHJ5Sb/WBy6a3R59VYZweiDdUKPY73yR5euq7Tk5YvxYKMaQ2ip7fWbmsnGjchQYnxTAUnvPqkbNpdloQEqV7Pu1ot+PZgbD9G+P0xscHO4LHdyMyV0R+oIwg+ReCMAJgpzvmqOAo0DmUWBKda9mdLx6wrCjxPPjtjm3OL2hiK1Qkrk90Ltpe9CtuHBAlQlrarvRZ0lhKGu17SG5/hwFHAWGKFBdRpVBu+onqhbWVt5idIaCFEI9xCboDaMRFlYcjG23m/3a7tX15yjgKGCDAukwjYAjEkpvtVkDvb7+/mGU65JSbm1S7Nt2o4B4p/TtmqOAo0DmUaBBXEsGBuwyO/RHv6YRiy/hrKFAwBroDQ4MDPNgzW2T1OVrRYLQdglwSUpINorXtmuOAo4CmUcBve9lj/ZbBL6evlzJ+3craAAfXBFxQ8l71tixgsLCFvMa2rvy1enLperitWIp8N1p5e3gmX3yQpmEqvhz0SG5AXn8Ihq0khq8cKL5Hrgn1s82QFuZtOvEUSBNFKAmbackzvUaHQCY3v4bajBq37CPTMq3RMMB7D7cX6vmTO9UZRJyFraxL5sESHcfqo7oSspIhrJmWgM9GdVwjisAhBi6Dz6tUc9s7lZYYMI0iLnzYLU6LHG4FA5P1khKeOTIkZj59PpbC9W20hkRMYBg4YWr9sNdko3T/e4oMFYUeOn9WrXncLn2ijCts6dY9eaeUTmFL0UMi7yUhKL5aVs/kYqHtzeq5QvagkVhxei8rSNfvb93ssThR0aIyKWhENUm6EUM5FpTodr6yRRtwt4ovjtFYtFNpQFynxyuUm/uqlOXRGT20ziZyM/HJ7p1d+eLTmCyn27cNY4CWUuBD/dVjpjbzSSil8Wx+GrK875wtVj96t2ZqmDSBbVYnIqJt0+ltXZMUu8J4L22fWoscTk1MBkaiE3QixgIyQFOXSxV//T2LNXcVqDukJCSmXVd2p3FT4P9vtxQpD47VaHe3Fmns6344fL89O2ucRRwFEgfBT78tFZzkMTgEn8P41MwKTn4IXF1CFMCZ/fJkSr17sdTRAKLmWA0eWcJpmcT9EYoF3tFR3D0TJnUnyhUB09WqAUSmlYrzsUQIF6KGSbeI0HPLe2T1JlLJZL5pFLBNfrNsJK+V+l6dhRwFPBDAdRR2/ZMVmevFKvl81vVnGldOp3cJEnqIWaImF2wv7t787SllrRS4AUYkI5mE/Rijg9lJBN5R1B7qxCiRDg98mwJJx37esHwLpk8OfRsm7/TQUDXp6OAo8BICsC8nBZJjw9gV1LUr3X7JqFo9B0AJXse4PPhlxfKZcUm6I3wTyElDTVrqWKGlZm08Tr9e9dN7hTzMwVCyJNvrjl9+rT+bcaMqfo7b6MPqqSb2rnxFptJLRV9P9cXTpLY3RuRelDOnrbOPKnRYdfFxm0GR4FMpUBZycAQ5+UZYU6+yptUoHLzIkVKLLfoyZNVIYw31z7ZV4Zrox5OTU2NomgYmdXZzyO8LJITLRRuhbo5amwjeDcqoJHIk4niQtLZ2al2796tTpw4oUFwzpw56s4771RcR+47wOpHP/qRNo+vW7dOFxGhTgZV0bDIQpydO3cmBT3Ky82ePVuXjYxug+0vqNrShoiU9ZxKr31UIz5Gzgcw+XpzV2QDBTasbBV3sp4o622p6s65TQ0WLIuYIjVqqF999WrqBg46ZD+vWrVKUTCMf9Mf5V2pf+2td+2DvqE2qk3QG8EmgebUswXwmpqadEHvL37xi7pYEGUgn3zySQ14lH+jiDfXcy0f/h9iQ6DS0lJd/pFTIVZZx2gi0c+SJUt0Td3IJklEL/1MrV5wSWIEPcW+RZ9w4ESpAz0fq81dkh0U+Nx9Deq+O1pFzXRLx3bxerWq75+tBss/FzFJinqx78KCHnsdZgSAQ+KbNWuWZm7AAr8uMUMDC6Xsswl6MbV0iLQg+fbt2zVX98QTT2jwa21t1WwudW9ffvnlEfVsP/jgAz0/cUTUIjIcnhF9s2PZuVk4CkwsCuBCBsCBCZR1feSRRzRzwv4OCHqhdHrJPX1DvhdEU3R2FPhdvHixnvSlS5e0CAv3V1dXp26//XZd4xYdICKua44CjgLZRwE4PJgcJDj07TA0qLwAwNFsNjm9mONGV7d27Vr9wflx69atugYuYPj666+rRx99VD3zzDOa8/vwww+1qMu/Q4bXjSYN3bMcBRwFAlAAwLvjjjvUggUL1PHjx9X58+cD3K0vzYzY23gDwQABWwuiw+0ZvQB6Owr/MunVq1erhx56SD311FOa2wP8uN41RwFHgeyiAMwOenpUXUh6Bw8eTMV6G8o52aZ4G3MgWFzR6b355psa8O69917N1tIgABzd3r171d/8zd9oq+yyZcs08LnmKOAokF0UQNKbO3euWr9+vTZWoqdPgcuDKP7CuuKQL+2gZ54LqsPBVVdXa84OFnfFihXaYstn4cKFGgSR+b3+QOj4nJ4vuxa/m83EpAD6e1zYqEsN4J07d07vfcMEBaBKKNCzqdMbIWcDYvjZMSmjxMRys2HDBu3388d//Mfa/46Gb92FCxc0R4hOzzTAkd8c8AVYEu5SR4EMpMDdd9+tmRv8dhFxaUiC6Pmff/75ICPOXJ3e0aNHtc7OGCXwtfvrv/5rPTmst9/+9re1yRpQPHPmjPbQhsvzGjGee+45DXh+8nkFoZq71lHAUWB0KYBr2quvvjrioSns7VA6PZuc3ojJAF7I7qZF/z9c3meffTYMgrEstikQZHTfpHuao4CjgC8KsJct7eeMAb2E+sFCyawye2qXZFzoVBVl/XGzLRASRubli5JS5vTlEtWdQk0MuEWcHT/99NMRLyO/tVQ1N1ZJ4LMnIoMMra1pxX9fi8Jd5CgwWhT49FiZiJa5EdmOWrsqVctgsxooiNw36OOTxbvHG3dZ8YBkV2pX02u7Jadm/OxKJBwgPvd8fYmklipOllUpY3R6Mb2kKdu4dlmT+vymyzrFDEkF42VaMIS7QVZ3SR56paFQkghOkwzMtZKTz3/kCXpDOEhE6+jW2wU2z5aPRy0g/0xHIaPRWsDuOY4CQSnwq7en3EzwGRELQMKBYyov/2JEdzFLLyR5IEW6n9p0RefUm1xFacgbEXG+sW4n43qXADF5OF/+YJracaBGkaUpRgsVwWCTvRnR1+SqHvXYhqvq6QcuqeoK8mkF40qrJffezCndus7GC+9N1zU3/DTEZERnYyTx3iN4KCK3zWn7GZG7xlEgsyhAViFxGosY1M3MyX3iRdEWarDThKv74984rVZJ4mDy6AUp/l0lDAh1btn386TWxi/emhUrxVwo0LPpshJBwVIpDLJhRaP60uaLqq6mJzDgQXUKB9cIAZ64t15tXnNd1QgIuuYo4CiQuRQoEMbmG0+dVWtEuqsu7w0EeMyKKFRUYajBHttQrx5aGzOzSyjcCnVzBOlzJBmXpy2Y2aG2rLumWduwjdPi4buvqtvmtCdlkcM+y93vKOAokDoFNq5uEMBr1tXQwoTRwx3OrOtWT91Xr6XEqBYKt0LdHDGQwcFh0CsqGFALJTU8+fHDTNzbP/rAJXPbVUXpCAKk/obcnY4CjgJWKbBFmBP0eTb2PeowVFt3LWm2Cno2lVvD4m1VeZ+aI4P1WwTID9UhACzvZBF3k+XOx++P3F1Tp04d2XX3TlUyqTnCeozF+BMph9foLLh+XoW7JgsosHpJu5pSLeDkmUvfQInqy5V8evmzImaIYZAkIcksuOWl/WrR7I6UVFnxSAqGrFzUot7ePUVfgr5eHJpD4Vaom+OxnOVisa0ZyZKGXiqwuRA2WSO0ZdGiRTrGL7rlNGxVi6ZfEV3DLaPKoFiNLl0rcKCXjLDu96yhwJb1TepOAT5vEtHrLVWq8cZMdaM4MvkuoaGEkCYDvSliuASkbHB5htD5Ul9jhhg1TAP0JEorlLhnE/SGD408MUAEtdT6WU30Sd/JGlYoQl1IVhrZJHOy1CRfNKtrRObk4qJgluVkY3C/OwpkMgVmTOmRurRdEaBXUlykCvuLJXNy5L4hIopw0mSNwj85Ocn3Z7J+vL9TNRHDhhf0gtwf61p7Oj2P4xv1aXukqpHtRi3cvr5Q1mrbQ3L9OQo4CgxRoKOLrEl29ye+e1RJM20oBj/UQ2yC3jDL2daRr641h6rdEXMhXZc+qXzumqOAo0DmUeB6s1Q468wXh2J7Y+sVBup8/S3/XEBv8MaNULgV6uaIqeXkDAvezRJOQpXyVgE/W61buLwzl0sVwOeao4CjQOZRAI7sMynS3dtnD1boc8+RqghOLyc3N5QfnL3RDQ4OWxiY9IkLpWr/8Uphd+28nGNny9XRs2U6Ltc1RwFHgcykwJu76lRjS2G88LFAg6bw91HZ95+dqoi+L5Qhwx7oSbisd2QEDr/z8RR1+lJpaOC7JOFnb+2uUycFSF1zFHAUyFwKfCqMzrufTNGx8mEYHuwCp2S/E4MbIy4+uQtHAhLZZJsizJ832dJqbcL+3MYrasHM4H57cIxnRUx+S06P7RJ87PR5mbvY3cgcBaAAe/bX707X3hHrJQwVdxNC0/w2gLJDpLkjZ8oVXOPuQ9WxbvXfYYy7bYLeiO6bBO3h9q42Far772xQsyS1FOEpECGeLw/ScF9/jp74lYYi9aFkWNl7tMqqftDvC3DXOQo4CgSnwDUxaPzja3OEYSmWaIoWNbWmW5UUDUiy4MHIpC6erjF+4PEBV3f6Uone96jHBsR6a7ulFfQYbGd3vtr1WY3ad6xKZ06YPvkm8Ekm+ZhN8gyqDuES6xuL1AURkbt6bErgtsnn+nMUcBSIRYHW9nwRTaerbXum6DyaxnFZXGhjNhgdJDnSyaHOIr9eghYKFGyCXkKTBWwvCM4n3Y3srBQUrq+vH/moRklNL06Y0REZ3Q5c0/1aXP8ZRIH6hgLZi0URzsnXxADRMNCtBjsj901DQ0PMNG1+ptMunNvh0+XqsCr3c7nfa0I5AY8a6EXPhvhYqiNRPIh/k+0YoCLUJWxKafLoHTlyRFdWG9G6S1Vh3kz5+hZGo0c4X1/ol+DuOkeBcU+BF7ZNVh/sq4wQNwcGS9RA3lk1mPdixPzYT6ZedZiJs89rampUaelNgyT9st87OjqCdhvKWdcm6PlWLgJ08+fPV7/5m7+pQY9qZ1RFov4tlZHCFvoGQHlJsV5Ud/cNSUo4wgQelOjuekeBcU2Bw6dHSlw3k4helz3ZlJa5ERr64IMPqqVLlwqHmavB7qOPPtLlIKmWGKBlDOj58sjDo3ry5Mnqy1/+sp7oxx9/rA4fPqxLw3V1dUUUEgpABHepo4CjQIZTgGwt77//vq6IVllZqR599FFdDZFysJcuXQoy+vEl3paUlCjqX5IJ5Sc/+Yk6e/asniw1b11zFHAUyF4KwNQg0iLZNTY2akkMFRdcX8AW+AZv/zbFW1/jNrnu0LcBeIAfIi7NFCCJVQrSV+fuIkcBR4GMpgBS3qpVq9Ttt9+u9Xvbt29XFy9GFiLyMYFQfiw2Qc/XQED1srIybawA8b/2ta+plStXamMGFcx++tOfqtbWVh/zTnwJzxnKyBBxYb7gK+lqImRx+R/8gcJ4kIcesOvAUWAUKUA6du0r69m17Is8KVVomBAzHJgQ8wk7xIqKCjV9+nSd5Jf9DxYg6jY3N4ft2vf9ow56gB2gVl1drXV6P/jBD/Rg/+2//bea9bXB5SFCr169WovR0S238f9S8+tOyMu9VToTwPtPP54tXuDpd6fx/WbchY4CaaTAn37lkrpjcWQS0cb2akki+rS6UfRgxJORynbs2KFOnjwZekQnTpzQ/cCQbNq0Sa1Zs0YtX75cJykN0HwbTWP1aRP0fI0Z0EO2x3oLh3fgwAF9nw2wMwPgpOL0mDNnTuSYOLHyu9SyBR0q35M5GW9wihK75igwUSgwZ3q3ul32gVeddkl890r7SySJaOS+gSODkbDVDNeIOgs8iCWRJXlWxsTe+qIJZmpQfcWKFepLX/qSBj5EUTg/nCBtNQg5gphD7DxsvDdNtiLUxZdwbmt0rh9HgbGlABmOATzvPkDcvSnyRm6GFEAp5uRqa2sVn+LiYl2/hr3f1NSkrbcBW8aAni+WE2S/cuWK+u53v6u+8IUvaI4P0GPyuK7gr+eao4CjQPZRAMnrnnvu0S5rSHuIunv27IkdOZV4+uML9JgLbC0WG1xWjNIUMMQp2YFe9i12NyNHASgAU4PHBkZL9jt+eyn65obSRdnU6SUVEOGai6R4SOlwIeAuQcCbCwKnlXLJCs2HXPvEwt6wnG/fLT1HAUeB0acAlmKyrBQUtKrcwVY1KMEXgEWxxFXw0YyQyIldkmikq8eX33HGcHoxRysWcKmv2aPuW31drVrUqv+dn6SiGdbUxpZJOmPq+/smS9aForSkmBn91++e6CgwcSiwdF6b2iA59ZbNb1MVUroV/WE8zgh3Meph1DcW6vTwOw7USknWuNFmGcPpjRghpdso1PsbD11SC2e168rnlInz08icumReu1q7rFk9t22G+vhwVURVJD99uGscBRwFRp8C5M37wqbLavOaa2p2XZeqkH2fjNFhlADfbbPz1O0ClnctubnvD0rNjRgtqVSZaNY2xdsI0KM+7e0LWtXXnzivlsvfAk/tSj+vgRq35OCqLu9VpVI8nDx7uySLqs2iI37G4a5xFHAUCEaBp+67rL74wCU1SwDPD9iZ3rX6SzKtz5T7qit6ddb17784V8pElEUPIBRuhYphixpJxEBmTulSD999TS1fGBzwvP1CtMWz29WjG+rVvOmdwajvrnYUcBQYVQosntOunpTyEEEBL3qQ6ABXS9blpx+4rCaNVIdlCOjl5AxzenB5i2Z1qHXLGwPlx4/3dlCErr6tRaEj8Csej+qbdg9zFHAU0BR4eO210IBnSFla1K/uFDH3trlt0dT1Ze2I90pCIWZEp4ODwwVpK0QchSubUmXP565S9AILZnaoWmF7L10vSrjECGc7duxYTPeXgZYitXPvDPG/vKVbpCr7xasuiajbtxOHAq98UKsOHC+TfXArCr2ju0R155xTqvCVCELEzUIeRS5UWHff3mSNMUHcZd+vWdocUQbyxuBgKNwKdXPUnIfRt6q8T02t7Y6MerCwnqZJgRFk/WSgR0zv6dOn1blz8gKjWm9PgegHp3gTJ+srevpC6UYtzM514SgwehR4b0+lxJ9HPi83V7KYT7qkcvMiM44TNoZvbbJWW9mnakUPj2RmqwGkMDum4d+XGzJExCboDZOwsGBA++LZbqUSH4ufX7JmXlKsF9Xdwwu0qcpMNhr3u6NA5lEglkEwV/zLCgYHJGAgNQmtsqx3BJCGnTkAWlVxK6vyUIx+KA4lLbsf0/ONNJRuIzGAS/8Udhm5+x0F0kOBASqY2WPyhgaZoz03olqop9gEveGhdUjZxxYp52a7tbRPkvKQNplT2yN0/TkKTFwKNLYUiIOx5KW0SAJKQV4Vh2XTkGxFgguFW/YQJCdnmAdtliLfl64WSdHuXIW/nY0G53jxarFqaB62lyTsFuLESkOdlyfZV2K8FpdE1MZbcn2MFwoMJxH1DPhm1pXUk4g2yb6/IHsUnX4Q/7xENOvpzVWHz9wqH8melnj91OTvoQfZA71BUQYMtY6ufHXqUqmUVSyOUEKGWRBXmwrVcXFSbBJuL1kj/xepa2bMmDHi0r7Wd1RVSVOE1QqReceBCnW9OXnfyZ7tfncUGA8UWLOsXdXV9EZkkeruLVK9ubNVbuGCiCmQCIQEIWRCStSIlX9v72Q1f0aHWF3D6/RhRNj3e49WRT82UOm06JvtgZ5Sw7MERE5dLNUEINa2XFxYwjSCkD/8tFYdO1smrG1yHWZRUZHOw79ly5aox0oS0Usvq9ULJNND3i0OFC7yT/6/ix3ohXlJ7t5xRYGvPl6v7rtDEgB4LK0Xr1er+v4vSBLR34qYy+XLl9Vrr72WFPS46b09k9V68c+9UxyLg0ZheR8KhhB/D4acrx+RwDQUoISSjaPecoRN+5og9DYhwAf7ahXibqqtTSqkf3y4Wr29e4q6KIkHXHMUcBTIXApcay5Uz741Wx2UZCEwK6kYHuHwrks/MDovvT8tVh/J/WcSkMgmpzdCf3laRNyfvDZHNYtIuk6cFnE0LC68obmsqOSsw0OESP03cqVeRq5qFcD79HilemHbdC0u40TsmqOAo0BmU4DkIH0ikX3x/ssSmdWuEw6QfCSWHtHMBNG4T4wg3QKUiLS7Jc7++femq6a2mDr8ULYSm6A34k0AYOj1fvDiPPXux1N0KNnsqZ2qXNLMxIin0/eD8u0CdnB1+09UquPny3SeLdccBRwFxg8FPj1WqU7I3l0hyUZIPDJVAgtKJZ6WENVYDb9BDCGIsvuPV6iToh5LwOSE4n5sgl5c9MUCc/Rsuf645ijgKDAxKEAy4J2fVeuP5RZKLWcT9FLyTSF1NIVCiJ4gdbTNqmiWCe26cxRwFAhJAcpDFBYWDpeJYN9TIqK/P5BtIvM5vXh0wueGwkBPPPGEwkL04osv6rz5rjkKOApkHwUAvHnz5qm77rpLTZs2TU/w2rVrau/evero0aNBJhxK3xWKTYwaZWDlYkFBgXr66ae1P92sWbNGVFYPQgV3raOAo0BmUwAG59FHH1W33367LgxENiRKv06ZIglAgrVQoGdTvA0EejgQ33vvvaqqqkp9+umnuiyca44CjgLZSQG4vNWrV6vKykot0VH6MUQLBXo2Ob1AcjZ6vI0bN6pt27YpUkG55ijgKJC9FKDm7cyZM9Unn3yiS0GGbKFwyyan5xv0SktL1Ze+9CVFcsJ3331Xff7znw9Jg8jbYZ07OjrU1atXI38QH5ocid09e6VIfIZu+TfeEJ8iSk665igwUShQ31CgzlwujIjIuC4JdhsGetSNrsh909DQEFrXXlNTo9VXLS0tqqSkRD300ENq8eLFutb1vn371K5du4KQ3jfWxOp01EEPay2Ij3z/s5/9LKjVxhdhIOSOHTv0qRLdersKJeHAYvnaK43nqLbOUByzr3G5ixwFMoUC/+3ZmVLKgT3g2Qc5+Sov/1OVm388YpgwEVhYwzQ8M9DhYa3FWHn9+nU1d+5crdYqLw/sypaSp4gZ/6iDHiiPLq+iokI988wzWrTlFMCS+wd/8Afqhz/8oT4NwjTcXiAwn+iGcXhgIP60GY+fLLFhxufudRQYCwoANgAYrT3GIc8eLCjoE46s3frwGhsbtTsazA4ZzeHuYIDuvvtuic4KzLhlbhhaLMqB+OjxDh06pMEFQm/YsEErOD/66CPtq5euVlZWpurq6tTZs2eHX370s06dOqVN6IwNvaNrjgLZQAFAB8kHKSheYw+ieuKaWAxDGDrA2SEmL1myREt3SGIwGCkAHsMI5NQXPW6bnJ4vlpMJnz9/Xl26dEmPhUkvXbpUkRnlxIkTaTNq8BxeKiZynm9OvGiCoAv88MMPNfChg3DNUSAbKADAkBoqkRMwUhhSl5GUbM6b57KvcFMjA9Ly5cv1nuf7FAyZ4wv0ICgT9RL/jTfe0F7ara2taY3IAMRgqRM1xsc4+LjmKDCRKIDUxf5I12FvUlSR6xIGBD0hHCgcYMCWMaAXyE/PO8n6+vqAc07tcl7qnXfeqVn4gGEvqT3Q3eUoMI4ogOoH9RJAlI6GyogIDDhOwJX/Zx+mEHqaMTq9uNpIUsZPn9yjlkjRXrItUL08keqyU9LLNEi+/aOSNPSCZF3okQwMYRuEheDoNVyMb1hquvuzkQIYEFHv2JJyCqVy4UJJLbWQetWVvWItjp9SjuxKnZJN6bLUtCaz0sVrxYly8WUM6I1QgAFsU2p61AN3XldrJZ/eVPl3WUnfSFN51AqitgYFgCgIQj490lJdEiJQDS1M44ViQElReRrm0e5eR4GMp4ApnZoC5zVibotnt6uH1l5TS+e16ezpMDo362bE3sSkkeqVfd/aka/rbHws+fRIQtwau8CYL/tBPILbNGSM6GtGXZd6auMVtVkmP12KfwexTE9WvWrutE41b0anEK1XPU8iUZ1jK9zacWJtOPq5ux0FklEAoPutLRfU2mXNqqIUC22yO279XicAyb6fP71T1VT0qn9+d6bOrxnVQol+aQO9aqmItHFVo3p0Q72aXJW6Y+MUqZj+4JprqkUSDDL5ek85OP+kdFc6CjgKjAYFqIT2Gw9dUveubFTFwt2l0iaJ0/TsaV3qsXuu6szJL0gG5aiWev0J6SgUYkYNZBhAAfZ5UhHpgbuuhQI80z+nxSYRkRfPaY8Im0mFoO4eRwFHgfRRYJ0UBbp7WVPKgGdGlpszqKZWd6tH1l/VajGbnJ490MvJGe4LhEd5uUjkelttjqSZR09QIanmXXMUcBTIPAogxqLHKw1Z/dDMLF84vlmiIqPMRGaC3uDgMKcHiztrapcqEuuNrUZufYBvsoi7rjkKOApkHgUqxEgJszPJU1417CiLCgbUioW3QG/IyBJASzhyBPY4PY+oXFbcr6rLU9fjxSNUdUWfKpe+XXMUcBTIPApgcMRNJYjhItks0O9Nn3wrm7oNy7JN0BsePwWEb5qn7bY8OUG8xYnt9u56cxRwFAhDAfxxbQIeY8kR3d4kKR9pWqZxesMjo5wbhX5tN0pB9vTZ79f2OF1/jgITkQJt4l0xlMTF2vRxWm5rv+VkMuRjG0q8teaycmNwcBj0cCikYC8+dTaRn+rpLR4CWKNsBnVE0DdxiSZMJ4OGlhFDIZSQZBHEa9rOBGJzgsSvkqXHhjhmc1w3uSdJmitppmz7rF6TBL0tsvcxNtqSyPqEgTp7pXSYBIxdaBpKQrUGerk5OcNKvGbxqTt7uUQToEqqm9tohKicFufk6wJ82dxIq00afTYMESTpaAY0mpub09F9Wvuktgoxoh988IG6ePFiWp+VaudsTLKVkDfSNrCkOibvfRyoVB87c+ZM6IzI3n57evMURb5xMC4uTM1Hz9sfTBPc496jlRGgJ/QNZSG1BnoyqmHQ65f06ycvlqk9R6p0CFq8quZ+XyDhZ4dOV+hi4ekQm/2OYzSuq62tVQAfgEdgdjoa2S0+/vhjtXPnznR0n9Y+AZQ/+7M/0ymKMrXB5S1YsED96Z/+aeiMw+mYI9zyyy+/rP75n/9Zl1612d7cWadWL2lWs6Z0h+b2AFHi7wlFjWqhDAY2QS+CpTtzqUS9tXOqDieZI2ElqQLfDZHpicJ4fUedOn7hFptr80VlUl+IHSQ53b9/vwamdMQJG04vhTxmGUEqaqtkIgflJQ40JotIJoIza4zkAmFTwMdaDPtPVKp3dtepz0n46WRJMpCqmEv8/fHzpeqf3p6l+HdUC8VG2gS9CF8SuL09wpZ+/8W56n954pyaUdetisXnxi/4AXbdvbnqmugGf/7mLLV9f60U75k4Rgy4BVLqpyN7M4BBdtzxKN5mBOoODQKOiU90491xWEHndOWmC0MH9Ix8TP686L4A7HhJdv089yevzpbCW4Nqs4SPEoJaKNZXP+AH+zYguIEq6+SFMvXT12ergycrYj0yY8TbEQNBFP3g01qdKODxe+rV3cubtLxPiEnc3FLy0w3JuNAkekHE49c+miZVm0oUIDqRGsaMhx9+WG3atMn6tDEC/PznP7cu2lgfaIZ3yDuisE0sbpzSBNCZQvbhGyA1tGUsWAYBY0CNZJ5kEo9ucIGkd0+1VgzZUr73wjxheqp0hMbKRS2qQqI0NPDF2sbyNYAHR1ffUKg+EgbnbeEWE8TZZ4x4G/PdwrGRKua7z8/TXF+pOBfXSMRGwaTY4+7rz1HNYqFtEyMI5mrXHAUylQIUr37iiSdiZuNGrCVZbUoNTowb5e8NcYq4IWLyTStwjsrNg7u8yUnSUlF/kKX8/vvvV2vXro05PHS9r776aqi8egwXpoUPDsbEz5eLVXdSDP9ddPY9UoK1WfZ8R1e+n0xKoYDBpnib9P0CgIAZH1q0aGDY7qQduQscBbKUAgBcX69U8uvqFJ2b1KCV/49uOSJST5pUoAqLilWBfPKSlEAYa1L1D+SK5FYkzEyO5jC9bjyANjgw5IoiQ0VgTMrIZYbLShDCmiI9K1euHK6Ixv3Hjx8PxVYHGYO71lEgkyigi/F0d6nO9lbVL0V8ErE7g9Sh7enWn9y2VlVUUqpKyiti6hczYY64GG3evFn7n27dulUdO3ZseFh33HGHeuyxxxReCxjw+P2zzz5LNuxQyn2bnJ5vlhPl7qxZs9RTTz2lWWiQ3nB5KNdT1SUko5T73VEgEymAFb2jtVlzeABakHbjxoDq6mjTAFgqwFdYXBLk9rRf+8gjj+jatvhXoiv0GnYAPMCQmhx4KixevFht2bJFYwIVCxO0UPn0bIJeIALC7WEy/+u//uvh+/j/THdFCDRJd7GjQBIK9AlYtQvgwd2lGr2hKwz29aq2lpslHgG/TGnUo3nuuee07+ns2bMjhoUDN+4z1LuG+4PhgetbtmxZdoIes+dlpSvqIFNeuhuHo0A8CvSKOKsBT4DKj/Y+GSXR/8H1YeMoKcsM4Nu9e7eW3LBye0GdqBBCLinWde7cOYWq69FHH1VYvRF1k7SMEW+Tah/NRODymDQy/r/7d/9OA9+FCxe0xShRBfZklHC/OwqMFwoM9ItI29ZiDfDMvAG+zvY2ESPzM0LUjRcfjQ8qAIclmXA9CoAj1gKCPnwbfavSYq2HMRFvOdkwWvz3//7f9aRXrFihJ43c/9JLLyk87l1zFMhWCsDxtIt+K5nBItX5A3wdrS0qX9xmAL9MbMZiu2jRIg1+u3bt0uLtunXr/Oj0fTNY6QY93wMxYi3Ax+Th8rDwYNyAA3TNUSCbKYBY29fbnbIOzw9t+gf6VZdwfKUVVSn58vl5RphrMGrwQaeHPg9DBvufCKSrV68m6zqYtSeqN5sI4xv0GIOpsYm8T2A9Im8qjpbJqON+zz4KVFWJp/9DD6VVH4zq5cUXX/SzAQMRmHUPGIUJ8/L1QHlOt4QaFpWUqXyRoMaqAWQmiQbvDQstNCDRQVtbm/43USELFy5Ut99+ux4mGWCStIwBvWQDHf4dMRa2dt68eRroIEp5ebnT6fmm4MS+kEOSDYReKB0NaeOee+5R77//vnXQwy2lTyyto9FwZ8H3D+flsWIo2Od8ADZUWYAb3ByeGoAbFtzbbrtNW3ZRe8H1kfIqScuYhAO+0ZcXgBw/ffr04ZeBLu/QoUOyIOzk30tGNff7+KXAwYMHtW9XrGD/sLOC+0CRvn79+qT9I5qhh4qleC8qKtIbOqINOSCHLVgfZI5EdhSXlkWAHtIV88RwEKthWLTFiQJi9fX1EVEXGDeI7UV3j7vKqVOntFoL9xbilaHreOH0fIu3IDoTNVk+QH30es4pOdm7dr9DAQ7L5cuXa87Bdnv99dd9p106ceKEBo9oLor/R0eNBDNlypThIeqgevHL8xFmZW1aWIlviH4vN/dW/kFAB1cSdOqx/GLhpH0Aj68xXrp0SfGJ1wA/PgFbxnB6Cc3IFAqqrezRqWYo66ZUw615Fis1efGt/6UORlPrJJ1WiowNrjkKeCkwc+ZMrf9JR9qtDz/80HegPe4VfKIbnB+cEnpBbyPaYgCfPIsNnVhvV71qvPjGcK86njWvWNXN/w3t/oeVOC9/0jA4Mz5AzYC2xeGM6KpQ9jrFuqvK+oWbk8JBceJqyaxEVqYGSTnf0FqYrNZGxoBeTHSi9u38GR1qzbJmnUyU9PGFk2TMCSCSwkLU2SA7y15JT3PsXJnOseWao8B4oACgAyBHp21Cx5Zq1EX8eUscbqdwU0e/dwv05F/5hTVqyrxnNNBpoPUUrEGnDiCnM8FpSdGAFOluVrfPb5WC3d2qTFJLwfhQ3SxWA/R6JH9mY2uBLguxT9LOk1OPDCwxmm9VWqybbVpvR6ASE71TJv74vfVq1aJWnV4mSOsQoFuxsFW9ISmodx2s0Tn2XHMUGJcUIE1UjIwpNuZy40aPBr5bjWwmt/aaLf2c37FWCmPz6PqrOonoolntqqjQP0bpXJoi5S2Z26be2iX7/lC1zCWUL/KIYdsEvQhEIlvq8gWt6stbLgrgtaRUFa1UTou1y5oUROwXMXfHgRoFEE6Ehq4F3UqSwOuUSIEu1YX/pUS6UDf5VnqHekqMm4fy89mFjtiDhJvbsu6a+s2HL95MGEzi0ACNBMO1kmZ+k9TWqZS8mxQG+uzUCCt9KJ2XTdCL0CpPl8IgJmtq2GSvi2e3q0fk5Lh8vUgKBJUHIOH4vRRLFql2sFLabuhzMrWSmO25Zkx/gjhj5TaSkys+sKNECPbq5zddVlNSADzvEFGLrRCm6Qv3X1anL5VGq7cyBPRycoY5PdCeyd99e5OkhrdDbbjFpfPahAAlWV8RDYrhupPM8pUqZRF30lVpLdUxZdt9IxPikiwzPVJKfn6ZKqtZGSHe5hdUDf+/fm7UPrSvW7z5uEc31Ktptd26RkbYdlMv2KKxJKoiWihC2uP0BgfFBnuzobubK1XQYFNtNdLMYxChTwwcrjkKjDUF8BM0RYC8Y+F7Di0OFq/LirnWJuDk5OSqwtJZatbtfxpBDlxUDGeZN4ltfgv1GJuJhohlzDCV3IKOE5XWXVL+kb+2GvseFZcBvaExhWKl7IGeZH83E60SWXxaTVIHw8B0wfRdLX070AtMOndDGihAYR0iCWI5SWO5xZ3FC3ootgkJ6xO/VHtN+iysVtUzHorZJanl8yW1vFe0Rl+MjyORELEasa/okoMGCkyukv1Z0RdYj5eIFgUCoPNndg5fMgR6GSLeekCPgdqocB5NjGJhdwtE1nfNUSATKLB06dKEhYGmTZsWMUzYk4LC4ptgMkphGZMk00qucIPeRsEiYpfjpXGjMBAOw0FBr0J88eK5pKT6vhCTy8ULxDQbnF4oxIyayDDLiYk5HSUbqYkZMJt2qrR29zkK2KeAcHqF4r+XG9ayF2BkFA9KyXUiwDPMpVQyHBSXE5uN/mJgSSjcCnWzd3J9/f3DojJuJS1DFc9sEqBFSkNSIs41R4HxSgFEzYLColEBIhINFBaVjJrVuKHlZgRVeBPGrbcL4F1tvOUYgipBwlVDgUCom70Lb1J+/nDmzybxqr5QL2y8EGCShJ7YaNTAPX+1RF1vuRVDaKPfTO0DHQye8z6yyAaeAjHO6eg38EAm6A3FpeVxyzvaIomOCpHnpCMpQ7wx4lR8XvZ9dVmvhJzZgb5uCU377NQtNzXmJWs3Y8LQhrWzhIydklAS3Etum2MnCzJof1zC0QDUidBQNM+dO1cnVrTd0OXs3btXZ7RwbfQpMEneLRxYd2eHiIN2mILoWcBRUhpytERb8/x3dk9RC8TLAmNm2Iaa7LrE4u6QaKyoljGgFzHL4+fL1NtCgNlTu0IbNeAY3/l4ijp8pny09L9h31fo+ymaQrGUTZs2he4rugPAjs/hw4et9+069EeBsopKEdP6ddaVoK4hyZ6AWFteVTOqXJ4ZE6Fj90s0xR2LW1RhCKMjdh4A77UdU+XviGw6oUDPmk5PJh2RPqKlfZLatmeKevH96YoEAqkYq3SGCJHp3/l4snpT4m+9sn2yF+9+dxTIZArgSlJeWa3rWNiM1KAmhu53jLIlkynlb59dqGB6wuz7prYCjR/Pb5se6zWGSlVjTacnIxvBpxM29o+vzha/uiL11UcuKELT/Np20AiQceHX785Qr26fplHfNUeBbKIAHFlF9WTV1txoheMjfVRFdY2aVGA/z2AQup+9UqL+t/+5TP3OY+d1KCqx834N1jA5Zy+XqGffmqUTDsTxAgnF6aUV9CAUHB/c3rsf16lFEk6ycKbI++LAOCkvti6DSbZINpUzQrhj58olxVS+ZKfwC5VBXo271lFg7CmAQamiulbKNraqbp2xOPh+1lEZ4ppSIunz8wX4MqEhkv7tPy1UP319tloqGVNmiZoLfztCVKMb35BWCuvvGbEDwCV2y//bzq5inmsT9OKaaxh8m4DXp5Ij6+CJipuoHw/HpBc64h4stqmIxZnw0t0YHAX8UgALa2l5pTZuUKybuhYkHE3WdP1o4epKysq1G4xNMTnZs5P9zr7Frxbw2y4SW+5n5NJLcJdcT+48s++T9J8hsbdJcmADZIAYH9ccBRwFIilgXJTyRR9XUlYhoWpSQEg+ZD3W+fC0lZeMyMT75muwI9rChJhlEuB5Z2b08sojrZFGn6Jg1MWgCBA1NAK2jAG9gOOW7K4y6S1btujKVrho/NM//VPc0JjAnbsbHAXSTAFqTRC4H6tWM4WBgoZxwQpp7o1EBjgWS/TGTUlnSPzhn6So4j/YphTLpgKiuC0x9liN1GPpSDxKNukHHnhA3XXXXTprM1ZraLh9+3a1bdu2IG8rY0AvkDciJR+/+c1varAjwHk0nSiDUNdd6ygQjwL79u3TdSaiuSzWMvVdv/3tb6dMvJt1oEPt7YTP3rVrlyLGNlb8Lbkc48XlpjwhuXHt2rXaDevkyZNqz549uhoaVRFTKEIUyutkVHR60YQC8e+//36FL9o//MM/aLSnpTD5MO/A3esoEIoCAEMscIDzmzFjRloKF4UasNxMhpVz586pzz77TP8drQqE1OSg/i2ZZ6jERoJcExmUgmg+/kCP8CpOQk5JMj5MnjxZl4S07aQZdoG4+x0FUqUA3F6mSS+ADBmzf/GLX2hua7QADxpSEhNm58CBAxr4KPpNai6TxTtRmcgY72D8gR6LAaBDl8eJiHxP4eFXXnlFZwsezZeR6qJ29zkKJKKAOcAzRXphz1EXBcD75JNP0iK+JqIH6iz2OaIzYyEPIWU8aYwnIOiFWnxjIt7qupwycU4b9CL8+0tf+pKW+d944w1XtCbUK3U3jzUFOLRZ23/1V3+VMQc4ew7DCmLtWBSFQn/HQYBKi3EcOnRI6/OXLVumvxvNZhP0kjsWeWYGAa5cuaLZXdrmzZt1RXiX/WM0X797VjoowNomVfx7772Xju7HZZ+4pWAthruDq+NQ4Dv0fCm0QFgT3b9N0PPtSo45nNOGSvVweZj3QXtAMB2m8hSI6m5xFHAUsEgBAA+9PdLcgw8+qFPVo+fDepuC7tM31sSagk3Q8x0EjJ4Dc/m6devUl7/8Ze3nhFVp//79zoJrcaG5rhwFMoUCMDMHDx7U4j6Ax4fvsCCnUNt5/IFerxRGwWwN0GHK5u+RI0e0NZd/u+Yo4CiQfRSg7gZGCyzI7HsAEDUA1tyALWNAL6lzMk7kZFKmaFB+znV1cN+bmrU1Im2F6DOJ1+vqzUs5LU1A4rnLHQUcBdJMgdycQUWxsKLCG1IPt1m1NPC59dASSaBUIOF13T25Ot28jxaKM7Ip3sYcLUBHdoUFkl1l5pQunVGVWpaxsi0wWUCPzMvU2LgkqalOSsYFamPcsFxwxAdhx/QSuGFOQTIc2264B7msybap6vqLpsBUKfo9T+pfT5e/1MIuLgL0YmdZIVFwZ1eeTidHyvnTl0o1DsRpGcPpjQBQgG3G5C517x2Nav2KRkkr1S65tfyBNAWASDe/+7Nq9cH+WnVOUk2RlHCiNDz9cS9A5LfdUCEgYrjmKJAOCgBsKxa2qntXNajVS1rU3GkdIt0lN7iSYaVZUtEdPVuuth+oVjslTfyVBimiZLnZ5PQisnzmysRn1nWpL95/WT22oV6VeWpX+pkD3CCEIwcfyUd/JclET1wo05zgRGgmKDwdMZD0DSfpmqNAOiiwXPbt1584FzhlPJhRU9GrNqxoUItnt6nJlb3quW0zJM/eiATCoYKS0wZ6VZIt9f7V19UT915RJVKkO9VWJHn2H777mk5GyicdyJ/q2Nx9jgKOApEUqBWg+u1HzwcGPG8vqMQmV/WqJzde0Zzfr7fOiE4oGgq3bMqLwzmqc2XQi2Z3qAfWXA8FeIYQGD/uEwBdNl/S+MTIvOoWnqOAo0BmUGDT6gYtoYUpCmRmUi0Z1p+4p17VVY+QSkJxetZAT9STw8I31lnKwGG8sNVmTu4WlrddVQgH6ZqjgKNA5lEAXd7mNddUiex/Gw1xd3J1j1q3PLJUqUS8ZAanhzfKLYTu1fq8WJaalIkhD5glfU4Rttc1RwFHgcyjQHlpvxgtOq0V+maGqLduFwnPNEL8JI44lGLfGqcngxpG39LiASvFfqNfK1WVSor8WX8zb0m4ETkKZDcF6oQry89P6q4biAios6ZIv6YN+fSGAr1QbGLU6IcBFGdEWFPbDc7RKvdoe4AW++MwIyaZdDy2Gy4r8VKF236W62/iUCBfVzi0u+9ztGPziD4zA/S6e3qGDRk94k+XwLEw5VXQ2Z0vpeFC6TBTfvZo30gg9t13361Wr15t/dEtLS3qtddeSyX8x/pYXIfZQ4FWsbTaLtuIi1pz2y3eLKRkq4ltjdMrKizsMq+vWerW1otTIUVNwknfkQviSmOhapK+J0IjuzRJVufPn299ukRjkNTRNUcBmxS4LHset7IK0e3ZkvQISDgl/rmmDWVkCcVO2tTpDZtVm9oKdBhJq4SS2WoU/z15vlRdFeBzzVHAUSDzKEB5192HqxWSnq3WIdLd7kNV0d2FMg/bG51Sw6AHh3fiQqn6aH+NrbmrPULMo+fKFTF6rjkKOApkJgVeeG+GiKOThkpXhhtjV0+eOniyXH12ujK6o1DWTJsIEoG+BA2/sXOqOiJxdGHbhavF6pXtU9UJST7gmqOAo0DmUuD8lSL1j6/O0YkDwrR+0eWdEMnuBy/OiwWgoUDPmk5PJhgRUYxC88CJCvV3/7RAfe3x8+Jg2CT6veCi+MGTFZqIe49K3r0JEncbZrFMhHtffPFF9eGHH6aScTcpeajlgD7VtdQoQDakN3bWaYnsaxJ/i29tUI8LjKC7D1WrH708V2daitGSZy9IMHyboDcC0Zj4odPl6js/XaRDyO6+vUnNlVQzlWW9klcvNgBirUEZCnf3yZEqdeBkpdbjTaQMK6ktt4lzF1ZtikZTWMZ2w/kV0JsyZcqIIt62n5Wt/bFXt+2ZLNlSytSaZU1q1aIWNV0iqkgxlxcrjFSgoKfvZlqpM5dL1CeHb+77VlLKCfNku9kEvZijA/iuNBZpq+u+Y5U6mSDIH8+qCxTeEOAjmSCIj1I0HRO3TUjX3+hRgGpaFIhPV51kMtB89NFHCtce11KjAIbHc6LiutZcIAA4RScPxqIbD8KwA/QPSBJR3N1El9cj9ydoodRyNkEv7hiZEP51E8XHLrVl4u7yS4FPP/1U11VIoaCM30foqnzNzc2+r3cXjqQAzAp5MTuGndmsUSkU+zcqoBc9VcSH5cuXq3nz5g3/hNMhC+3NN9/Uhb/TdYpbI7vraMwogN6Nlk7QG7PJZdmDN23apEu70qiASHGgy5cvqxkzZujyj1evXtX1cWjTp0/XJSIvXLigjh49Oi44Pd/oy2LFOXbq1Kka3Ph/SkDijPv+++9r0HPNUcBRYPxTYOHChcNFgIqLi9XcuXPVtm3bNNhVVFSo2bNnKxLlEha5atUqXRY2CeDp8y4MZWxyer5Bz1Q4N6Xf4PIeffRRXQqS3xyXF+aVunsdBTKHAhibTp8+rY4fP66luyVLlmjOzxT7RtpbunSpBsEFCxaos2fP6n8naaFiUccE9MiUQCiUKU5DUD0l4SiC09VlXwGQjILud0cBR4H0UACGBt0o9W0BNRM7CwYAhEh7gCF1cBF/9+zZ46eUQcZweilRDSLcc889Wp9HIRyscq45CjgKZAcFqG17xx13aLF22rRpuiDVlStX9OQAQ6Q9AA+mhyJY9fX1fiaeMaAX3PNYpodIu379ei3HNzY2DtfA9TNzd42jQCZQgAMbnXRpaalev3AsfLyNwx1Rb9asWdoPEGU9BhmkHHRb9AFAoM/GZcaoeNgfcEiLFy/WqcYoC4riH+DgmWTjoZnrUQ+xj0yrqalRdXV1GkxwwTE1pvmd7/kd6YqC2+koQmU4O56Fzh5OzgtsxoDJ/AMYplLCGkMTm+JtYC9pJrlixQqFgpPK565CVyZsYTeGoBTAKMc6RmkPqHR3d2sL5YEDBzTQAHL8jrUSkGHd8/0rr7yiFflYLAE3vgcIEQXheriGe3DGBtRQ9gOAgOvOnTs1gCIach+/A3imX0Bkw4YN+nqAkXv379+vmQv2GSnLeC59AbaA6L59+6yXBmVszIX+161bp52+q6urNdAChIyPf8P1YcSYM2eO1uslaYGxxttfKDYxamCB4+F4MYi2sLgsEu8plGzW7ndHgUyhAIc2AASgwTHBvd13330a6FjjiHUPPvigThOGUh8QIJErXA6uG8uWLdNAyb1sevYEgDB58mTdB9di8cSdi3u5h+vgJuEMuQ7dGBwUnCBAg8j40EMPaRJhNGAMGzdu1NwW4MK/uY7fAB3jQmYjX130e2GcgO2xY8f0OKAVNALwmAvf43sJ54oFF442SQuMNd7+bHJ6gSr2sBg4xXhZP//5z/Vp49otCpjatOkQOVjkbCTX7FAALgt6cni//vrrmuNjbbOpMc7dddddmqMiZhhuisb/A3S8Z+7dvXu35vCM9AMAYOXkL8AEt4YfG4DA8+CWPv74Y20M5DtE53feeUf3DaDAVdH3G2+8ocEUi+iTTz6pdWtwhPTHWOgD0AWM0pGlGxA1H4APay2AzdgAZjg8dPnQAizgdyy8gGCCFghrovuxCXqBKvZACIjMywbpHehFvhoMOuh9WKC2G0BqlMm2+56o/bGe4aLgzOBkADI4L8AIfRyAxkZmY5uYYaQbGkDHZud+fkfE5WDiO/4NJ/nAAw9oZT/rAqBIBFCMBe4PMRFQBGAQbTdv3qxBD1US3wMuNECI8cIl2nYXA9CYJ+v40qVLWqfHPBk/37PG+Z7nMi6u86HbC3Vi2wS9QLsTIrMIkiD6RN1DetGjsDbe6jYJwSbwKrtt9j1R+2KjAlhbtmzRXNiZM2c0J2UMGAAV/0Z8QwwGyF544QX9HfeSQAHdHxzXqVOnNBkBR34zXBh6Of4fkTaZGIok5TWmGI4S/SP9AMKI0Yi6cIqI3YCe7fbee+9FdJlovwN+fHy0UGKhTdCLa1EhwQAppKlhWVbcr5MOUDwoVhuU1DQkG+joylPXWwpViyQqmEgppVBos2kQkdLF/XLgoBsabzpUNjo0YUNnWjOGBjYt47t+/bo+WLDM8htiKo3DDE4bNw6AjznxO5w3Ih4fODoMHPQDx4bhgd9NP9AgGUdGv4jQ3gao8j39A6jGoguoci1jNeOxQV8yKdVU9qqail5dC5ekA7HTy8l7lThdkg20dear65KkgKzrxOzHaRnD6cVciaUCcotmdaiVi1qlfmWrmkaKGfmO0m6xWr8OUs5TV5uK1JEzZWr/iUp1TFLUtHXaycZq42Wmsw/YexY7+g5O4XQ0noGIwaYbT42NCseUDj1nWDpwgOCDhg4NqymGAYAL7onxcpABfB988IH+i87NNEDM6PQQOZ966ikNdjSj20Uc5MOhCDjxrESNg41nspb4N4YR7gc8EWfhOMlJiBX4zjvv1IYXdIaommz4ytYK2C2Z267uuK1ZLZ7drvj/0iI5sGJUSQQJyMbU2pGvLl0rknR0FToj05nLpfGyrYSy3trk9EZkXqT477rbG9UzD15SyxfAkvtcWtVKzZ/RqdYvb1QnJe38c9tmqA/21aomybcVykHH5+PH8jK81BFfWKDp0Od552YCwcdyvkGebbglNnG6aRNkXN5reXeHDh3S+jLA76WXXtJ6K0AG1xPESCO2GhGVvyZ/H0AJCBpjAxwd1wOChgsz+kI4NkRq6AIXhyWUe+Ewec7atWu1QQVxFlADAA8fPqx1jjREZdaAcbMBUPmEBT0A7ol7r6jPb7qiqIXrt0jQNMlLcNucdrVhZaP67FSFevatWWqP5NSMkUvTL5LEfI1pA71CqUx+15Jm9b987pwGsFTbQuESvy4ZWGF/t348WVEoJJsbC9TVpB1fbxigQWw1CnjeH4cXhgh+w9UEzpqMI2vWrNHghb4NYDPiLpwfgAP3jeoBjgsRGM7WG48OwAGi6OSIWcUybEToRx55RB+Yzz33nHrrrbc0uD3zzDPad49r8BtE7AbUGBv3YrkFVBGh6TfaqTromygU1dWTG6+o33z4oiQLDqTmH35UkWDH6sUtOuloZ9dCLe1FtVD6DZsIEpEUf+60TrXl7quhAM9MdGpNj3pk/VV1UbIpf3q80krRkaAv013vKBCPAgAFQGV0jYDMrl27NLjAsQNcP/rRjzToIXIChAAMoi/gaAq7w8EZQEO3B6jxF1cURGTDGRruj/vh6EyDYzNp2QDeX/ziFzraCTDFnQbQoz+uwYiCCA6nxzjhAHl22LZkbptweJdFh58a4Jnnk2EZDPnqoxfUcSkB2SUJhT0tQ0AvJ2cY9NDXwaHdtaw5LA2H718h4vFtc9p0CmqqJLnmKJApFACQotMhIWK+++67w0OEWzN+dN5x47ZhXFei54OhAeBD5wbnB6gCUIAdfwFaPrEawMj9gFusBhCj07PdPidcXoVweL5VWQkGgLSIuLtyoRwin0VUVgwVVGGP0xscHHajrhZrzdzpHdpSa6th+UFMRkdw9spNS5hrjgLZTAF869DlIbbygZPDzw09YSa2Atmjd9zWohBxbbViMX7ctbR5GPQAc6FDKK7HHuh5EvshywNOtht9VpYL23wzSYNrjgJZTQHE5F//+tfaIoyuD44yEy3X5iVQ/AcLrQ0uz/QJkM6TYmKmDSUdDmXPTAvo4Z+DMtJ2KxJfH5uniO3xuf4cBdJBgVhZW9LxnLB9lonhIZUyr4mei+W3rOSWL/KQf2Io620o2ThqsMPoSxnHvv5Q44pJB0zX6eg37Mt29zsKOApIGUcp/kVwgc1Gf909NmEqZK557+RuDA4Os3btUgGpqS1chfNYhGuW6Az6ds1RwFEg8yhwuaHIevQUTA79mjaURisUCoa62Ut2wffhhAMNEkZyTowNNsPHCEnBgEHhb9ccBRwFMo8C1Kk+fq5MR1fYapSNPXC8Yri7IbedUOyktdHJYIaLWyCGnrpYqsNJbDVCUo4JQQlHc81RwFEg8ygAY/L6jqkSQBDKuDo8MdRk9Q2FasfBmyUkTROsCZVwwBroyYC6zaBQ7oH4b+2q0wHEYVuPgOhbu6aoQxKakiAIOexj3P2OAo4CISnw0YEatfuQZEa24Et7TSRGQtFiYEgoz+fwiHSLSBED6ZRJf/hpjZiw+9VXH7lw09UkhQbL/OutM9S7H0/RAcmuJaYA+dLI32byrRHIjusDqYuI06ThDItTK6FJJDbAHQJPfUKbCGQn+SX90AiTohYx/ZGPzTQ8+PHyJ+U4WTrw+sfTn/xp6F0YAymUaKRKIvIgUdYYxBbGQX/cz/XpSHXk1k96KdAt+/77L8yTLEpK3bOyQZWIC0vQBmNz+XqR+oUA3o6DNbEYneCdegZhE0UifFQYeKMkCHht+1R18VqxenDNNbVK4ukIRvbTWtonSdBxuQa7fceqVENLgbph2TLkZxzj7RqAjfhOk1YIcAO4CIDHu59mqszj+Iq3P3GhhC3h/EpsJnGZhC/RAMzt27frnGsE0JsGwJFGiRRYhDMBikQAAIREDpBMk2weNPoF+OKBHiBHRplvfvOb+np80b761a+q7373uzqf4HhLgTXe1ozt8QJY331+njp4skJtvOO6WjavXTM/Kokmjvj6682F6hNJMsC+P3KmXMH0xGgZA3ojxnZDJkFmlJ0Hq3W2FCI1KiXzCmEq+PLFahg/2oSja5F8Ws2tk9Q1IQKsshNr/S1Nsm0AeKZKFhyYie0035ksH1xrKmoBLACXyWhtrjXZTAAm8x0j4V4afdEHoAhwAnh84NrM9abfeDMgsSWASpZgUqozFoD7K1/5ivoP/+E/aC7UtfFDAfYqKaJQb+09WqmqRMqrlFjcUvG3i5VSjuuxAyDJweyAGdeFyYmRXcUQIZQhwyanF/OtAG1YYC5IsgASBhBInCiJKNwcZur+ASo8jZ8X7UaaOgUASFIqkWmYGFOAF9H2t37rt7TY7Nr4pAAgxocIjfy8G5rRiZU8mG0Og4TV16fHRyhLyaiuKCbHpPoH8vTCZrGjP+Kkp3AJOf1dwZrYCxy9GdWtEtW2MHowRFqTew7wwKMfsdPo+dDbIZ7CpSF2ItJyDeIpf9H5AT40rjOhT+Y7vud9ITbTF8+ib/pBHIYrJF264RLpE/HaJMY0M+Q6At8ZN+/eWwWLtcFaSJYheHzCwcQaNcwLgNZnLxQ/FG6FujnVV8fpbep5mkSWLHCU4x999JHeTK5FUsCIqRRPideoemVSwZs0RwAY4iFVuoyeDzGSLCDo5ABDRFXuA+D48LupZWASVtIf6ZFMA+C4lswhpFECwMj8wfc0xmIyM5tccxxu3sbBx2+MA2PJv/7X/1r/zHip37B169aMTRbq1mdyCjz88MM6GzPvGZWFqYqGwYz8feiSSY2F3paD0xyMVGhLYsQKhVuhbk4+7ZFXmNz9VHfi5Keep8k7BiGc0jo2VU2Sx0SgZ+6MVVwFIIvV4NiiW7wkpuRji27xkk4GLTxEaibEWwwacHdwfqwNx/mnsssy4x4kB9YtngAYx5BAOIQ5GI2Fn+zPABwHMklNWXvck6SFctYdddBDpCJ1NqmtX375ZV0bgEVuFOg+JpyMIO73cUoBxGiAFa4Ssdm5rIzTFzk0bLwEaByMcPn8Py5NNKQLEqqSHRpPATAAaYbUWT6yN4fCrVA3p/JKAD1EW3Q/TBBdldH1UIuT0yFdVcBSGa+7Z3QowCbA3SZTc8WNDhWy8ylDOfAi9LPoe9ERs/9xeQLo+H90wT5aqKCKUDdHDc6XGdlwdEwSYsD2UsAEx1dQ3xRC9jFxd0kWUYCDztUGyaIX6mMqqFZIUY/uFywA8HyqM3xhTbwh2AQ9H9O8eQkTxFLHX7g7ZH1YXZSemVjT1PfE3IWOAo4CvimAyIsxg8a+Nx4HPjoI5cw26qAHkgN0hEDhrgJLi+UOK55zT/Dxut0ljgJZQAEkPgwcfHDDYv8TKkkpTB8tY0DP10Cw1GKpQ5x5/PHH9UQxbMD5mWpPPiY94S7hQHC6zgn32rN2wriq4aICE4SVnnogxGqvXr16ONonweRDpWW3acjwBXooMBFn8cUhFpSCJ5iv8c3CYudTps/axRBvYpyE+NRla8NVCUdl17KPAux59rf30J4/f77m6rDm4qdXV1en6/Ti1QEgJnLCFwqNL9DjlUKAt99+W4u2GDKMZz4ECFtdPVuWDMpdrNrGoRi6eGucZss8zTwAPQ48kxSB71Fsu7jb8f+mUWcBbN5DDaMV7kkwQIAhIEdJSrg/s+bHA6eX8O1Q4KNYCvsUF97QcXjE4/W0H1FHDx4Zvq9GHPYHy5QQQfLiS7wuGRbIvDARGyffY489phcBDWdf3Dni1Tkd7zRioTNfE2uLOP+d73xHR2s4Xe/4fbskGOhoPadOHTuj8gQDpk++OZeW6/vkczPxCt/Jmad6Os6ondvP+8nFlzFZVmKiExOl2jnl4RbO6lQz67pUeUniLCvtkniU9DQnL5bpbA3UxvAZiDx+V0eckRs9pwnhyboJeiY0EeaYze/PO7d8SS5QW9GjZk5h37erqTU9qrR4QCcciW4mywoZVi7Kfj9xoUyXhWiVTEtxko6EiuK1qdMbkfkgX2pWzprSpbasu6qeuLdeTa5KGl4SQQ8m/dbuOvXaR1PV6UsliVLNZN1agrshOsXEISPmZbO+E/GWuXo5PReSOD6XNbVql0gOvS9tvqjWL2+SEo7+MYpsK5eE4Xn1o2nqzZ116mpTYUYnEY1wf0GcnTutU31FsiY/uv5qSgWA4RCfEcJNr+1SP3l1jtTcKJ8w4i6xsug8iVyh8f/ELWZrA9QxbnlBL5MLW2frewg7L9RWyxe0qW//9gm9/8GBII3rZ4k0+DuPnVezp3aqv//VAsmvNyLUNlinUQOwyelF9FUjCUMfWntdPbL+WkqA5x3nPSsb1TVB/CYRc8nLNxEacadkLzHiLVxeNseiAuqvvvpqhNuSSy01/lZ6VXmv+sPfOKUBKyjgeWdbWtwv6eYbtZj7g5fm6nx7nhbKv9gm6A2Lt6D9kjntarOkiI+VNDCVV/nAXdfVAUk/DesbRYBUusv4e/BWx7Jt6kzA9WDdNqmbMn4CAQeItZp0UiYiB/GejDImXDFgd+7yMaLAkxvrBfBETRFDdxd0SJWSYf2hu6+qV6XkxCUpOeFpoaybNkFvuLp3maD0/Jmdmk211SDA4tntul7GRKh9S1geKdSNCwfWW3R8Js+dLbpmSj+A/Oc///kI8RZLtY+MG5kyBTcOocD9wpzgpWGrlUuK+U2rG9Qv3pxlDfRCsYlRExsGvRop/mMT8MxzsARN9llYyBbRXT+OAo4C/igwpbpXTa3u1q4ptlphwYBaMrdtuLsh41YoTs8m6A1zjSB9mbil2G5YgWyeIrbH5/pzFJjIFKit7BE9nl0K5AuA1lbewpIhn81QT7Ep3oZCXz+kSvsD/AxilK4h7c5rr72mPvjgA/1ErJvZHJGBt/73v/99HZ1jGp78zjF5lBachcfc3J/2uDwzpBg9ZkZhoN6+vkIzyO6eXNXRZRNPb/ZMn929oUDewqsdnS5MLPJEsd6ir6RAkDfphEuwMDprzdZTGsW1xLaRkYgsghNMY30M9PcPq9JSGbs9ZLpxYxiQm9oKdCSF7Xa5oUgX/Z4IjWBsMk4QhE0jVpGiSWSkyMZGrYSvf/3rEdbb559/XrvpOG5vfLzx6y2Fuk51udS2tqXX6+nLUyfOS2zqUAP0wvKS1kCvoLBwWNvYJmFkZy6X6lAyws9sNEJUTpwvFdAbZihtdJuxfZBqC8AzsbdsfoK2s7VRQvK2226LsN56S0Jm67yzaV7EzH+0v0bNmNylQ85sNEJStx+oiQA9cWAPZTCwKSsOx5jB4h47W6Y+2FdrLYJi58EadehMuS4EPhEaJxrRCdSO4MO/szmrNPM1czV/XX7F8bfSXxOfuvNXS6zEylMo/H3BkHNXRgQkhEJUm6AXEWAHm/vuJ1PUh5/WingSDqj2HKnScXgXJ0g0Bkvd1KFFmc8HTi+b6wGjvzNzNX+zOdZ4/MGZvxFfERXUT16bLYkDikPp98iw9MnhavXCe9N1ofCoForTsybeyqAiEvuRFeXkhVLtVNgoerj7Vl8PnHAAkXaHcHhv7KiTuNuKCZVwgI1PGn1T55Z8etSCzdZG4fBf/vKXEdZbLLpOnze+3jhS3u7PqtWg/H3i3ivqjttaFMEKfhuGi3oJPdsqDNM7u6forCsxWihOzybojdAvkhPvqIi5BAzvPVYpAchdqq6mW/vaJeL9uO+6AOXZyyVaiYlusKfPJlPq9xWM3XVwPoSeGQsm1s1sTrCK0ynGGuOy4tLjj93aC/vkrp48tUuA72pjgZo3o1PNm96pqiv6VMEkyaMZxwxxQ6RBuLsrDYWSUalMnbpYIuBH8bCYo8nszMmwprC6sL37xKpD5pRJknomEehxT5u4p7QKpzdR8+gRhkbFd2O9hRPCekvJvGxsZWVl6sknn4yw3j733HM6earj9sbfG4dJOXquXJ26VKqqJITU5NJLBHq9ck+b6PFaO+Pm0TOECKUvs8npJXwzxt/G+NxworOxKfaL7obU4NnMyQRdtgTgz5kzJyL2llRT2dqod7xs2bII6y3O2a6NbwrAwKDfv9ZsdR6hcCvUzVHT8O0+g3WOQHqqoHHC065du6ZTKZEzzjmlWl0grjNHgYygAPt+0aJFaubMmcMFvskadPLkSb3/A7TMiMiQAfuWsznV77vvPs3pbd++XYs0mzdv1llEEGdc8kilLbUYLswBgL4rW9NKsdjh8g8dOhQh3rqiQAFgYBxcis/pxo0bNaODoQ49Lr6Y/Hu8gp5vTg+QI08cAPfuu+/qhU4uNaIQstkXLci6JGPy3r171eHDh/VtgEK26vOYHymk3nrrrQjrLUDv9HlBVk3mXktlvzVr1ugwQyQ6Qg55txSESqH0Z8Zwer5BDx3euXPndHXzdevWaVaXhs4Kbs81pTc/HHFJSYkmB/+PeJCtjfkxV6/11jknZ8/bps5tVVWVPsh3794dtrTn+AM9uBaSYa5cuVJ97nOfUySQhL2Fq3Ggd3Ohs0DWrl2rsyfT4Py2bt06oUpA/vSnP9XrwnF74x/8Kioq9HvEyZ79TsghzA4qDMp8BhRvx4f11vvaEGHR56G7A/wQa6lsjrUSkYaK6BO9EYsKXWbPnq1JgRjAwsnWBhfLXL2FgbKZs83W9xhvXnDwfODeOdAXLlyoFi9erL/jMB9N0LPp8evbkAHCP/TQQ1ox/+tf/1p74kMM/NJckPmtZcPJGP3J5s2CYtvM15V/zK43DYPDHufgRrXFvt+xY4dmfEb7XY+Jywqv0yxuuDv+DXfHx4kyNxc7bD+GC6PXwjkZw0+2NlQe6HS9nJ6z3mbP28ZCi+oKsRZpDs6OdGLepLEBZuubwYrVp03Q8x0PB7iRBRh/naefflojPd+ROsnp9G6+JjInv/766xElIFOwcgVYR2N7KTrLH/7whxFJRA3nN7Yjc0+3QQEONFRYWHC3bNmiOTx0e/xNISjBfzBvjMHbBD3fijjcE1BS46aC6wqLe//+/er8+fPOMXnoJWG5ra2t1bo8GguDqBVOzGxs6DAXLFgQcfLjp5jChshG8oz7ObHH0d1xcN9+++3aiFFfX699UVNwxfLNYGUEp0cBYLKq5qgetWP71ogx5YmGMVfsMmRqIGxtIrepU6eqxx57LCIM7aWXXtLe69nYUG5/61vfihBv/8t/+S/asudUHuP7jVMHm/rXubn96uCBj/UnoomzW35ejiL3us908xnD6cV9MxT+JbNKkXxIJU0AMhkXYrV+idVrac9XLR2TVLdka+iUz4AkDvXtBDi+14cbvaNA1lCAPc6+LykaUBVl/apcqhnm543c92RS6ZHaNy3tBYqs611SY4e9n4DxyRjQG+EwCMIXThpQC2Z2qCfvq1frVzSqKVU9vl5qkxQD2XO4Sr304XR1RDImk64mTpoZX/2Nt4vgbnDiNu47/DubY5KNMctwdcbQNd7emxuv0hmUigToNixvVI+sv6pWLZKcegJ44EGiRkalekkt9cG+yer1HVPVufqSeJnSM8aQMaJ4RakkD9wsFc//xRfPqJqKYJEW1eV96uF119SGlY3qH16Zq16TRKJNrROjKBALAwvXgQMH1JUrV/Q6QQ+KzjNbGwptkqZ6IzKggWvjjwJwdv/yt07qvQ8G+G1IhDPrutVvPXJB3XNHg/rBC/PU1j2TY4m8oVztbBoyIkCPnHn3CGf3rS+dVpUizqbayMP1+5+XtFN9Oeq17dN0osGJ0PBcJ1zHNDg9LJzZ2gD1V199NcJ6m61zzfZ5/fFvnFIPrrmmxdpUGhzhnKld6g+ePq3aJa8mCUmjWigQsAl6EdU7bpvTrh67p15k+dQBz0y0sOCGelz6gt39+NAIAqRC14y/x3itE6htOD04P5M+PuMnEHCAWKkfeeSRiCwrOK+6pAMBCTnGl28QRude4dJSBTzv8KfW9KivP3FOfXqsQpieCJwLhVuhbo6i703fCmlweejxVoosb8sGu2hWh1oiQHrkdLlG/2xveK7fcccdwyUgcUyG08tW0CPZAOnFTOgZLg4HDx7UoOfa+KHA4/dc0fo7Gw1xd8aUblFxNaltIuZ6WigACCUbe0chCvdh0EN/N3dapyoSDs1WyxMCzJ3eoaZU+zOE2HruWPUTXQISMMjmtFvMF189U/6Rf7ssK2O1+lJ7brGIs7fPb1cFwvTYaiVi/V21+JZaZ8jQFUq8tQZ63uDwCnFLmVwVzHDhh0i1lb1SY8POKeLnee4aRwFHAf8UmCZFv3BLS2al9d/jTalxVl3X8C1DoBdKgAzFJkYNfhh9YUvj+eEFmXD0tYXi9wMRJkIjDI0aER988IGeLnGop06dytqp46n/ve99L0KnR/SJc0weP69cVzkUJ2SbjWAGr34wY0GvT/xt0lGykWpJMQr/2qRxxvQFyF28eHFYxCPFNrn1Tpw4kTFjtDkQRHcC0Pfs2TPcbTb7JdqkXab0ddOXNhQTNmIqRGh0eTw2bKg8rIm3onge5vTaJJqiQerW2m7XWwpVq5SImwjN1H3FVYUP6gMCtrO1mfmZ+fLXcXnj621Tp7azO9dqEAFMzvn6W44hGQV64lQ6rMSjzCOFum361PVLKBp9Uk5uIjZedjYn1TSGjIn4brNlznB6h89UqF4BKluNkLR9x6qGuxsCvVAytL3RSficGRmi7amLpergSXuZfo+dL1fHzpWpzq5Qhhtb78L14yjgKBBFAcJECR9D0guFSkP9os6iWPj+EyNwJDWv56F+bYJehBcyXNk7H9epC1cjfJZTWiiIyu98PEUdP18mmRjs6gxSGpC7yVHAUSAmBQ6cqFRv756i2iVxQJhGsoGL14rV89tmSCKCEQWxQlkzw40sclYRviQ4EO+W8JGSwn71uY31auGs9pRM2URhvClxtx/sq401+TB0dfc6CjgKWKZAh0hiL74/Xff60NqrqrayT+Kpg/F9SIonhMF58f1p6hNJOhKjhfJbswl6I1jO68KhvS3cXoMkClh9W4uaP6ND1YivHU7Lifi1bkkz0yzofuZSieLk+ORIlTaMTKQsK5bXouvOUWDUKIDh4flt07WUt3xBq5ojgQqVklpqkqSViufDRy49dILXRWd/8kKp2nO0Su0/Xqm/i9EyhtOLSVSMGqSKOXS6Qs2e2qnInkIsbaIMecTZwdJeEOJday6w6qZCeBeZW7u6ulKyDlLDgdAoihW7Zo8CNqxy9kbjegpLAUTTq02F6lMBrhmTu3RQQX4+yYNjc32orbp781SjMDcXBSxhmNLF5Njk9OLysOTJutpYqD9j3UhJ/sUvflGnacItIkgj7RGJAEj3NNqgR/p4xn7ffffFHTJZhkmvzhhNyJr5rq6ubjj1fHt7uy4yZFLSA+T4xBHbSwEiynPiM0eDRqT0pj9Tg5fvqWTH9ZSpxIcQ2lDfBKdqAIxU96aynantMX369LgWaA4j+nEteyiAuwm6fT6WWyjFvk3QCzQvYivhuNig+GNRHYniIUGBKNBD5WKeR0ESytCx0dn4fioysaEZ24oVKxSp3Ee74awM0MyaNSvuo5kPgEUpTWoQ0F5++WUNRATzU2WehoMziQsApvXr12t6kNrps88+U0ePHlWrV6/WhdhpcLW/+MUvdH9f+cpXhp+9fft2nRBg06ZNGox5n0RQvPfee5qe69atU4Acbd++fZreFILiulgN4M3WVPijvVYy7XkcaObdsw5Im0Zj7+F7yod/s8dgKCgalsQxPZQB1ibo+UZf/M2WL1+uHn30Uc1xwEXceeedetIUv0kn8AEebE4SVlKUiJJ0EDxZgzMkDIzNuXTp0mSXW/+dQ+HFF19M2i/z4TAxXNPOnTu1KA8wAdg06AvAAN7MBTrA4cGRwRlSdNuAHguUtE/0Z76jD94Ti3Pu3Ln6XcLVXb58WQMh75NCzgZkofehQ4d08SfXJhYFWB9LlizR+4zD8I033hgGPYAQyYXDl8OVTDskkwXwWFsJWsaAnu+3yQbZuHGjFoN+9atf6dP/G9/4huYOQHrEr9FoEP3ee+/VnE6yBmeDmOeao4CjgH8KAHaoVgzn5tXdGi4PSeDDDz9Uq1at0hIJ92Qd6IH4cA6UgDMlDeEwIEI2Rx34XyqpX0lNDTg7I7KbcC50fZyiNDhq8tXxG9fyPX9NsXV+N9fyPY3rzXf8v6ndwbVcw+/8NYsbjtr7PBdSlvo7Hc93Al6oUgC0RYsWRUyFNcT6gcOD20OFwjpF6kjSQkUo2BRvkw10+Hc2CNwcHNbChQs1xwe3Z6rb++4o5IUALOCQ6yMXTr6IbKM9vlSmhxi8d+/eYZEdYwMLCz2e4aBJZAAgoSNE5GTRmQQHLDr0LmauXAc48rs3fT0cOQCHyM89XM+zEFOg6eHDh7UukYZqgHfu2sSjgEmQEev9w+iwBlG7YCQzKpIjR44kI9T4Az02IZuNYt9PP/203hDol9AfjSZHMGP6NClJWSxl6pInR6iqrBCLpr2wumRvNdXfOVljiQbo9qIbJ2qsQsukpefjbQDf888/P6IPRBM+0c2kxEp1Hu6+7KcA+x09sLHqs/fRK/vIruPbfhCLijY5Pd9u13AGyPAg/Zw5czQXAfsL+I0mR7BowXxxlq7wlZF46pTJqk7cM1xzFHAUsEOBZcuW6ZIIeG1wyKLTx7BmvADsPGVkL6GsIFHd+XZ6Q5zFwof4Q/40DAT4eyEypdNymy4iun4dBRwFYlMAkRU1Fn9RJ+EJwAd1CHp94+wPx4e7FNyeD8NiqIQDNjk93/nhjaOr8SfDtYFJv/vuuxHKcreQHAUcBcY3BXBnYn/jKQGY3X333dpoAWeHhEfDpQVQxIcW0RY3tiTNN4OVbvHWd8UeQA85Hv8wODscWrdu3eq4vGSv2v3uKDDOKAA3B5hhqUWHh5ELB3pADt9NfGRxhkfMxdC2a9cuRenP8QJ6vjk9dHrbtm3Tn3HVfGstx9Ws3GAdBdJGgWT7HGaHT8CWMeJtwoHgFaKDjYfsLvHML8O4Iv/Q4clpBJqB/gHf/aNruDHo3C4CLk53+QSngN73nmJBlvZ9xoBeXKMIVZKWzG1TG6Xy+UIp2l1V1he3qtnAQK5qkToYpyWt1M6DIvtL1tR0Fffu7esV0APIkrv9YFX2YUqf4EvcTd9R4BYFykv61PrlzWrNsiY1U8o4VkgR8DxJLzWy3Swkdl0yKp24UKZ2HKhRn50qT1RkKGNAb4RRJFdgfYGA3NceP6c2rGgUoBvUCQVv+gLHY+Fucnfk4Xri3quSU6tC/fiVuZKaqlxAJ5R7Tqj1mEaGM9S43M2OAplIgfuEwfn6E+fU3OmduhzsTY4vwb6X1FILJN/m2mXN6smNV9SOgzXqhy/NUfUNRbGmF2o72rTejojaXzq/VX3z82fVHVKh3H8d3JsicJ7wjZPUgLpzSbOqkASE331uns6i6tLFZ+ISd2NyFLhFgc1rrql/8YUzauaUbuHsfOLTkAgsRSQl52av2nzXNZEIe9V/+elidU3y8kW1UK52oW6OGkhEIvuZU7rUlnXXAgLeyKUDd7hIUs0/tqFezZ95M3bUNUcBR4HMpAD7/muPnw8GeFFTgSMsLhpQKxa26r5iRIkm10clII9N0BuGYwaJ7u6+VQ0BOLz4o8yX02Ld8iatFwQEXXMUcBTITAo8dk+9mhGEw4szDSThctEBrlnarBbPHpF1KZSeyx7o5eQMc3qVpX26Hsbkat+ue0nfYIX0uUiAtLbSXp+FBYUqR/yG/DSSEvhJNuqnL3eNo0A2UiBXRNR7VjZKLHsoO8MwaWCeKsXouWbpzaSjnpYhnN7g4LB+sFLqYEyfLPJ8wCpIiRYCBKDPmoqISpOh1k6BJBrwk2GFhxAuM2lS8sQEoQbkbnYUGMcUqKvpVZOreq3u+8KCAbV4zi1Obyg23x+nEoeWoW6Oh74gfZmwprYbfdo6RRibyQPnZ5z9Eh7TL17lrjkKOArEpgCGB1RRNlu+ME6UkTRtKAtThoi3npnicjKYhqLcpGSz6awcpAKXpnIoUttcCq4vR4HMo0A6PCsIULghhb+jWqidaI3T6+vvH5azqVXZJg7Gtht9dsaug5nSo/Lz8nUCUz+N63JzrJHLzyPdNY4C44oCjVLf2rYvLf1db7nlGDKkV/e3aeNQz9ouzhkcHOZBm2Tyl6Tu5cBIhA71Ei9dL9Z1Ma21oKQLer21gbqOHAUynwLUuL54vUhR8tVWI1Lj2NlbNWyGmJRQD7AGevmTJg0ntu/oztNhZBTrttVwUKTyeZMQ1jVHAUeBzKMAYPfhvlrVbUkaQ1yGe/z4cLXVyVoDPRnVzQoy0pDBTwhAffCpHQJATMJSDp8pVxQQds1RwFEgMymwbc9kdexcmeq1sE9b2/PVe3snq3NXRjBPoTJ/2ESQCAe6a82FCgIAfGH0cL3C3u46VKPe2jVFXRbW2TVHAUeBzKXARVFr/WrrDHX0jACf7N1UGsZKROVtAnivbZ8aS00WyhHQprUhAn3h9k5dLFXPvjVTT2DVohY1o65blRX7c2XBGALIfXaqQr25q06IaJ/Lu3T5iq7J6afYd5NU+mpublG1k12djFQWsrtn4lDgo/212tFh0+rrasm8djWtplsVFiRnzsCM9q484exK1CdHqtW7H08W20BMRid5ZwnIbRP0RjwGUfTYuXJ1VfRxqxZVqkUSTlJb2asK8mXMCVSRfXJCAJSA5qfHK8V6UxDLbB16FZ2Q8oVzpPRcWVnyYt/1166rq1JecWFU7c7Qg3AdOApkGQWwuCKWnr1corMlzZvRqSpK+8WHL/6+x8WtpzdXXZP0UkfFcPHZyQrV1hkXnkI5A9oEvZgwBquKNRdRF0IAeAQTJ2ooQrHa2PTJi/W8vr5+AdNBX2UnBwZcPr0s25tuOmmmwFnh2PgQ6VkkkRWTZO/H8xCDy2PPA3w+mq+L4vWTdtAzD8a/hipIVDHHqxrTMyElFPs11ZEoFO0tAUkufXLrU3B6NEtD+iC6u8RRwFHAJwV0UEFOmeSLK1CdXV26+Lxp1MuhjkZxSZEakBoZPb0dfnrNGNBLOFjAjpqWc+fO1UAGCFIU6KWXXlKLFy/WFZIoEE39DBqEWLt2rTp//rwuXm2+90MRv9dQqIQK7CUlJUlvqa+vd8CblEruAkeBSAoAapR3XbBggS4GdPjwYV35kAazQ5U0fqN4EN8fOXJEsdeStFDMWqibowaW0GEQY8Ei0YdRDu7kyZMa9Ei/DsdXUVGh7rnnHvXpp5/qUwBOECCkADgEsFkL19TehNBwkNTd9ROVwVgpTI7hw8/1yd6a+91RYCJQgD2zfv16tXDhQl3yEWAzoDdP9OmbN29WBQUFqrW1VTM506ZNUy+++GKyUrChcCvUzUFAj2sBjkuXLqlf/OIXEbdS9u3BBx/UgMjkAT7+zV/+33ZtCgD4qaeeCtyvAegzZ85MhPXq5ugoEJoCK1eu1PsMiQrmxjT2EgDH37feekv/Tk3cNWvWaICkLm6CFgq3Qt0cBPSYHKwuYi4sLdwbnBZ6PE4AdHvLli3T7C2c3uTJk9U1sZZyjc0GZweYUmNzKGNDoO5JMdXR4UvvEKhfd7GjQDZS4JVXXtGgt2nTJl3s2zQkPdRKqLqam5u1+oq/7K9Zs2YlA71Q+fRsgl5C5aIuoSgazalTp6pvfetbGuiOHj2qXnvtNQ1sFy9e1CItrC7XVFZWqo8//lgTwmYDsHbu3GmzS9eXo4CjQBwKxFNNAYTs7RUrVqi77rprGOwAPR/qo4wxZCTU6TU2NmqxlknNmDFDPfDAA1rWJ6fd66+/rj777DNd6RylJxwf3BicntfS41aWo4CjQPZQAAPl9OnT1R133KFFWxgjmBIwIUkLlXDAJqfny2EQ5D937px67rnn1JIlSzRXB7IfP35ctUjUA5PnO5SdPiafjDjud0cBR4EMpcCFCxfUs88+q0eH6gvwQwwGB5I0X1gTr49QbGJUpwkHYnR6TA5DwuzZs7UFFxbX6NauXr2qdXk1NZJcQEzbGDFccxRwFBi/FGCPs+f568UA/m3+H+nvtttu04CHRLh///5kEw4FejY5vYRhFvjhPfzwwwqHY6w4WG4wWsDxmXZKwsJwa0G5iauKE22TvXv3u6NAZlPg0Ucf1RIdOnqjr1+3bp368MMPNRBu3LhRGy5ghNj/77//vh8XtfEBeoi1cG5MHPZ127Zt6pNPPol4Y1hW4fK4zgeLm9Lbhrg4RXLKMCasuLZdYugbEZ05YLBJxUqc0uTcTVlHAfxK8Xhg38AEoPOKtV6Nrhz/02PHjmnXMBpgQx9mDbI2+TcfPCdgMNLZUGUBbuw782w8NQgMYMz47HINgIcrmM+9mDEJBxJyegDA22+/rQkAwZlctGUHs/Wbb76pf7fpkOx9qQ899JA+XSA4CwnLMQR/+eWX/XiCJ10fzA8u9s///M/V//gf/0O/VAd6ScnmLohDAYx7OPAap3jWK14PcESABZFL6MHvu+8+LUGx/gAy1jMRTn/0R3+kgQ8RE+8J85f994//+I9ajZTOxljxwfM2s//5DmMljbH5BDwuz5jUUglpVzipX82f2aLmTTcZF2JzqGRoaOvMUxeuFksi0nLVKVmYbSYeMLqEv/u7v9On5pNPPqnDYPAON5xZ2EXAwjKmdx/m97CPc/dnOQUAsa1bt+qIpTvvvFM78AJ+hGji7QDgIR39+Mc/1pILqiTWMuDy93//9xoIkW6++c1vKgIB0JlhJOTadLey4m5drHuGlG8tKR6IWx6S3HtNbQXqvGRbJ7tSX39CA23GgF5Mh0FSymxY0aievO+K1K3t0llWyLoQL9sCACeJT3SGZFLEv7GzTr0nGVpIG22jGdaeRcGH2N9vfOMbevEQGwiHuWHDBu0+g/4R7hOxm8XCwuJkxbeI05XfWXy428Ch4nz5p3/6p3qRsai+9rWv6b9wlD/4wQ+0L6JLnGDjLU6cPox/K+sMkRWuDb03Ii8Hq9GVoQMHBFlfBvCgklETAZxwUhz0GA9tO/1Hv5EaSSH3xfsvqw0rG1St1Ko2GVYS7Xtq6nRLlhVSUr360TSdgDhOoaFQMrlNQ8YI0Kur7lGP31Ovntp0WYp098rEg+kfa+WeabXdapYkH31+23R9CthohvsC6Ah/Q4+I+ZwFQfwfgAbA7d69WytZOV0BP8QFEibcf//9ejEhQhBdAkCyqN577z0dN4gF+nOf+5xW1iKC8Dz0GE7MtfH2Jl4fRjpBxMWHlcMVHzejk2ZdIang+8qaG2sD4EzZr9/60mmdOLiyrC9w8e/JApjTanvUnGmd6udvzI7F9WWMTi8CQMulMPc9qxrVFx+4pKuep9LypHAwSUcfXV8vSUXzNfo3WKiGxiL6kz/5E82BcWICeOgWAC6cJTkR9+7dqw4dOqRPVxYZYMd1LC7A8dVXX1VXrlxRDQ0NOk4YERmdJToSnK/h9liY6DM4fVmgowV6cADMA/Dl3yis8XuMTt2VyjuZCPcgHkI/wqQ47HjPuFKkW+kfj7YYAdBF33vvvXoNoScD3Pg36xPnfg5ixFwspRgyEIfHQqogb943njyj1i5rUqVF/XElukTrqGDSDQ14j6y/KtJegaSMnxZ9ecY4J0dwevNndqiH14rfXYqA550lp8XDd18THV+ZapQCQWF1fCwWxFEWBSEwWFpJewXLj+4DUAPMTFYIFj2gB+CxGQAPRFXAEY6QDQG3SL9sDANw5t8BFLShMQXwJdKFOQHoxkoNZ3rw4EH9SZdlPPTgx7gDDjeMXAS8o8bgwODdoaLAsoi3ASAz2mDCOkKFwvrEgZf/Z83RGBsHNOPCgLZlyxadpom5vPDCC6N20JpXt/GOBnXn0paUAc/0k5c7KHrALvXEvfVqp+x59H2eFsq/2J54m5MzXJuxuHBALZzVoW6ba09ROntql1oyp00dPl2uWtrDlYEEnIgAQZELoH3xi1/UnBonJL8ZZ0qIbLgzFjqLzehYvEDmtUZxjxFHRnsPE7vMoiedD1ys14iCKA/nB6gT02w2zWiPMVOfB13IvAOnBOANFZXWwzUJMAATVBgA4Ghx7TyftcY6BfiMawpiLgcY4wAMGRPcPAc282AtjEWDOaks7UuJw4seL+ow9v1dS5vV27vrvD+H4vRCIWbEIAcHh6G4qrxPzZHBAn62GorQOdO6rHCOZkwsJnyYAAgawMYC4pQ0GSEAEPR2JuEoCwvxB86QhugBl2cyr7AIAVP6giv0bh5btIjVD1wdrg2I2sYnynsdQM640VmiCGfzuHaLAhivli9frt979Dvj8AAUeefkeOR9j0VD+sC9ivVq3qE3GzmiOBLIWL1bjJYwO+xVWw0MQTdo2tBhEwq3bK78YdCj4ll1eWp6vETEqhbDBrrCMI0FzKJ+4okndDdwPzREBLifs2fPak6JpKYsLDgkFhnuAuj9sJBxyj722GP6r/GN2rdvn+7HBE0j9mIQYYMAQuj7WLTpEo0QyRDBky14xgMwom80PlJh6Gn8LqM5H8YRzS1xyDB/vveO03DKsX5jbNwXS0VgONmwXBfvh3dl1AHx6MF1cFDoaXmXo9GM1MBfaMD6g6vjIGb9oXfkLyoXrjHOyKzX6GZCwdI17slVPZrRiWehTeW5+cLtzZhyq7rs0LvOmNRSwwPBAGET7Q2xYHeR9cM0Fo0RE1hEiLlwbyxk9CP85XuAAWsZ4IXimBOW77HGoiQGYABM7nnnnXd0P6YhBmPFhXOgD7Mpw27ORPNGPIdrTdZY+AA54Jcq6AFYiIHET7Pp2HCoBqAjlkM2HxZvaGgaIIGRB9cKaAfHaRo05J2wmXEDIlzR2/Arw8kbujJHAJ6DiWfDmfMbRqZUSgowVhPv7cen0lwLHdN1gHnnDt1YfyaFOhIHYi204PkmFx36PNYXemhy2Jm8lN41aVKxp8vxnzKPOTnh9ucIoFaDCsOGaZnG6Q2znPjY4W9ju1EpKYnTYtJHAl5wdCxwk8DQpKjnZkCOrK2AoxFbAQezUDACwNXBKfE7i4wN520sRpTeLFTED/OcdIIeYOFn0zJOwAKuJtUGVwRoIb7DBQNaABn6LujC/AEmYixNg4NGL0VSCYwsiJOmQVNcergGfZr3N67hNwAROhrnXDgd/CqhP+D60UcfaXAI6q4BzYLQzlj8Af6gz0qF3hwk0McAuuH2AD8An+9Zz6gujH6P9Ri91hgrFl9AMl1W6HYJKqCUo812Q/rrkFq4pg2t8Yzh9IbhuLUjX+pXFtqcu+7ruvTZ0pGcm0n0YHRvyTIfs2lZSPGU/Sy8RL+b50eDoXWCeDqMNlwkehb6PT6pNMR5smHAwRrxFWBHxGJzQhc2ZDoa4ATYAnJm/AA4Iid6VMDR1F8I8nw/xd69/YWhX5BxcS0HSnSKtejvOJSTce3GvSXo84Nc39BSqNj75aLby7XE8fUKA+X1zx0CvVDIao8dy8kZVuJhXaVKeVgrq5fgXVIL98ylEtUgxYBdG0kBv1wed6ZqXeY+xCg43FjKfrg9b0pw2++JZwN80YBt4p3hdlJpQWgXhn6pjG083UPI6EEp0t3bFwqTIqZMn3uPVg1/F/RdxaKfPdAbHBwGPeLoTpwvU58eqwztU2cGffRsmToilc/bu2zaXsbTksqMsQJq8RYeXJcfvWKqM4GjjGcNh1sLyrGlOg53X3wKvClho4SPUrw7bOvuzVNHzpSrg6duFRQa6jOUW4g90FPqlolFRgZL+vbHU9RJCR4O60x8Qfp6a1edDkR2bWwpkMgFx8YpnGh2iayP6X722FJ9/Dz90+OV6l3Z901tpLNKfdw3GadS9eL701V75whGJ5QLh022KQJ9EUf3HatSJUUD6ilJNjBvRod4aQcDaJD+3JVixemx44Dk2RN9QaqNTWGSl8bbIOiiUg03YkMiemEZjdfQu6BIHs0IjVTp5e4bGwpgoMGYE2uNYkxjjYZxlyGqCANQrIaBA71omIid/oFc9dy2GcLxD+pEIzOnSMINj/U1GVVJNgLIweG9KYzOJ4dvibaee4MBSdRDU0eRkaMfgevNgvbvfjJF1TcUqQfuuq7j6UrFh+9m4oH4x0C/KC87BTQvXitWH+yrVZweMdA+Gf0ifmcR8cLxz4unxCfBANlUUqnAhliHGwcJDOI1XF3wB0x3hotAhHEXZxQFCCFkHcXiqDHAsT6xVKfaiOHF6h6rAXbk6Yvl4xfkecTH/+Ors9VZ0cGvkRhckgfgv4crW7x9j9UXrw8YGyS692Xffyb6Qay3MVoo72eboBeTLl2iiPzkSJXaf6JCTa3pkfRS3QJ84sCYAPQ6uvPV1cZCdfl6keoRNtdWQ+eDsjse6CXSGSUbA6CKG0giZTq/j1aERrLxut8zkwJII6yhWOsECz160zAN5+V4a5RnxuMCgz4TJuXV7VPVVkkLN0uis8icUigcXzw/PtJKoa+/Inv+iuz9JDrBEIKzUmkHPUMsUJzEoHxccxRwFJgYFEDNdfxcmTKu+zAHMB+AK65huN+k4DcYykpiE/QSoq9JeGhCfZg8kyZWkEBuTjF0XsbLnes5kRAFYetHw/t9PC/DdDo+j2e6pGvsjt7BKQvYofdGzYTuEsdqggVwSk/mOxv1tPEBerDVJNa8/fbbddgSIiYI/5/+03/SucDQY5Da2pR9RO/w5S9/WWcE4ZOqHswEi5sTJtGrAmgB5VRECE6uZO4axpufMRBJYDMcKIhxxMTABl+22XlHUE4D+tkEPdadcbdJ5DTOGmaNpbI+zZtL1j9rFEMKc7RZ1IqxE6WDTpFQPpzJ+Y5wwu3bt2tdd4AWSuc1apweiwRkJ0b1+9//fsT8mDAhSybsC4IDjugYyBOWKuDxEEDs8ccf10BL+BNAE49rxPJKfj1edtDGYuL0SrSB+N0E2+/cuTOl6IF44+KwMIVfko2d+aUyx2T9jsffWZesDb8gxtpkHdsMQYPz4dDn/cEJxUuwAH1ZQ+T8S7WxH+IltGVtEu2ChIWFmHBLaGOj8VwyjMMc/PrXvx6ubQuAp+BulDGg54vlNAp/FhkLhxdNED/EBXAQcQE5wpwwz0eH4AR9ARCZAHZeIM8kNjReY2xkPfa7AWL1Q/B7vMaiIv082Vtg61MJmYrXNyIC9EvGbTI33HJSsVAHpf14uB56oGJhncVzFfHOgzUJ7WyqW4g1BmgAU/ZBIhA2wJQqbdlfxD/HW+PsF8YCN4b7iq1qaaxNElRgHSYjucnCAwYEkVKG5h2KWQt1cxThk4IeL4yJ//7v/74WY9966y39AlhAAACnmGHf4frIvGHE3VRfMn2ziDKJs2E8NkVbaEPmDfLpwc0mshBDBwASurt2kwKADdIG6cQSHRqsJQ41m4cVz4erSjUWOh3v0MSeh5GwoseF2GzqWSNRwdmyx5k72V9IRhGghcKtUGxi1CAT9sVmY8GQCQOiEiT+L//lv9QZi+GwSOkEaw9xOPnQcfCdLfY6AEHH5aVwKhQqSlTWj9Odzc3pbXLXAZBBPslEERPXG+s6vosVVeG9JxZgJ+rTvCzTd5C5eK+lfABgFo+Dg3YkkMCHzR0YwbeIsdhCc9xyTD5AMvag1wvYQoFeqJuDcHqcGhgkSLnEAiWG8y//8i91xg5ETnRc/BvdHkQA7GzqTQISdVxeDphRwJmSluiJ2KhsYkQJOEucT0nNtHLlypREeGMUQvSJBWpY4amtygHHNYiLpvFvFroRI72+Ytz3m7/5mzoxK4detB/Z5z//eV3pCz/KWAkHeAaGsq985Su6jnEqjfkYQxbjMcYKYwDbtm2bLhcaK21TKs+baPew/+Fmeb9IJeRfxIBJJuoUWihmbdRAj4mxCY0ugUXlFfH4N6wuOjUWPRYdx+UFWw7QFl0hhwsirJfe0fQP1vOtqw3XFe9+80yeHw2M5rdYfXh/g8P3tkT3xbou1blxX6yxoZLZsWOHBjyburww4xxv95JbEiYGpobD11QJTHEeGRORkXAgnNKItPzlJMU6i6WTLK9mIaFQJl8a1yAKj0YF9hSJnrG3mTof6KmSiaIZO4kMGxicK/R0gJf6iwHkODwAPThyw/FD2xTWacYkHEg4EIAM0QqrLFweaP/Tn/5UW2sN94eFFZM54BfEjSD1V5H4Tk4mFKyMx6Tlhj1HJ4EfIS/RFBVK1xhS6TeM9TmV52X7PZlKT8YFeJDlm3VqVELsNdYoKg5yEKYAKtZfKZLcBx98oPWmMDwYMYx1GHE3YAtVgMemeJsQ9HCTeP7557XehJdldEze0xMW+Gc/+5k+UcdStOVloPAnbTygbMzqjIsFZHQT6JfIGGzqzAZ8ce5yR4GUKADTgP8qIje6MayiSE1GD4mxwKxRrPkwG34KH6U0mAA3AdAYMnFRMzWFDRcdoBsuzRjQS5ju5SbINahyybJSJhXNSiSbfEVEKcub075xo121S5KCm2V0k3rBBKRVcs6OTCsYVeDuEK8TuZYA5KYeKWI5yvZM4fw4WDLhhLf6glxnWu9NphX0thzOGAgSid34FaKLRIrCX/W2224b9TVKailSyOtMKzld8hZbb73JoVB8at+0SY2NTkk2QvKBJC1jxNuY48yV6mWkltm0+rpasbBV1UgZx3xJMROvTByJBwcGcnQtjMOSU+u9vZMVSUT75bt0NmL/3n33Xb2gcEnwE5rEycopy72Iv3CFWBrTmTI9nTRwfcemQKYcHnB3FF8C8FAP+dExso4BPg5wABPgM3rzdL5v9vfyBa1qw8pGddvsds3oUMkw3r4njx6JQ69LOQjSw2+X/JnUxInTMsaQMaJiT5GUhFu1uEU98+BFXQS4WoqA+y0NCcgtmdum7rytWT3/3nT18aHqtKWKh8XGTwtxIZXatICfOYERhb/61a9aS9GTzoXp+vZHgUzQ6aG3Ix/jnj17UnLYB/yQXl577TUtAaxZs0YbDNPRCqTY99ObL6tNd15XsyWtVEVJ31AuvcRPg+EB+JbNa1Orb2tRL0jWZEpO2G42dXoRFXvg5kD6rz1+Tv62+QY7M0Hur5UcXFVlffqUIL/Wzs9qFGUgbTYWNEkZ4fBSATwzFvrhNEUXiMvNU0895cRLmy9qAvdlDlR8XMPqupFiKDyPXyP6aNvqGDi5z99/WT216bKaJVmTbyYO9de4l9q5M6Z0q+qKPp11nXycxyQ1VVQLBQKhbo4aSEQO6pl1Xerhu6+mBHjefiHaIuESH1l/Vc2b3uGPegGuwjE6LOB5gQ9Rl/jCkH5IAWbgLs1mCiDCEqYFhxcW8AydEJNZo+mILLltTpt64t76wIAX/Q7R/90hUuIXH7gci2EKVQfWHujl5Azzygao1i1vCszhxVrA6AVXi5i7VMTdooJQ6fEjukcsRaSF7bcVCwvHhw6FuGI/esFs3rBubuEpAEARg56srm2QJxkgJeORzfhaxvDw3dd0XYwgHF68sZcU9et9v2Rue/QlGQJ6g4PDeawrSvvUXOHKJleFsixHTLRCrD8LZnaqGhF5bTV8hjD5205GwKJioQKmfpTNtubj+kkPBaIjW9LzlJG98lwkBhz1U8hEknCYuI+wRrEA22pYadcsbdYiqo2GuAuWUGfDK03Jnopr4fDzXHucnif1fFVZv7bYxsuH72dgsa6ZWiuyvhhDbDXEBr9WsKDPNIvKFgcZ9PnuensUSBZ6Z+9JkT2hKsHdBMkhHY2QRW+28rDPqBXPjNqqHm2ltdWoq7FAKil6QU/8EEPhVqiboyY23FehiKCwprYbJSSxCNtqsPe2uTzv2EgAYPuE9jv3TLA4+h2ruy42BQAkOLF0rSHcrdDrhc1ZaUZfKQxJnm9EyZPbkl8MgFaV38KSoXUdyn8t+VP9r8jhgeBzY6PCefSjdb+WDhHEThyL06l345RO14JN9loyxbcs2Tjd7/EpgPO7LeNFrKeYhLIB61PEHTD+tQmKHEbeB1rEc9rzXCmefRHOyjbWtU3QGx5qp5Ryw7nYdmtpn6Q6ujghwjdON4LI08kRoSRO9zPCU8L1kKkUYI2mUxJh3rhZ2Urh1tBaoHqk6iH+dknboBgk+SRp+OtSDta0zAK9nJzhGTQLOF2UUo+9QgBbjdAUykc2tITSYQ4PZzQqrAGoAF86gTUefcfimbbedab1M1aGDA7MdEoi0BlQtfWMptZJOnpKc3yWWrf45R46XZ6hoDc4OCx4dwinR5Xy81fCFSb20g20P36+TAGoNlq84ig2+vb2MVrPsT1u19/YU2A0qtbZfMbgYI4OG+2Q+FkbDfC82lik9hypiu4ulGLfHivmyXwAe3taQA8CtHaEJ0CneGV/8GmtOnaW0nT2ThEbLyZT+7AhBmTq3Ny4MpcC2/ZM1jHzPRJOFqaBIY0iLuvYe5HwopofATru48ONLLLbCF+SaxI4vG1PrR40bK8vOT/GMAHN3RJ3+87uOnXp+ojJh6Gru9dRwFHAMgUaWgrUz9+YpQ6erJCMKXkp7XvN4TUVakbnxfenxRphKE4vPBt2a0gjtJJnLpeqn7w2WzW3TdLZFoijxeUkmbc2k+akaOvM16ztixJ4fOZySUoEtPxOXXeOAo4CSShAlpQ+2b9Pb76kFs9pFwfjfoW/HZFV8ZrJrtTVm6euCeCRZYV9j/EyRssY0BsxNiZy6Vqx+tHLc9XbwqnduaRZZ10ggUBuThwCiF6gTSy0l4WrI8PC6UslqlsI4VowCjhDRjB6uavtUuDgqQp14kKpun1+m048QmBBcSFJeGPv+/6BXFGFTVLnrhSr/ccr1VmxB6QqHSabiU1OL66yjXQxGDb4uJZeCpAxl3J7IZ3W0zvIcda7oSl/x8rvcpyRTA8XZmWPcH18LLdQin2boBdoXmzKkpKS4ZqrOAvjL+T82gKRMeJiNiVlFlevXq1wbLXldJr6iLLjTupNUNeB6AUc2h3wpf5eSRPPocxfGhIJe55PgBYKt0LdHDVI3+gL4FGw5Hd/93c18FETlQ1K2UeyF9sKiwlAxKy4lEIwJDBduHBhSokms4IIaZgE65U6KIDfG2+8octsOvVBcEJDxyVLlqj77rtPFy0C+NjrFAyCrgFaKH3XmIAei+f3fu/3dHZhEiNSNX7p0qUa+EZzMWWTWwfJIJ955hldDJt5jSYdAyzWcX0pJUyJhyVJhc3sJOOaKAEGD6OzceNGNWXKFPXhhx/q2sx8l0Kp11DOuqMOenB29957r+bwfvSjH+m0OWxQU5w6AA1DXWrY61Cd+LiZ54wGuK5cuVIDntPl+XgpIS4B+EhUMRqgh7oi3e9zNJ5hyE1FNko/krIeZod9T/nHFA7oUGFZNv30fC2lSZMmaaTnxPSKCSlM3Nfz4l1E8Z50LyjADtF9NEAPcYEF7Fp6KUApAIrVp3vtMIvi4mKt/0png/mwnTI+3niZC2VevbWuU9z3EaUpgtJn1Dk9FgtAgDKYf3/961/XSmIaqZh+9atfpTWzhCEQojUvIZ2iIIVXAPnRAD1UBqPxnKALLNuuZ82ydnivAZXvgUmRTaDHXABYU+f2iSeeUA8++KCmCTq9F154IQh9QuGWTU7PlyEDKy26OxYNwAfI/cf/+B+14n00ORUAYvbs2Wk95ebPnz9qcxotMTrIyszWawG+0eD04Cop4JOuxh6gGPholCwF7Ei+AaPBobFt2zb185//XFHlLQVahsKtUDen8jIAPSw2vEwsOSgxca8g00OKrG4qw9D3oJ/hBaSrLV++fNg0n65nmH4dl5duCt/qf7QyKQNIqILSxQygA6b/dIvQUI69DZOD4YLnAoAYhFLkljMmIiN5ciyZPJOl+hgiLWUSAT5eKiBIqbvRbIASLjJwmbYBFzDFuDBaBpPRpNtEe5btteGXfujakEbq6uoU9VxsNw79yZMnj5pa5MyZM2rOnDlarOXZiLvTp0/Xer6ALVRadpucni/QA+3JKPzss8/qCmSAHh+AB6uYrdxefojIiXPHHXdoHaPNBrt+zz33aEuV48BsUnZi9cXaYW/gd5mCCJiQWOibOZTh9EarobOnYDl7HdUPgIeqK4UaIKEK5YRSCEYRyzf6AmxHjx7VkzeKfgCQydvK4urnRcJhAk5UnOJjo4gPC5XT86GHHtJzc81RIAwFOJhXrFihzp07pz82Gmv0rrvu0sAzWpZbxo2UB/AR1YJhg8aeQ8wN2HxjTax+bYJeIDmbyaLEHOvGSbdlyxatW6RkYxhRhsUEy/6FL3xB6y4clzfWb3f8P5+DGcd9/AKN/jvsrG677Ta1YcMGhaFktBsGDQuiui+pMt7cbIJeXOstaWVmSXaVpfPa1NSaHsm2QJaV2EMiBwN5uBqaC9Wxc2U6pVRXT/r8z1hUy5Yt01wnBbo5hVKpVQvAYQV79NFHdeyrbXEk6OIMA95Bn5Xt149VunhDV9bV2rVrtQGQSIbm5uaUSQ539/DDD+swsHRLIiVSvfA2SS21cFaHqpbykIWTxE0tzr6nHES7ZFyvbyhUR8+WS5aVYmFA4kJKIAYrmlg2QW9EXxQ7mlbTrTavuabukiLA1MItl+K9BfmkmIn/3sjKAgFIEb//RKV65+Mp6rzk3k9HhTVGgdEBdp9FgCmd6JAgukWAE2UzIi2L07DuKa9Md6OjQBQF4MqIWcXSSox6UG6JQxjD3f33368P+XR6LTB0GJyH1l5TS+a2qTphdCjfmp8Xf9+zt8mhSXop6mx8Ink0t34yRTVJLs4YLWNAb8ToZtV1qc9vuqw233VN8mn5z6LACVElNTS5f+70TjVZCgj/eusMdfJCWdpybHGa3nnnnTqofP/+/br6O57jiTJqsJCwOrOYVq1apRcT4u1YNC9n57i89L6BseD8WGuoYgjhxEB24MABZYrVJ5otEsiMGTO0wQ7DBRxeuvV45M/78pYLau2yZlVW3O+n0qOeAubE2speybnZqeZJge+q8l71z+/OVK0jE4mGShdvk9OLAL0aYWc33tGgHll/VfHvVBtE2HzXdZ19uU1Sx9dLoZB0NTg0AAyuDYsZOsdLly5pAwtKWLg/XFAANsAO69OsWbPUggUL9L/HUoc3Fn6O6XoPmd4vB+FYpJdifWHYWLNmjV536ObQQ6OSwRiA+IuuHG6QNQp3SKox3F5wEcFLId1ql5qKPvUbD11UG1Y0iRorNdVbft6gmikMz2MbrgqnV6CeE4bHZrMHejk5w4o3RNf5MzrVA8LhhQE8M1EyLW9a3aBl/eui60P+T1djYQF6nKr4EsLtAXosKAN6gCMcIdcBfmMJdoYO6HkMh5cJ40nX+xmLfr2cM2vAgMtYjIVnGv89ODh00fi58deUjAT0WKNwhBjUTLjlaIx3/YpGtUZUWakCnhkjur8p1T3qkXVX1Q5JHX+lwR6zYw/0BgeHQY8JL5jZoRbKx1bDELJodoc6IDq+OHK+rUfpfoxhYjRCdGwMnOQNZLFIt3LaxljHWx/eQwQHeg6YVIxdtueNLhnOj08mNJidB0V/X1qcGocXPQc4vhlTuqXMRIt69SN7oGfTOXkY9KqH9HGFUgTIVsuToiLI+uj3XBtJAUAPcdzV2U3f6sCHFAf6oEaE9I0os3quECPlfGF0MFjYakUFA2r5wtbh7oa47lCinj1OT6lh0CsV5SVKSH+N8YO9yU8HwBRR17WRFMCH6/3339chfaQ+cs0uBfAvO3bsmDYgECvu2kgKTKnCLSWxZ8bwXTlD0DOYeD9Pyh9U06WokGlDHHbGGDKGQY9Sb7CmvluOgN5gctDLkxMkURk538/L0gsPHTqk9XroGYO43GQpOaxNC1rCSePOBDedCaKttclZ7GhSEle0yEcZuEgMelRPo9+oForzscnpDYvK+Nl1+nYoFnAc9BdK19mdr3pSKAeZbotV0HWTrvEAeAAfDqhY7pxBI+ibiX098aG7d+9Wp0+fttNhVC8mLVgmuRqlklG5VepUSxIlf23Qn5oKo6W39u3QmvYHGHFGYg30cnJzh9GXQeJYTN3KRE7I/qhz66qrTQXadSVoMwlLWVyJfJTQh/FJ5STnZdB/IkOC6T/di9u4rzjQC7pSYl/P+kllTfh9Ou8JCyvrg/UJ4MRaI3zHNWG4eFxZ4iXOpX/6Zg2nYhCjSDd7n+LetiQyGKizEpVl2lB8vF/dWcxXYA30Bvr6bpg8Y80yccLHIABOxjYaoWlnLpWqhpZgmaJ5iTgat7VJCJzkJ8M5Mx4YoKAmAwz6m6CNhYoLAf3Ha4hGPMMkWwj6DL/XpxtU/Y7DXeePAiS7AOx4bzi442oS6x1iSMEvL4VUTMMDWbRokXZnidU/655oJFy0cNUKqrsEoPYeq9QRGGFdVhgwTFO7cI97j1Xp8TNm9rEcQqFAxRroSaqa0xr0ZHADAzlS2LtMfXy4Wpuw84Lo92KsE0JUDp6s0H56QeNwEU1+/OMfa6dMQsQSpekxepugL5shE9ZDpSccleM1wHfHjh2pVH/yt3s8VzngC0yyMbsBlQQf2je+8Y24NTgAPaIwiBFPtbE+cVaOdfADelQm3LlzZ6rdqzd3TlV3iYsJ0VRhuT2KhR85U672H7+VPRqOWySqtpQHKDdac1kpKy8/oVniIXkWTu/NXXWa4+sXEEy1AXhXJAj59R1T1fHzdvPepTomd5+jgKNAbArAnLy5s05day4IFSsP13j8XKn6xZuzVF//TfwAqHsEmJcuW/ZZGPpbAz1hyQ/hyDsgOgca3N7eo1Xqe8/PUycErDq68gKBHwpMRNpzV0rUD1+ap7aLV3ZPr7XhhqHZuLjX6fPsvSbHNQej5U9fn6Ve/mC6unitSEtmfhOFIM7CILVKuOmBExXq+y/OU4eF0zOAB1Ml4m3Ln/2rf3Uk2Igir7Ym3grbvFsshjckDjBXuD6Fwwog9ZGA1cmLpepRicHdsLJRzZzSpZnBeAYOJs7nqihFEY9f3z5VZ1hJZ+hZGAJm6r1uo2bqm8n+cfUP5KofvTxHZ0oh08pdS5u0bp/QskT7Hu7uwtVi9f6+WvWuZFhpjNLfw++JXn7XWdG7h2nWQO93vva1q7/79a//8NjRo9+sFkVsrxgQaOTEIm7ux6/MUf/w6hxVIM6LeG7H8+MbEJN3m6SXQZ4H/Gw29AHEJ8YrtBI2mgErX6JCJ/zuwMjmG82+vjC8obuLxanzfdhEB/Qfb43a6N/7RhB1+QB0ZFspluxJRFbFar39kk5OjBbxpDn27gVJ/rHlkUe+/70f/CDUi09d2RbjsX/7N3+z9Kc/+cmnAzduFBSmscpYqjNmISWqLAVhw7gmpLt/v/MmkSmW6nT5A/odR7ZcR/r/V155Rac6T3djfSZSTYRdo+nuPx30gR6TxB1s3549B643Na0K+wyrSrI//bM/OyI5u/7iupi7CzKwPoTxczL+ctF/wwDeTa72ph9VuvoP+7Ld/ZlPATi5dK6hdPdvm8LmADj82Wd9v/07v/P/sNG/VdBjQP/jf/7Pv5WcdP/5tITtFInDpWuOAo4CjgKpUMAA3mXxTVyydOn/8Tf/7b+9nUo/0fdYBz0e8MJLL/0bcdL9juj3NFvqLIk2XpXrw1Fg4lAA1UyOSE5nTp4kEer/+c7Wrf8fW7NPC+gxuLfffffPpeLSV4Ut/bBBxF2cd9NVqd0WMVw/jgKOAmNLATAC1VijVH8Tpmn3/Q888PS727b9v22Oypr1Ntagfv7ss7/46+9855fP/epXf7bvk08eEbvN6il1dTO0vk9QvFyygbhmnwKLJdQI6/lo1hC2P4vM6ZEknYWEifmOps+csWf6SG6IDpNM1D1ime6XNdvc1HQlLz9/7x2rV/+z2Ah+/K0//MNQIWex5m/VepuMwP/2L/5i2oWLF+++cP78Gonvmy2xqnCapETlQyYBQJjv+JB7xnzMOLF3G5s335mPebT3/821Xhu5+Z3+vdd6+4plU/c+k2dFPzf6Oy9dvWPm3+Sh4EMuLfNv8715jvcv/45+T9yHFzh98DvK04ohGhb8+b/5N3VC38nU9TDNBLGHNdYke8fj/XccYKNdl5YsWaJeeP75jn1791KouX2I7ob23ilHv7dY6zXWWo1+v/H2ZfSaTbRWY43LrFPv31ivLHr9ck30s7xzi/Ws6D1lrjdrH/qJB01fjzgcd4okeF5CRD+YNXv2J//XX/3V5XSuo1EFvXROxPUtKoW33y7MzcmZIu5CG8+cOfNzTlAa+hESIVBHgaLRrsWnAAH5BNsT2G4OCOH0zsjnK7JZPhN3rC6pG+s3gZIjdQZSIK3ibQbON6uHJJuRJGUXXnrppQsi2l6Uf89kwlTOmjt3riKbh2uJKUAoJVlOSA5BsgppXXJYfCjV7o7ec8899oq+uBcxZhRwoDdmpE/fg6Uc4Arxx0KE75SKbccE9N6SLDgFYkX/qnxXl74nj/+ehUZ7Jd3+TjkkciXrzn2SeWSq0HKGpHRaJLP7ZPzP0M3AgV6WrYHnnntuqejzvijTkjKnZZ/K5v22lKs8LJsZhTBBi/+bfMamInnm07pJhvjvhVbvib65X0Tc35FY8r8UvdNdwu39jgO9zH+BfkaYNpcVPw9319ingGzOZ0QXtVySUp6VvGn/ftWqVbvFz6ldOL4e2cyvyBM/lo/lqGb78xijHj8QGr0tnHGbHBZdEs73PRF3XxSdqLiMDT7x7LPP3jdG43KPtUgBx+lZJOZYd/XP//zPM0W0rZZNekA27X+99957oz3YT8sYvy+fPfKhWGqpfPAbIlGhsaAb67nX+hbLep7MKu61kEdb2v1aKyGp9znR1m3Tj/dvtAXf9GEs5NpqKB9SjpMiGz0oFp96+by0evXqiLTZAoD/XgL0a0W/N1sqzi2Raz4Y6/fsnh+OAs56G45+GXf31q1bJ0u9hUFRujdk3OA8A5Jxxlp7QddjItCL9Vs0AGr3ic2bNyflfN97771K4aA75NpQlbgy+Z24sTkKOAo4CjgKOAo4CjgKOAo4CjgKOAo4CjgKOAo4CjgKOAo4CjgKOAo4CjgKOAo4CowxBf7/J0bwy72gJAkAAAAASUVORK5CYII=;rotation=90;" parent="QIXlH9156Hlg0ZABz43d-1" vertex="1">
          <mxGeometry x="159" y="439.65000000000003" width="212.88" height="368" as="geometry" />
        </mxCell>
        <mxCell id="QIXlH9156Hlg0ZABz43d-3" value="" style="endArrow=none;html=1;rounded=0;strokeWidth=2;fillColor=#a0522d;strokeColor=#6D1F00;" parent="QIXlH9156Hlg0ZABz43d-1" edge="1">
          <mxGeometry width="50" height="50" relative="1" as="geometry">
            <mxPoint x="40" y="40" as="sourcePoint" />
            <mxPoint x="800" y="40" as="targetPoint" />
          </mxGeometry>
        </mxCell>
        <mxCell id="QIXlH9156Hlg0ZABz43d-4" value="" style="endArrow=none;html=1;rounded=0;strokeWidth=2;fillColor=#dae8fc;strokeColor=#6c8ebf;" parent="QIXlH9156Hlg0ZABz43d-1" edge="1">
          <mxGeometry width="50" height="50" relative="1" as="geometry">
            <mxPoint x="40" y="80" as="sourcePoint" />
            <mxPoint x="800" y="80" as="targetPoint" />
          </mxGeometry>
        </mxCell>
        <mxCell id="QIXlH9156Hlg0ZABz43d-5" value="L1 (230V)" style="text;html=1;strokeColor=none;fillColor=none;align=center;verticalAlign=middle;whiteSpace=wrap;rounded=0;" parent="QIXlH9156Hlg0ZABz43d-1" vertex="1">
          <mxGeometry x="40" y="40" width="80" height="20" as="geometry" />
        </mxCell>
        <mxCell id="QIXlH9156Hlg0ZABz43d-6" value="N (0V)" style="text;html=1;strokeColor=none;fillColor=none;align=center;verticalAlign=middle;whiteSpace=wrap;rounded=0;" parent="QIXlH9156Hlg0ZABz43d-1" vertex="1">
          <mxGeometry x="40" y="80" width="60" height="20" as="geometry" />
        </mxCell>
        <mxCell id="QIXlH9156Hlg0ZABz43d-7" value="Power Supply&lt;br&gt;24V 2,5A" style="rounded=0;whiteSpace=wrap;html=1;" parent="QIXlH9156Hlg0ZABz43d-1" vertex="1">
          <mxGeometry x="95" y="120" width="100" height="40" as="geometry" />
        </mxCell>
        <mxCell id="QIXlH9156Hlg0ZABz43d-8" value="" style="endArrow=none;html=1;rounded=0;exitX=0.25;exitY=0;exitDx=0;exitDy=0;strokeWidth=2;fillColor=#dae8fc;strokeColor=#6c8ebf;" parent="QIXlH9156Hlg0ZABz43d-1" source="QIXlH9156Hlg0ZABz43d-7" edge="1">
          <mxGeometry width="50" height="50" relative="1" as="geometry">
            <mxPoint x="50" y="310" as="sourcePoint" />
            <mxPoint x="120" y="80" as="targetPoint" />
          </mxGeometry>
        </mxCell>
        <mxCell id="QIXlH9156Hlg0ZABz43d-9" value="" style="endArrow=none;html=1;rounded=0;exitX=0.75;exitY=0;exitDx=0;exitDy=0;strokeWidth=2;fillColor=#a0522d;strokeColor=#6D1F00;" parent="QIXlH9156Hlg0ZABz43d-1" source="QIXlH9156Hlg0ZABz43d-7" edge="1">
          <mxGeometry width="50" height="50" relative="1" as="geometry">
            <mxPoint x="175" y="90" as="sourcePoint" />
            <mxPoint x="170" y="40" as="targetPoint" />
          </mxGeometry>
        </mxCell>
        <mxCell id="QIXlH9156Hlg0ZABz43d-10" value="" style="endArrow=none;html=1;rounded=0;entryX=0.25;entryY=1;entryDx=0;entryDy=0;strokeWidth=2;" parent="QIXlH9156Hlg0ZABz43d-1" target="QIXlH9156Hlg0ZABz43d-7" edge="1">
          <mxGeometry width="50" height="50" relative="1" as="geometry">
            <mxPoint x="800" y="240" as="sourcePoint" />
            <mxPoint x="150" y="220" as="targetPoint" />
            <Array as="points">
              <mxPoint x="120" y="240" />
            </Array>
          </mxGeometry>
        </mxCell>
        <mxCell id="QIXlH9156Hlg0ZABz43d-11" value="" style="endArrow=none;html=1;rounded=0;entryX=0.75;entryY=1;entryDx=0;entryDy=0;strokeWidth=2;fillColor=#f8cecc;strokeColor=#b85450;" parent="QIXlH9156Hlg0ZABz43d-1" target="QIXlH9156Hlg0ZABz43d-7" edge="1">
          <mxGeometry width="50" height="50" relative="1" as="geometry">
            <mxPoint x="800" y="200" as="sourcePoint" />
            <mxPoint x="180" y="220" as="targetPoint" />
            <Array as="points">
              <mxPoint x="170" y="200" />
            </Array>
          </mxGeometry>
        </mxCell>
        <mxCell id="QIXlH9156Hlg0ZABz43d-12" value="24V" style="text;html=1;strokeColor=none;fillColor=none;align=center;verticalAlign=middle;whiteSpace=wrap;rounded=0;" parent="QIXlH9156Hlg0ZABz43d-1" vertex="1">
          <mxGeometry x="170" y="180" width="40" height="20" as="geometry" />
        </mxCell>
        <mxCell id="QIXlH9156Hlg0ZABz43d-13" value="0V" style="text;html=1;strokeColor=none;fillColor=none;align=center;verticalAlign=middle;whiteSpace=wrap;rounded=0;" parent="QIXlH9156Hlg0ZABz43d-1" vertex="1">
          <mxGeometry x="120" y="220" width="40" height="20" as="geometry" />
        </mxCell>
        <mxCell id="QIXlH9156Hlg0ZABz43d-14" value="" style="shape=image;verticalLabelPosition=bottom;labelBackgroundColor=default;verticalAlign=top;aspect=fixed;imageAspect=0;image=data:image/png,iVBORw0KGgoAAAANSUhEUgAAAbMAAAAuCAYAAACiYveuAAAAAXNSR0IArs4c6QAAAARnQU1BAACxjwv8YQUAAAAJcEhZcwAADsMAAA7DAcdvqGQAAE91SURBVHhe7Z0HeBzV1fePeu+yerFsyb2AC6640HsxkEDoxEBIICEJKW8ICSkkQF5SSAVCbwGHDkkAAzZgY2Pcqyxbtnrvve53fnc18mq12l3ZcvDL5//DfYRnd3Zm/vfc0+65d3xsCjmO4ziO4ziO4/g/DJ81a9YcN2YjiOjoaOnp6ZGmpqa+I8cxkkhNTZWSkpK+fx3HSMHf31/Cw8Olo6ND2tra+o4ex0ghMTFR6urqpLOzs+/IcYwUAgICZPTo0eIzc+bM48ZsBDF//nxpb2+XrVu3GqN2HCMHHx8fWb58uTzyyCN9R45jpBATEyNTpkxWR6FU8vPz+44ex0jhsssuk48//ljKysr6jhzHSCE2Nla+/e1vm//HmB1vI9TOOuss2+IlS2zqLbj8/Hg7/KbGzHb33Xe7/Ox4O7KWkJBgO//8822TJ092+fnxdmTt1ltvtWVljXb52fF2ZE2jXtszzzxt89N/3K1tSPj5+UlaeoZMnTpVMtLTTQriWExD4LX7+vqav7SkpCQTfnZ3d0tvb2/ft7yDFbZOmzZNRo0aZVKGXV1dfZ+6R3Z2trlmUVGRx+tyn3gVJ5xwgmRljRFf5bq5uWnY93u04cxtVGSkxMXFmZTUcO8VeUpJSZHp06dLSmqa4aq1tVW8mbrl2kuWLJFVq1b1HRkafDciIkLGjRsv4ydOltDQUL1Oi/Zjd983jg04cxsUFCRpKanSrVG9tzJngd8hwpo0eYpk54wXXx9ReWr2qo/CwsIkLS3NpMKqqqr6jg4NxkhOTo7RC/Hx8dLY2HhMptAcuQ3Ue06H294ekzUZbrlASEiI6oSpMn78BCNPcIv8eoOTTjpJ8vL2Sn19fd+RocEYIZ2OXkhOTjZygM491sobHLmlJaiuhBfk4HD0QnBwsGnIFvD2eUmPn3nmGaLibqybS3CDGmnIzTffbITdZuvVi/rL9TfcIIUFBX3f+vwBAePGjTOD0cKZZ54pCxYskL/+5S/y6muvSW1trdcK88Ybb5RLLrnE/Nvf30/y8w/I//zP/0h1dbU55g7w1dbeLmvXrPGojDC4Dz30kBkkemUVgg554okn5KWXXjqmBBcDPXbsWCNwACO/bNky+fe//y3PPPOMHDx40CvFi/DPmTNH7rvvPjM4madBefLvDRs29H1raNA3P/3pT0Wjs74jQwNub7vtNjn55JOlpaVFItUAP//Ci/LEY48aJXSsAEOAorOALH9T77uislJ+8YtfyJ7cXOn20qhpVCW333676SscDYz5r371K/nXv/7V942hoZGZ6RtSjDt37uw76hr04ze+8Q3RSM7IKXKxb98+ueOOO44pbqOiogwnzGMDlN41V18tPnr/f/3rX2X16tVez23zjL994AGZrgYGblG4yP+f//xn44x5gkZm8tZbb8qBAwf7jrgG3M6bN0/+93//VxoaGiQwMFDKykrlt7/9nWzcuLHvW58/uM/ZM2ZKXMKoviMiZ599tsyaNUv+/sgj+qxvGRn2Ro/BJeP06ypT6ergtqjT+Zrq7Mcff9w4SZ7AfOQDD/yv+IxJjeu/Wo8a0/rmNmlosncORH7nO98x1pYfx9qi6Neoon722WfNd44FpKj38r3vf98oWAsMZISXQYbAYTS88aLwjCHxP//5j+zYscNEIBdddJG88sorsnLlSvMdlHBcVKiEBgcYb8ARCxYutM+Zbdky4Hr0aWNrh9Q3tfXPpXG/p59+ujz22GPm2Kmnnmqu95Of/OSY8nLvuOO7snz5jX1G165wURQY9+eff15+97vfSWlpqfnMHTgPxwhv84UXXjADgn9/8MEHsmLFCsOXr4YTMZFhEhEaZCILR2DMbr7la/K3v/y178ghtHV0S3V9s3R127mdOXOmMWb/+Mc/pKKiQr3p8cbBueuuu6S4uNh85/MGz7No0cny1FNP9x2xH8PAMdaQwVtv+6aUqzLzBldddZWJlFCyKMLZs2epd3+ifP3rXzef89sRYcESHREi/k7kxsXGqpMyWYqKSmTf/oFzZh3dvVLb0KJOml0mySbggHz44YdmjBANXnfdtfIX7Zd169aZ7xwLIPr/+c9/ZjgAfn6+athizP9v3rxZfv3rXxuOvYkiEtU5ev6554xTy9jEoZsyZYo8+uijsmfPHvMddMeoqBCNAO1OnyMuv+IKw1epU/FSd69N6lQnNLe0G8WPYv/BD35gxsEbb7xpdM1Xv/pV+eijj44pnWvpSQIGC+hbgp7CwgL5nRrfx/RzDL8nEIRgVwgCVn+wSvsoSr6tdgeHKS8vz3wHZyIyPEQiQwPFz0l2Y1Vn3vHDO8VnxT1X9Buztk6bbM4rkxXvb5fi8lqjfK655hpjcS2PC4X2nJL6sir3YwVW+J+VldV3hLB+jkmDvKxRziuvvupVeA8w3D/72c8kIyPDCC0k4nnRcRjx0OAgmTEpU86fly2jkyKN0DkiVCOAXlWo7epdOKJLFcKughp5Y02u7DlQLh2dXXLGGWfI9ddf35/yQBDWrl2rSuEvXnl7/y0waCdMmGCiVIDnf9Lsk+Qz9RQxZvv37/fKA2MAXHvttXLOOef0e8QYxb///e9GAfeoMZuYnSyXLp4iOWmxEhTg7CqIxGgEUacenzNKa5rl9Y/2yMdbDxpuJ0+eJHfeead+4mP4RUkgA0R2GLdjBXiVS5cu6fsXXmqgyQpQsUmU7k3EauHcc8+VK1RpYrRQ0CjC3L175W59ZhyHlIRoOffkCTJ/YqqEBvn3nWVHgPZtWGiAtKtTQLNAt9Y0dcj7n+XLe5/tU6PWbIztd7/7XRkzZkz/GMGB+/Of/iQbN23qO/PzB0YWpyY+Ps78OyQkVE477XTp7umWFS++KO+9957XUyZJySnyh9//zmQgkHUc/Xw1+o8++nc1/vvVQQiTJbPHy9mzMiRWDZozImPjpFVlvrtroJPa1N4l63eXyduf5ElReY3pO5T44sWLTUYB8Bw442+++aZX4+y/AfqcaCopKbHviGhkP9ekR3FOX1R+a2pq+j5xj4yMdLnppptMBF1TU2uOUUgHD3tVfgMD/GXi2DQ5c06OTM2MlmAn2e32CZCInJPFp2TFNwaw09LRI0+v3i9//MdaaVFPjGiBeQoLeM9vvPGGrF+/vu/IsQkGGoRblt1bIKR4uKQtLdApb2rYvGf3bpk3bYx8+7LZMjs7VgL8Bitbd2jp7JGVW8vkwRXrjUHDcyTqsyIe8Omnn5oQ3RuP5vMCKTwUGtwO5z4xKKefdpos0oHqCKLezz77zCjbn96wWM6YlqzeV9+Hw0BuabPc9eQaWbt5v6Snp2k/Xm3SixYwEE8//bTXjs3nAQzQjBkzjLfvTYrFEbNnzzZpbpwi0Kte/7bt2+Ufzz8no2Ii5JpzZ8g1p46T+PBA87m30J+Rwuo2+ctbO+SlldskMMhucIl2LTBGXnnpZdmXv7/vyLEHxjbjurq6RsrLh1dVGKOK9haNcB3laZ/KP2O1Sp/94qVT5VuXzJDRsUGDsjWeUN/WLc9+kC8Pv7JOo7RWOe+880yq0RH//Oc/zRg5lkHw0KX2oaiwsD/75A2I9HnmyZMm9R2x48E//tFkfMakJcoPrjpZlk5LkNCBdsygsdNX9gdOk0EqIzTIT86cnirTclKNl4BBQAklJIwyA2Xp0qUS3jdYvAUeOULg2Bi03oDrMzidz+fe3IHc/3ANmYHDM6enpxtjg3fH5HF0ZJicPnu0nJAVM2xDBsIC1ZuZnCjzJqdKiCoEX70WPJASXbhwoYmAMRTDAffJ+Y7cEFF7CyJRx3P5LX7THcrLy0166XAMLkUu/H5iYoJ6yacZRwnPk/6cO2W0LJ6UcFiGDIxPCZezFowzaQh+j0iS5yMlxPwOg42+9RZ8l9SJIz/8nifZs+BK7jnm7nycRRya4RoyYH9m+3oxPNvzzjtXEkbFm+NZKTFyxoyMYRsyQPIhLT5EzlTZz0ixRzlch37MzMw0Y2T69BPEL9C93DiCSNF5XHPf3vaP9ZyO5zs6ha5AFIncDteQAZUoc02ugRN6wQUXSI4aRj89lpoQJxfOGyPp0YHDNmQgOsRfzj8pXbIzRhleaOgbdAHZG6I0MhheQ/s7xGlc0zyNa0c46xT6ylPfoG8PHjgwLEMGzPOqo2GNl/ETJhhHifsN0Khs5sQMWTw53qUhc4Tfd7900oDZdDqDPO7GfdWyY3+puTG7Jz7KTAwz18Fg8xSeM4C4QQRu0aJFcvHFF5sJZhqeJzn9puZmCdDvuGvMr5A+YW7JOv/EE08wE+OE3N7Mgw0HpGdopCxDQ0Nk1arVxivarVFZZFiwXDAvWyalD0OwnBAS4CcHKltk095yqatvlFEJCcZbJFXHvBGVet4UqzCwgtRooahZw4LysvhBCMrU4Lji07mh5DGic+fONedOnDjR9C39wz2MdFqDNA3VjAkJibJlyxb5pz4zqTRk4dSTxsvCiaMG5cSHg6qmbnnzo91m7ixIny9DlS0pcjxo0jTMl3kabMhuqA7ezIwMufzyy006xeI2NTVFSpgf1O+44tNqKD0mw7/0pS/1n0tDXokMuQdv5mqGA34bpYeBweFAbpnnpS8nZyfJRSePk7CAw/MU6BJSYutyy6WgpNooILIfKDnSdVyLlJCnQiC4RWkxz3G+euPMY1rcUGhUWVVtfsMVp46NtPeFF15oFD3nEpWSss1XZUqBx3AVqid06j3hyKBkSf+RnaKwplCjkKzUOFm2YIwkRHnvRDojIiRAPt1bLbkFVdKq4y9NHWmyH0Rj6AX+ejP1gM6lT85QfcnYtrjFISe136jNFZ+ODb1y4/LlA+Qexx45Yl4LuR1JvWD/LZvRhfRrmz7nSpUpCl5sPd1y6qxsWTwlwf5lF+jo8ZE6v8TBaUZQVtsmP3jsE/l4S76ZfGRBGhaTuQZKzv/2t7+ZznQHCMV7ueTSSyVJhYwSdwuQgRBAjiegFFB+GEULCCppGAT3pz/5SX9ueSTA9ZgYpjgDo1BQUGCMODnr/Ly98sMr58tlC0eL/2FEZqBVbe/vXtkqT765UQ3QAvnlPfeYiKGystKkwSi0YVGwJ2eBqAYjxvwV/Dh6TfyWt4szUXwoQJQMINpCEVJG/PjjT4xoaoOBhjwx34I8cY/c6+9//3t555135OoL5shdl06VQP/DDM0Ur2woldsfeE3GjZ8gv/3tb40XzXwOcrtt2zYzH+qp9JxIERlH5uDH0aNFISC7npwolD3FPPSNI0ibkJKjcODtt98eUYOG00eBAs4RY4sq0/fff1/uvfdemTc9U3598ymSrRHW4eKzfbVy1xOfSEl1kylSItUIN2RBcPb+8Ic/mM0C3AHn9MorvyILFiw0CpIIwEJbG/1U6NU8FjLLb2EYAQqRaJZnZnHyn/70pxHlNjEpWZ568gl1pE8094de4DqM1UBbhzzwtcVywphYfJzDQkVTp3z7z6tk3Y5CU7BD9SPcoBOQV4qsKFbxZERuuOEGOU0NWdbo0SZ9ZwEuGAPepNjRBTi1jnKPQ8h4pX+pBB3JIipsA/d90UUX6rjqMb9NY/zW1lTLFWfMkJ9dPUuGUgtWmnGQMevqscmbm0rlxw+tVCveKjljs83g8FNFFBwUaAYxE/+Ek+6AsN1yyy3yzW9+s+/IyAODRsTnjVH0FiihWRo5Ur3kHxisz2wvHGBiu6a6Ws6dP1G+/+VZkpU4vFSrhU/z6+SeZ9bKxh0FkpKaKlNUaILVgNJUjEzEuX3bVo8DkXk9jALe6NEASuUnP/mpUbgjBQwuspSdNUa5DTAeYA9ZgI2fGXlKT46XB28/U2aNPjQvMRw0t/fKDx5dK69/uE2NZZTxRsPUmw5UhYchZTBSbedJWcIpXiGycLRw110/Ns7CSCpcjANKCAVvpUNJ/fAsqYkx8p0vz5dLF2QOqmT0BnWtXfL3d3bLwy9vMH02feo0HSOJ2o9BRi8wRsjYeJr0J5r70Y9+ZIqAjhZefvll+da3vjWi0Rl8zp87V0LVwQnQZ6YoAYVLdqGjvU2WXzxfbj13okR5yoW5AAr4pbWFct+zH0l5daOJTrLVSSUlz5QBfG9Qbg8edK9zwT3qHH/lK1/pN/IjDWSJCvfDmsIZAhR+kE4l6sWZtvqNAiiyVDkZCfKLG0+VhePtlajO6J8zq2/pFKtV1LfLs6sPyP3PrpOGxhbjBUycPFHOu+A8mTRhvPEWfv6LX0iihoMjBa5BY1BbzTr2eWH+woVyjnq5EyeMk1/+8pdm4jdajTMkr9yQJ799abNsyKuV2qaOfu6s1tLRK80dPdLgdLy8oUPe2Foh//viBtm2p9g8X5B6PjfdfLOEqwfG+qA77/yRLFm8CFL67uTI4cytxe/nBRTul664XMZmZxtj/KP/+aEZuNxTcVm1/PLJ9fK6RleVypcjf1Zr6/EZfLy5U9bvr5OfPveZrPx0jz6jzURV5557jpw0Z45JlzDIiSTCwkL77uTIcaxxi4eLk0P13g3XX2/W41ml02VV9fLw65vl8ffyTZrbmcNGNVbIblNb96DP9pY2ywOv7JSn/71dWjV64hkXqZxSyDNjxommQhTdEDKMuVpPcMXt58kv820Xq/yQzly6ZJHRC8v038HBIdLZ1S3P/nuT/P6VbZJX1jyIPxoZmUYX3B6obJVHVxXJH1/ZKOVVdqecbMBXrrzSTO8QAX/n27eroj9UkHakgENX/H5e3JI5adComiwNIHU8dqw6vP7+5p7yS2rkN/9YJ298Viblde2DOGxq65JeZjVnTh7T/wQ1qkCKSsvUE7B7i+GhYcbD6ezpkl27dpmKHjw/QuyHH3a/P56nyIybxDggJDwM/w+heJM8BJ40YS5tKA/5aERmpL8ojX/ppX/qtQONEctSb5KSecfUKimArJQ4CXCKfWfOmCptXb2yZ/de6e0+NH9AZejBkmrzrBauuupKmTVrtkk5EWJXlFcYQb7v3vuksdn9Yk53kZklqMw9dHS069/u/rQY3MIpnpvFrZVidMTRiMxI4X4LedDr4dGmpqQIk73bt2838wIWN8x1pScnSlS404S1nnfpVZfJP59+se+AHZ1dPaasuaHJ7oAB8vwoWBZwssyCuQCMGoqXNKE7eIrM4Ba5hV/+wi3X5ftwijfNX7geCkcjMiNVQ+Tzr7fekrnz5pl0MR7vdddd1/cNe/8nxUdLfEzEgLnJyKhIyR43ViorKqW48NBaKPUL1BA2q6I9tByC8muULPOQeNXdKueUZVOV6ml3Fk+RGXzAJ7zipVvcEtXDryO3Q/XP0YjMmENnveqPf/xjk7omUkNOmCskfW2Bwqa0+ENTIhbOvPBs2bR+o1SVH+Kxu6dXquqapbKmvn98ovfgtkr53rZtu9G37EbEGHnuuec8PpO7yMzSufBqya+zzuU8d9wejcgsK2u0jtXbJDc3t//6zPdhO5jiscY0+iM1KU6j34FFTJHRMfLVW24X340788VqB4tL+g0ZaFNFWFhcpIROkhknzlBFO1rGZI2RHTvc7xDgCRDKZCZGiPQEu0CwWpw5uXJtWGjrM2ubHOuBjjZIQVGMceqpp5n5qNEqxBHq5e/ft6/vG3Ywd7It92A/d1YrrOqQwvIm2bJr4PE9+4sHGDKwZ0+uxMbGyKWXXqJCZZMTZ8yQ4pISaW33bu2LKyCcXAfu4LC21r49EZzSGCTWZ3CLYI+kQnUHBuz+/HyZNnWq8XBZLIn3WVpWZvrYQof+/76CogH80TZp62gPHnR8+94CqW9sHiAjpCeQq/MvuMAUgTDXUVxUdETzq/w+CoC+t+TT4hXZ5S/X5DiNfvhvcQsOHDhgjMt5qggY+CcvXDhonRp9UFxeLVt2HxjA4c59pVJeo7wX1g44vlnl2NGQAZ6NlC2Gkj6cNGmyMTLMVx0JuDfmZiz+SFlasgu/9CkyC/d8zzIA/w1wbe7nMmoAVGbHjxtnZNZ5zWKFOgOO/FmtsdFHcvPLBxzbuueglFZUD3gOdGOuOuk4uSefvNBUkTP3ylzrkRhnS+fCK/LLhgeOcsu/Ld4tnfvfQkdHp/JbY2SJLee4T+6H8eM4ptHN+w4UD+CQtmufff6OqoEh9wbih1CuCA5RGaRTucQ2MJ6MC8KNwsJDdgS/gULhxrDCNMitKC2ShroqFdQm8ffzlwT1evgNSKXhmdEcowgemOpKFDJgIJNvxnNkMV9yclJ/s7a64lrugPKhKgvvgCiNa1C15Gli28Jw9mZEQBsaGvtL01E8TPLCtydQxUgFo2NhDNdDEGh4VniPCATXqaspl3rllm6Li4s1z4ZitgQGr8yR28bGBvngg1XGsAO4pzoPz9ORVxqRD32FknEnF9wfvHBdrk+/vf3OO/Lp+k/1/wcaelfg/rzdm7FZ+xnjRQqXZ0PRs00Yg9eT7MIpO5M48sE53C/yw3PALcdQ6tVV5frsdWaxNhkJJt75DBnnu6483Q8+eN9Ep9a9wOGkSZNk1Kj4AdyyXg5lhsLxBCIxjCnc0l9EDEQO1vhwBwq2GCOc76lAhv6j6INn4nkZI6+++qrJlHgCsk6ETNGTIxjjcMtvY4i5fwxIZXmx1Oo9tba2mX4hlcp1eSYUtKUXHEEximOxBPoAvUAk5cgtza5AW804cAeuRzRC36Kz0BEs9EeevYG3ezNyz8gqf3lenpviKOYjvTEwrAtmFxhkzgL6CJ3CMxLVwm99fZ3ZjaSxvkaamlvNcaon+YxnpXHMmVvknWwNfQOQNfaQxOg6c0tECbee5qj5nApO7nvC+AlG3v+tOpc6BeTBE+DJ496MRwJXaUaED1IRWhQMgonC6OxokQP7cqWqolj8/INk4tTZEtW37QyGDwFAgCCOvxac04xsADpn7lwdXJXS2jKwjJVQlj0WMcRHE8PZm/FI4JxmRPjhCi5YX4VA+PsHmOOFB/dK/r69ym2A2YA2OTVTefc194eSpA9wBFDQFpzTjBir73zn27J27Sfm345AIdCnGP2j+czcp7d7Mx4JnNOMcMjgxmNlcOKZwweGCkO2L3entOjxrLHjJTMrWwJUkSDrePIoElLSGAtHg+acZmTpCSk4Ui2OYP4LBeoprX+kGM7ejEcCV2lGZAa5Rdla65vo69bmetm7a6PU1rPrSKJMmDLD6A04QyfQF8yBRkQMXLfqnGY89ZRTJFVllIINi28L7N24cuW7yvveviNHB97uzXikcE4zIn+MTRpKn3GOHHZ2tkte7g4pLy2R8MhYyRk/ud+pRtZx+tAH6HGMmgXnNCPp12XLLtbjA3d+0Z8xztnq1fYtz7wB98W1uGer77wB45W9GV0nRl3AsugsxnO21t4CYcUK40GSkiAPnL9fhai7RfwDAqWjJ0D/BktwgE2VRJXxsIgMiCwsRcKDDgVSpHiVZSWFUl52qJWUFKjSrlKC/ntpieEAAYJXmqPgDAcIIAKLZ82c5q5du41Sam2uNULc0e1njFxEmL96Y9XqWeYagWT+CG451x23AEeEfdccuaUVFRVovx472285ggHCwIZbDBBcDxcoW8upQhYxOAxQnKbgAB/x9Q+W7h4fs+FAT1eHyvR+42gh48ij5RVjFIcC/FVWlA7itkIjE/rmWAXGxeLW0VgPB3ALRyUlxWYvVfRCSfEBYfe0Xh+q+XzMriM+vW0mEoJbohccsaamZqNT3HGLXuC8stKBsltUeNBEKKT4j0WgZy294GisvQWcIHdwixziqCC3JoLuaVd9jl7AgPhIsH+3kT8+Qy9g+K1+cWdYent7DIeOvNLKStG7w0uN4migx4ZzjiP85p2QfXd6UqzQYqIipKH50Ea4FqiI+uEPf2j2EWShIsYIhekOCLdjmhGFADGEpygEyP1swyfS3dmkkUKWRjPdUl1TL35qzPB8ywr3ycGiMuOxYcRQQiglBg8Kn387pxlZiMkLBmfOmiBTpubI5CnjTKMSKD4uyXRQYaHntADX4N55btIhhPcYCUekJKg3k5kqo1PjDHdWmzA2TSLCgyTU3yapCdH244lxEhcTbTq+tW1gygevmzUkVJ+Rj8dhcEw/DQXHNCPfxSDRWJcCL6RFy4p2S3p6hvgHhkuxCpaPn0bDCUnS0tSgTsI+wzcCC394bAwey6NzTjMymOxVRpkyY6adV6uNik/WfmpSRbR/kOfrDPpuwsRJsmTJYjN3RkoZI8ErTwD9GhURLhPHpEhWWvwAbtOTtX9PnCAt1WUDjrMDg83Hv7/SzgKR/1eXf1W+d8f3zOJlJtPh1lPaA06tNCNvisDQkA620njGUO3fJhFRIdp/yVJZVauRWZtZzhHg1yO5eftU0VYbeUfukSdLbi1H0DnNmJ2dIycvOknGT8gYwO3Y7DHSUN82oMjAHUhXMtcyc+Ys8/yMNcfxjLc9Nj1FsjMSlM9DHGamjpLMzAQJDxaJCvHvP56WGCshwUFGLzjLJAvK0QtXaCQwb+5cY+St9NNQcE4zomwx1tbcDUZn65ZPJTjQXxJTRktldb3Z+DwiKkaiVT+RwSkuw4g1Gb2AvCKbwXqPFrfOaUbSXZMmTZRZs8erXjjEbdaYsSr38aY/Pd03IGokjccGA+go7oHxYwE/aUx6kuqFFMlIiennkDZZ9ZGto1liI4IOcatyGx4eKW2dXQMyGjgFbCxx/29+I1cqt5bO9WZO0jHNaEVlZAjgl99gKqO9uVCyx02RppZOs0g9NDRcYlR3VqnjVFBQKLV19f0OAmMBXpFf4JxmZFPgxYsXyKQpmQPklhYaGmN0AvrIE3hmZIMsD4WHrDnsUX3piMjwUMPtmLSBspuRliTTZ84R/98sP7TrMdU1H+yskCff2iIHSw7l6EkNQMR/9CEYoOSLhwsUJh2GwEKyr0+v+Nuapbq2Rbp61KPzsQuiEUDfQFHbJsF+ndLS42eONajCQ5ggF0NpCa4zOjv0HFU8fr5sLmsv7WzRTvMLOLQ40xPYwXnJ0qVSV1ujxiXUCBOvZCDSYfAsnJEt15wyXkYnUhHWd1IfGFSUiXbOj+Zh+o6qMe+2ya6ienny3Z2yaVdBfxSEcqEDqaBE6eAkWIPQW1BNhvAhuPzld0IDiSY0Eu7UewqzohFVzqJhfK+f+Ni6xU9HH/eKUsBp4NlIhw3FbW9vt7Q2VolvL4rD1zQWOba0+nk0YoB1M3PmzpM7f/QjVbL2ijl2E2cRJjtV2PQ3TpiQKdeeM01OyIxSbgd7+hHRzbLAQWYBdBXVtMsra/bJG6u3SbsqBxChRjEyIlJWrV4le3bvMYbIUfl4A54PZwZHAdmnb+Chu6dTmpt0sKkR7Yf+f6d6uoG+nRIaoM5bh5/pD4x1ZJR9acdQkbfxSrUfWtSJAAEBfuba/v4hXnEL2Gz75pu/Zua3uV+MKw7DHx580Hw+Rg3Y1WdOl/njEyUseGAf+2pforB6eiKlqzOz76gddS0dsmLtAXljVa7UNRya86GohoXDFPUwR+lprs0VMGboBRQe3Ab4dYutu0WNJ/NDjv2PrAaYnV0C9TvtXchet1HUyCy/Q/XxUKCwIFhv3c/Pvs0ZnLbWtUp4pPcRD5spkL5nrOCEogf/8pc/qyyXGb10yZLJcvmiMRIewvxz30l9CIu0yTnpE6Wn+9BcIaO8pb1HPtlVLk+/s1UOlNg5QLGP0ut06DM98/TTxtEbrs7ld5BbxjZ6gf/nWFBAj9TWd0qPzVFuVRZ8AqVT9TD89/T6mmjYknn0AnoK584V2tXwNDdWS1AgVab27bi6unq0T7xb68Ya23PPPU9uVMcT3YMh/uSTT4zOxWgyZqbkpMvVp02QE8cwfeJr5scstPX6S0tgp/hmJYaL1XJSIuUr2hnfuHS2UQSAByBaoFTyV/fcI/ffd59ZjDocQCICiyLhnV3cSGBQiORMnCFTJmYbo4OxKyncLfW19nfgBAaHqfD6S2iQvXSU7WQQWDpnqMHNec0tzVJysEwK95ZI/q5Cyd9dJAX7NRKsadTzPBsJyCQqe+rJJ+WXv7xHfnP//aaSEW+H+1gwfYx8d9mJsmRqkmQnH+LOaslRAZIa5S9ZCWEDjo9LjZBzZqXKty46USaPsc9z8XsoEH77N+qFseKdfe6GEpqhgKDCL0qTM4NV+JLSss18AFEOvBw8kC/VlQfNb/v726OEMOXWeltFrSoFvmdFua7AdYqLSqUor0QO5hYZfgv2FkuVU0XWUGAuacL48Sqoa+XnP/+5aUxsY8wZLEmJ8fK9r8yRC2alKbeRA/izWnxQz6BjY5LCZeHEOPn+Zdov6n2z5yUIDAwyCzFv+8athlt2VoiKGt6CbAwQ1VbMieE0wF9KMovdp0hiQrL5TmN9uRQc2C2tKt/+AUGqFHhNhb1/gZFbI/soFNeyy29XldUYbmnILTJcXlSpcjvQQx0KvIgUp/M3qgTu+dWv5IEHHpDFfZuEJ4+KkeXnzJSrl4yVyRlRgzjMjA+VZFXsaTHBgz47IStObj13ilx22iSzbALwbBgRdjZ/QK/Ha0vox+GAtD9yi3HgGem3sAiNvqfOlKyMFKMU0RmF+VuljbdQ+KgS87enM5mK4B74nN9obx9abtEX9XUNUqR6AHlFbg/sKZbig4WqrBuN3HsCUQNOPTLLvBQ7xCDzRMLcz2VLJ8ttF0yRqaNjjTw6c5gQYpOMuIHcjtE2Rfvi6lOz5caLZ0tinF020UHRaizZkgqFft+995pIbTjgmZA3xnNLc5Ph1kTl2ZNk4rixxmAglwcP5Ck3ZeYZqFfwV8GNCO7Vf/uY5zNZE/0Lx64AdW3NLVK63y638Aq/hXnFagwpOPPMLTtETZs6xWwCTkYEmWJzBXZ4oY9T4yPkm8tmyEXzMlWPRhreHHlMiwsVfw2OBu3NyFZCcRoK51W1SlFZvQmnEbaPP/xQ3nt3pax85x3ZsnWrsdju4JhmRCFYHlhksE1iI4M1WohSAYmT1LR0iYuJ0Gs0a8SgnlIEoWameiYxGgF0qsNg3/zWispQwhhXOsM5zUjBA95BsHpfPkoixsumrUuvX9vYbNKMdI47QD5pCdJSpBNOOeUUMznOpHKXCscNZ0+TJdMSD2s7K9b1JMaESmldp+w8WGW2OuLFi+vXfiLvKq/vaOS7ft16qa7xHJY7phkZ0Aic+lP6+4EajYRLaHiUZGakmtQrXlJldaWM0kgyISFDeY+WkECNeNUbC9F+gFu8IyulgCfmnGYExjvTiM5frwSvFr+NrU1SWkbZv92zdIfw8DCzpRXv2iIlYp+AX2lSPRecMlWuOjlLvcfBEZknMFgjQtQp0qhz5ad5EhEZKXHsbbf+U1m9apXhlvdJkUZBHt0BHqw0IwqBSit+PyacTaEjTYVkbHySjBubqpFYrzQ214uvjpu0tCxJTBwl0ZGBeh9EueH9covM2tONQUZxOKcZg4OCNVoK0qikyxyDV/62qyHNVweC9I4n0G/sdUgxCbLBTuS8jgMvd1pOsnz1vGmSEDE4avAEvg+3YUGBsqOgVpo1mkDRML/1ocoIssvz7M3z/BYFxzQjMkvkiiGLDRWJjgozchs/KknSUpOUt1CpqKySAFWuMTFUdqZLTGQo0if+wQP1Apzylz5zTjOiK4hIglW28SUsuaVvqxuapKCoxDjJ7sBzoQsuuID9Duca2UUv/uc/b0taQqR8Z9kJMjY54rC4DVADkqQ68NPcCimtbjRFFVTirv14jZHb9955V7Zu22YiLE+w0ozwgV5A1oP8baoXVL6Un4jIaBk7JlPHe7g6/q0qX82SkBgnCaNS1dGLkECGnn+4fte+8TNyy7iHQ3Svc5qR64SyabrqBSJpR71QoQ4Ez9Gs9+EOyC0ZBApG6E8yDNnZY+XVV18zTszFS6fJDadp0IOH6ALW3oyDjBlo6+yRtTvLzWpr5o1OUYIuuvhiOfX002SKKlGE2FP+1tGYIbQYM250VFKaxCakqBfCosN4CQoO1RC1Vg1NgbRpZ5GOi1AhDg32k1EpY02lCsaEv5yPQQxS8ojmeJWDozEjLLf19EqcdgrvZ7LQqx5gYXGhHCwsUaI9p2y2qbGmIpH1ZRRIPPXUk0bxxEWHyZmzMmV82uFvNMxWQrkljbIxt1SWnnKq8Wa/dfvt6kEvlpmq4HnLKi8O9GQUHI0Z3CJsaemZEqNCSQVcckKURMXES4camooK9kCskSBfm/gGBEqoKqa4+ETti/R+bplfgVuUAX3nbMy4HwZvatIoCfAdmKIqq6iT/IMFZn2YO/Ab5O75zeioaFNyzcszefEgfbh05jiZPyHeGP3DRWljp7z58R4zB8WczlTlid0UZs85yVRmsdckCtQd4BRjBuzRlCoDOErEORglKaq8YmPjVa57NCotlKrKSunUyIBts0IDbRIelShJGr1Z3FLyjJPA7zBwXRmzDuU+LDhAIkIH7p3YqF7vtl17zH14AtySpsZowiCVu7z4lWtMHpsk584bK6Eu3hHnDTirvqVLPtmlXrwaEkrNqUhk71VeSJusjtn27duGNWdmj6jaVfYSJC4xXR2EBEmK1ygmIV58/YKkob5W9Uyh+HS1qkPqr06CKuSwEIlPGm14tRqc8lsoXbh1NmY43hEhwWoIB75to0sdh9z9B6Siyp6V8AScgvDwCHVk/UxVH7LLHF9mcrycNVsdcL2/w0WIOnDrc6tkf2mdXKnyykbDX7/1GzJf9e+0E6YZR2E4c2bwgJyjM5NTMyQ6PkUS4qMlOTHaRL+NdZVSrnqhpbFeAtVIsKlAVHiwxCemSULSIdmlshRukSlXxozPujvaJTFegw8nvZCbX6i6ocKjzsXosjE60RgBBA7j3/72kJnWQV8uPGGs6oVDe/s6wzJmg0wdXdrQ0Stlda0mH71+3TrZvm278Wpff/118yJFdsMYDhAgGjlYjMNBVXxFZY3S3KoRW0u97Nq+QbZu+EgO7t0qu7esk3+//oJU1qoAd3WaCWw6kcZgxTDah9bgQYmyyswarV6Hk1D5+Uv66LEmJeANKO9nTRUDlNQCHhkKqbm1Q0prm6VNI53DRX1rlxwob5DW9i4T7SFw7KTA7iJ/f/hh89cbg+sMjIHFU0FRudQ29RivbN+BUln/wWtSum+r7Ny2Qd5/52XZq84IOfPamkopLLCfQ7/wfcfB7gjmGWbNmtn3r4GIio2RcTnjzAByB36bEmk2xOUvhpy5ydGjs8xn5dUN0tnlWam4A5vgwh8VWXBJNM5u+S+++KLZacVTZO4M7osBa03Am6q4yib1PDukvLRAtqjc7t22Vgrztsv7/1ohGzZuVSVJ6XidFBfm959jZTKG4pfdUFKSB25KDEiLEr16A9b2UPzBmirWaTIdgHKAD94UXVF3+AvG2R+wrK5NymtbDLcUGFF1iGJj/R7cMtk/HMAFjbk2I7sFxVJa1SLt6kw31JbL5nUasW9dI6X5O2Tjmndl9co3pLnNpt46awjtckujTzFGQ3GLnMUk2F9p5QzS3syDeQPkliIi5iIxGLxzjFRrZV2zlNW3mbeNHC6Ka9vlQBkL7TvkmWefNUYe+WXj8Qcf/KNsOoyXnsIJOheOcHIKS6o1qvaT3u5O2bJ9j2xd84Zyu00+W7dKVr/3pim2QbWxts/iFp3rztCjcycNIZ+skSSz5wkYSYwmRi03d4/RRRhhHPTuHpvKRLM0tHmexhikferae+W9raWyK6/MXIQdmFmQhtdDx91ww/VGwQ8HKDkanj1RHS+5zN+3Sz2DKun1C5emDjV0ddVSVVImzVWlkl9YYzzRtuY6sxaCFBTeFsSicPFyXQECIC+wbyLYV70d0j/YBqr4GOzeAI+e1xCwboqNaSdOmCizVDE0NrfK25uKZMP+OvMq+eGCl3N+uLNS1u8oMsLKgODNwEQCpABOVa7POuvMvm97D8sLQ8nAU+6enVJWWqSC6WcUa2VZjbTXlkhNcYlUFFdKU0OHRrEtUlJICfkucw5luwjtUNz6qUMwpU9ofdRbMtxq4/+5/7SMdI/GDOFkZwPkh/TJu+++a16zwv5+eH6fbC+QNbs1ytHofLigj3NLmuTfa/YaxUtKyni4qsiQY5Q6b3HgXr0Fyo9nQuZwquBp/96dkp+3U2y+YSoD/hqZ1UhlUZnUl5dJeWGpNNY3q7Jok7KifJXd3f3cYswomBlK4bLodJQ2gMxa/DLmvB1vbLNEqmbz5k3GQcKLvvrqq02/7i+pk3c3FkqtKawYHnqU2/zKNnlXZb+kst7cExWMZAfoN7imaMpbo2ABbqEDY8YYz1VZPJi/V+rV8HbagqWyoVOaayuluqRc9UKxlFXVqhPRLY21ZZK3Z7vhloZesfrKFdAJ8XpvfMd8D7ntmyZg/SkK2ROIXNgWDKPCejEU7hyNTkdnZup91cnr6w7KgapWs/3XcFHT0imvrS+Q/cX2AprTTz/D7K5CxEnGhLdjwPVwAR9wQ5Xpnj27Ze+eHRpRVUuvb4jqN3VMClVuy0qkqki5La2S5pYOs7bvQL79+/QJcm/9litQW0FKEMCpJbd0LBssEAR4AtMeBAxE7Zs3bzFGFLk12SINXtZuz5d3tpSpnXAfRPiu2V2lCsTe3ttRIY/8J1eefmuT2RuQfClbOiGwVILRmAfAOxkOIAIliSJxVJZUhfn2tkqnRoIVNV3GAnd0dktosE2C/Ht0EPaaV+kzGPkNChusNM1Q4BpZE0bLuGk5puXQJud4RaoFBJ6NcEmHkCpld3fWeuDhbtldLH99bau88NEBY5gc+aPtKOuUbaUdsnZP9YDjH2yvkKffz5NH39oqB0rtO4uzcp6IB4EjbCe9N0EN51AKbyjQPxgKvBvA6b7SpVqoVd2zHqmu75SD5RpRdnZJeKCPqXS09ahB6/bRwWfnEkeA6/I7Q4FqsaxsO6eO/Kamxet5Q/eJBX6fFDLPuVC5JYXNkgDSc1y3uLxGHnz5M3l+9X553wW3tH0Nvi6Pv7q+UH7zwgb5dIe9GhTFSoRCdgF+8VCnT59mnLLhAFmDX5qRO+W2l4mXnhaVhy6pa/Gxe45NbRIS2Cth2uAcA9jebeeEc3lmHIKh+pYUTVJaUj+nht+pOZKRbS8w8Ab8PikaXpTJMgrmXjDkoKauSV58d7s88q/d6qxWDOLv0321skMN1obC5gHHP9b21uZS+esb2+Xfa3f3pQVHmVeM8P9ERXCL0+D8uhtPQBdwz44OBvO+vr1tZm62pZ1ovV0KKvTf+r3QED8j1z0qs929dk54Pqt/3CF+VLzkTMkeILtjJowx85/eAL1DVogKzkWLFpvCIuvdXxx/d12u/En1wttbywbwZ7XcGps6wQ2Djq/cWi4P/2unvLByq4me4WTWzBkmSkFukV92MIHf4QA5s7hBjyO4zPva1NGiWrRHPZTiymYpqcYA2yRU9a2fj3Lb22PWpOohcy/0DfKHnhoKERFhMn7SGCOvFrfjpmbr2Ha9y70zsCk4FczDohPZRQl+cZoYy6XqQD325mZ5SvXnKhd6YeP+emlTx9JvV2Ht3au3Fgpt1ZZCWbNFQ8tq+5oq8zDa2cwdQQqKgNL6T9etl9Iyu8UeCo5zZhDLTZkBrgOgvaNDFWCmpGknUcre2t4kJaUHpbmhUa8VIEnJsXLSSXP0MxZo2zuA34uOjTfKD8HiN50LQPhsXE6OeriREhRi36Q4kHJR9Yh9ffyksKhUPSrP68zwaFmUSRSJV0PFHSkVBi2eAt7pjnxVALtLZPU2O3dWa/SNlS0HGmTFu5/JB5sPHvpMuf1oa4Hkq/dlT5XatxDCACFsNLhhHQgekSc4zplReUR6AmPLJHF8fIIpYgkNDZOQIF8pzN0sdQ2t6gz4mfUZOWbbpAS9ZpB0tjaaIobklFRzP/we3LpaZ7ZgwTwJDuxRmbAv7jb8BgWqA8I2YW2GK3cpUmSgvr6hn1saz8srhRi0ZtF7bZNsPwC3pfKRE7cfbSuShHFz5PePvzbgOA2ut+WVmv4ByCtKl/uGW2SP+9u0aaPhyh3gwCoA0f9Mf3E+RQIs6h+bPcGk/zRMkJqKArMVm6oKiY8KlaknTpek1HSVUd4k3iPdnR0SGW3fxQN+LWfBec4MwzNx4ljxV52MzBp++auyXl3daDad9QT6nrQqfQa3bA7OvBlrDwFrxfYU1cimvHL5aHvRAP62HKiT6u4IWbW5UF5btfXQZyq3q7YUyEZ14pi/A9wbzg/Pw7jk31yP+UgUsDs4zpnBL7zSUN4Y9NFZY2SUOp5BQf7SVFuiY7HYlH7HxQZLtp4zbtxE5SjQGLuerlazySy7BTnuVEG05jhnRuQ4enSmRMeEqPGx9AKFMOq8aX/u2r3X41wfv0U0Zsku8znr16832RC7Tus00e921QsfO3FLC02eJC+9t1ne/HjngONwu3Z7oVTW2KsquSdLVtBzNPQcUztWlOQO1pyZxQUpcvRje3ubGsRMSUlNMTrXXzolb9sG6exRHR/iL9lZ6TJuor0AIzw0SJoba5SbUDPVwi4rvB2Ae3OeM2Od2YwTNUIPskmwfo/rGn6DA3W89EiRRn2k6N0BndHa1mr0K/JDQ+eiG+wFQvYNmXcdrJbPcsvkQwf+aDsKG+TEOYvMxNOQgTEWGVIHeLNKOBelQMIdEC7H7ay4IetGCzSMnKKE02kQvWvXdvngnZelvaZUmlp6JDEjWa5d/h0lKlYfptWkaVgLET8q0ZxDBwOUvuN2Vuw4T0cWFuTrwD702nmuzWao7EH28cdr+o4eHQxnOyuUrBURWbDWhXiC43ZWDALOQcBIxaIwrAl20okPPfhrsyN/TJAO3rB4OWvZ5Sa6RugYlO0d3cLLB+HW6mtX21nddONyee21l4zScQTVZ4mJSea7np75SABP3m5nxbPBgyO3pK6RFXcGF8CptZ0V3KKsOA+jgINHKg+jVFlRLus/fkfWfPC2BPmp8lDjdu6XrpPpMzWaVxll01leIJuWbk9l4bhYUZbzdlYLFy7U+42UHdsHLo7mjdxZY3JMscHRBBP+3m5nBQc8i2M0hEGCI0/9T8rUcTsrzkNZ48yQ+SHygbuOdh2rH36g/P5H/DtbpbapU+YuXSJnn/dljdBCTGrSzK1ExkhsXLzpa+4LOG9nxdwWVbTsNuTY9736+YKTF6nS3GSM0tGEt9tZIa/oBHs0ZQcyiM5FDj3BcTsrq08sfuEe2cZA1FSWyh9+/VN1DPwl2LdX0rKnyunnXWzesUiBC8YzOmaUqQi2AgjgvJ1VZmaGLF26WFa9/555w3c/dNiNHz/FGDKcNnfgmRkXA85XWFk5T+CZPG5nRcejJFGQ/U0jM0+GzBW4WRQljUodlA1koyAKCoolJDxJwpMmycSpkyQ0MlV27MqT7l59SH8isgSJ0aiMTua8oYAwo5CjY+LVWzvUYvR8jrlbVPl5AKEi0nXk1xtD5gyEAV6JKFBKlhJnwG/ZukOCIlMkNWuiZIwbL6Hx6VJarsJdp9fxDZQoFdh4E6XZo0N3CI+IVC4TB3BLS9DzeQmmo+H4vIFSdeYWZenJkDmDZ2Igww3cIl/IMk7Ytu07pKndVxJHT5PR4ydKSvYkKa1qkPLKWrH5BEhIWKQkJaf1O4SWIXMFnAWWqjhzi9xGRnq/4P+/AcYtXDpyi8I8HEfGZH9UbhnbpClxEuA2b1++1NQ3S2T8GIlKnyqZE2dLc7u/7NtfYOQ2MDhc4hNSjEzCrztu6b84NXjO3MbEqSxHxeo1h06h/bdhGS5HbpFjbwyZM+AWucPxQOFb45s5qZ278yQha7Kkj50gGTkTlaQoKSwu1whJ+1D5pXI3So0Y5zs6Lc7AsY1UhwIdPYDfqHhzTcsIugPPjEyxTMmxeWPIHOHWmCEgCIrlhR2psuLB8FARXgTfaghwqnqvmWPHS1rWeEnPHGOOk97hLwaMAR0aGuJWaHl9DHuPQQLXcGykB0i7eALPyPPS3BnOkQDCBR8osiPlFg65Z54VYCiJRBgEGZlZkpU9QWJTJ8j4nAzzXbglCuQZOQfvy9090A9vvvWvAZxaram5WT5Zt64/fToU+H3kiWdGFo70md2B58KoMxgtj/1wgcyZ9Is+K+MAThl8cBIZFS1jx02UhMxJkj1+gvZpgDkO9zT6hHPdKQTARrcHDhYO4pZd09esXdf3LfdAjuAWuXI3To4U8GnJGrJ0pKCPrHGATFr8MZcyWqPS1MxsmTg+Uw1SgjF0fI5TYtcnkXqee1liKzCiOGTPmd9PN3wmxcWe03c880jJkzvwHMgL/I6kzuXZLV75y64iOeqApY6eIMna0lITjN7kMxxqR47c3QMOs33JwkBeaaS7eXO+JyCr9D1j9kie109PvpsfcPUjTCazRufyy79sPFLI5YLWYHYHbs6aM3MEwm/9BgqX36HxQGbA+wZLcEioERy+i9DSEQi2c3rLec6MjiCni+A6N2vjTE/gWt/73vfM6nsW3nJfCC9C4PzMFm+OzVoMyvW4d8fPnMGuKl+94QYzwctkcqDyQmjtab0WcJwzs8B9Irxcn2fl+vw/14ZzdqcICAozLxxlkTTPYwm78wB1tc6soqLcJbeU/ZLO8ORJcS22r7K/DTm+X56sAeYMR+5o9MXixYvMTtzOnzmDNCovOaSAyRooAFnxdJ9was2ZWeD/uX/OReHyO5bc2mU6UPwCQlQJsQg90nDPcbh1Zcic58zgu5Dy6UH8Fph1bN6A+ZKv6X1njc02xVI8M/dojQ9HOHJHIw2Xmmp/BQzjyvEzZyCv7KbC63iiVPGyTRk8cB2e2x0Y1457MwKuAUfIIHrB/jv2l/X6KYeMCx+/YNMv8Mn34Y3/x3DzBghHOM+ZoWdYHjGYWzbELVX5cz+HCqiIJIXHWiiu6U6eHLmzmv0VMHlmnDgedwa/e+ut3zAL3uGKf9MYI56cRWDNmVlOBtfgfP7Nb8AFvKJnLJ3LfrhBwWEDdC5cY1Cd79F5zozfZC7PFbc01v56ArqA54Vb+1gK0HuwG1ZnOHJnNe6V6k+/RSeOvTszKUZoo2LD9cECTIkmHcSEPLteMJHOGovrr7/eGKddO3eaRW7uMJQxA9wwn3Mj/D8kslMFBjNer0U6x1IC3OhQnqazMRsJ0JH8HrljdgG59tprzeQ8gogXAsLDgiUrNVZyMkZJVkqsckezczhlXIbEhml479cj6YnR5lhGUrQkxakHGRSghqpH2F8OYHAosDn99NPMrhiUpzY1NspOLyJIV8YM9Aton4KBR3iluo+/9GW08g2nlqfqbMiAszEbCSBTFF8k6D2cdfZZct211xnFRtoDZcPnFD+weXNOWryMTY3v59XeomX29PHSXFM24HhKfIQq1VBp7+Lt2vYBjxJnb0e2Abr6mmvM3CpeNV66J3mBE2djBvg3Bg2Z5V4Z7Ba3NHsaMs5wS+NzvusKzsZsJMC6TMbV/LlzzVunmb9FIVhrlNhOLCU+SrLT45TbOBmdfEhuxyjXORmJEhFkk+hQv/7jGSrD0REhZg1VW7vdyUKBMU5wFOzO7uXGwMGtpzS5K2MGLF1gGf6goOABcgu3yC5RC8/oLnJxNmYjAbsjazPVdpToL1u2zMgTeyZaawjjYyIlOyNOxmck9PNntRlTs9XyNUp8RFD/MXYOiY+2R3rMW8MpwOBQtMJSkmtUdjGEjEMcZE9wNmYWHLnFWJCJMdxqg1cMCpzCraVzXXHrbMxGAlyTez777LPl9NNOMzYjc3SW9uMu49wAdnbKUD2bkz5YL4xOS5AZs04Sn82P3dzf403t3bLlQLU8/MpG2bGv2HhE07XzUJo8rFUe+sc/el7EhxJ1fp+ZKyAkDDj+0pkQSOdCPs0VoRacC0BGAlyTsuYTZ8yU2Bg1RhkZUl5WLo8+/phJU8ZFh8u58yfIOQvGSnq8dnqA3mPfuYANWxlDbJprgbUnLZ1dkl/WIK+uzpP3PsuTppY2U4K6dOlSM4nKgEXAXnnlVbMI1RLsoeD8PjNX4Dfw5uCXgU3DwLF7CgLt7NE6wrkAZCRAv06bPl0WqTJjAOHtYhxYiL9mzRrD2WlzxstXzpwiY5OiJCxwsJH1C+A1KwMj5C49r6y2Td5af0BeeHeLNDS22B2wc84xC+UZtKNUGTJ5zbU8yQucWgUgQwEu4RV+rb6yZBduXTkIjnAuABkJMMGP7KIIUf48Ny92fPzxx40hm5qTLlecNllmjVPFFUq1pZOx1uflUC8Ly/qALFc0tsn7nx2UF97bLoXldUbZYZBwqGLVOPEmbwpH2DDak8J1LgBxBbh1lFs4oi+85da5AGQkgOOHQ0/0AK/ILtWbzz33rCr4cklPiZMrTztRFp2YLMlRg5d/+LHetcc+Bi2wHrK+tVO27auSFz/YJZv2FAmbvVOwwsYNOH30I+c89NBDpsLPE5zfZ+YK8IJDwl9+G25p3uhc5wKQkQDGDF6nqzyxWQXFgfQ9axdxckOCA2XRjLFy2ZJJMj49SsI1KHBEa7ef1MWcKH4/uWru3WFBvkKLDfOXcUnq5UaGy2e55dJj85G5c+eZC+E9s0P2M88845W3zg0OFZk5wiIRr4EO4K8lsO5IBUcjMiPdh9CyJRQeHgt7V6xYYQYp93m6KttbL5wu0zOiJSbUX4m1c2c1tgsKC9TmcIzvxIYGSFZCuCSPipLc4npT3o+XB0fsur1mzVp58cUVptzXGwU3VGTmCEu5wqkjv+7WO1k4GpEZe2eyeHnylMlmDpNtrJ5//nnjJDCwxmWmyN3XzZd5OXGGW0cOrRbqP5BbWmSwn6TEqHeXFSf55a2SV1QpKSnJcrYqTCKFzRoB8SZkDLM3qeahIjNHWNwiqxa/NGTEnRG0cDQiM3YKYbxhrNkSjbHx/vvvm8/SEmLkxgtmykXzMiQpKlBl0m8Qj8itkV+HY8huYmSQTEiP1ejMT3bkV0poeITJIsATY4S3Ar/44oteeetDRWaOcObWkltvuT0akRmO5rJLLjWbKcAtu8pwjbq6eqPrrjl/tlx3araMjgsZwJ/V7Hph4LEItuyLCDTb44WGh8mmvWXS0t4lp2l0kpmWLnn78lROPjD96K3xGCoycwQcOnPrrc49GpEZjjxR2ZQpU6RKdToOGHrBeoPI5DGp8oOvzJFFE+NVL7BB+kAeSXO73JuRNUtResL2ggazNVC6erbbtm8zYSdpC3YZoMjCk1KAMDoZQ0PeFCPBXINVer7uk09kvXoa/Ja7xgNBMA9lnU+1D4KEZ8QOHd7kkr0Fu4JjKPDu+EsulpQja0tCgvzlilMnybwJCYe1fyByEh0WKKV1bbLzQJVZN3NAPdpSFZBLL73UXI9n8yadQIoD74UUBzwTjlv8WOuLXPHp3Ogn+CW1wbmU8BJ1f/TRx2adh5VaHQlQNcZuAWxZw/uKLrzoIqOAqWjluuctni6Xzk8/7L0ZQzWS67T5yzvr9qozMkqdsihjMJnbWarKl3kYNhr2JC9wQiaCfoBnvFiLW46tWrXKbOfkik+r0QcsKOZ861waBowJc7aHw+scSWAgUDb8LvupsjC9XpVOsfI7PSdZrj1zsirPwytqCtKI2EeVxqb8arPYnogBRw9P+lRVvvybkn5P3KIwUaDoAP7fcVxTtUd/IX+uOHVsVVWVRmEzBjgXfYSuYNNqa13oSIJCH9ZuohcuvOACsx8lRgCnjPfpLT97soxJCDNjfLhA3lmj+OmeKtW5jWZMrFnzsdkViFTj6KwsKdU+ZD7TE8iIwS28wo/FLcfgBX3pik/nhoFxlHtenMq5lOzTP944hd6C1HGiys/6TzcY5yAjI13amefUsYYqOGveBPnSwtFD6gVrb0afkhXfGOS+VDV2yC+f2yjvbToo199wg0n/sEJ7z55cEwL/Q63mW+qNuQMKktAcTwwlzYpuCwg8pFiLOd2BVeQzZs4wD2sBA8l2PShylOBIemAQy+tC8ORvuukmsz8aEdQ///lP2Z+7Q356zQI5e9bwVuM744mVefK7Fevksi9fadbMUAJLNIZ3hODcd999HpUCShLPOCc7W/mZac61gCJF2XoDojtScZZHxg7XnMvbkjGsIxn14hAR8XDfzGcxJ8vawPffe88oiVu+tEhuP2+cBBzGGwksvL+7Rm74+QqZfdIcM8e7Rb3orDFjjFFmhwHeSUW5sztgzEg1YtBY/8V9W8BYYIw88cJvkEZ2fl0SigDHCM+Wvh5JMJfDeCPNiGGgT0m33nHHHXL6nHFy301LZFS4+xSdO2wtrJe7n14ntc0+snz5ctUHu+WUpafIajVAixctknvvvdfInjtgwBhjKEuidNJ1FjD+cMtfT2DKg3HJbwF0APoEY4hj5s1vDAejs8bKr+75pfzjH8/Ll7/8Zdm4aaMkjkqQRx97TML9euU3N82TCWnDe72QI7p6bPKdRz6Vt9ftNmspMZLID89EMRP6Dp3kCcx7wcms2SfJ2DFZfUftOhdj5K0DxauoHOW+srxCNm/ZbCrGifw96afhACfh/PPOM1XROGSMrUn6zP/zox9JRVmpfOOyBXL7BUPvOtXY6Sv7A6e5NmYlNW1yxyPrZMveIrnpxptk2aWXGAH59b33y+3fuk1+cuedsslLZcmAInKgWUDwsOx4VZ6A8LOVFDl/Cyh+FO1IGjELoWqAeX8QIS8K6fvf/76pbvzxj+80Xvntl82Va08bp1GA53SHK9S2dMl9L26UFSu3aWRysV0BqTF74sknjGKnAuihhx72+tmIJOHHMkbAqhT1BjgceJgW4JZz8cpGGnjk5MHZMxHP+u233zELkN94/XV5R738y06fKfdeN8u8huhw8fh7+XL3I2/L1GnTjVOAMic1znPCKfO93io6PFvOQw4sILPIrjf9w/PidDgCAwa3R0N2UUDIE5497xcjFUjK7c9//rPMnpwh9yxfIpPTDm/NGvO+7Jv50yfWmDkKfh9DjXJ88sknTaEC8+OeHAULcAo3jk4YqWa49Waui/NQtugHC/A6khGDI9JSUuWhRx428oDB5p18J0w/Qe6//34dezb5/S1LZcGkUSaSOBwcqG6Xbz74juzYXyF3qn7lNT6METZ3Z3sy5tHJtngDdAEvFWYXGgvIm7c6FxDhOco96754FZI3fTNcYLSZR504cYI6e5tlszp8Fy9bZuSJat4LFp0g990wW0KG0Ln9xqzoxUPGjD26Wju65XGNHP7wj4/1wbtNtR3Wnoo+vFuioYry8v5tg75oQBDIj5uoJydb2OGfQYJHjqKfNSlTfnD5HJkxNta808zRiLgDwsS2Ue9uKZcHXlgv+wrLdDCzzizaeKkoXRQPAmdVR33RAFfwykAh8kEh4YHi6WGAo8JD5J6vnSHnzEwxr34YDrco27yKFvnuX1fL9twCY4iYqE+IH2UGdb1eg3w8TpA3c5L/F4Fyh1siUIp8eL+cNWajoyLkqrNmyVfPyJHYcP9BxR/uQJl0cW2b/P6VrfLK+1vNlkFcB8VO1LB7zx4zlcAc9heVW4wm8oQuZHE3cstYtRyj80+ZJj+69ERJigkZFrfIblNbjzyxcq88+sanUtfYaq6BDkIn8DkOA2NkJLMkxxJwptM10k5PS5eOzo5+o8k8Ic+cmhgjd1y5UC6cleZS5zZ2+siBoOniN3NS1t0FVa1C21JQL09/sFeeemOD/miXEVpOxJBRmUjoV1vfYLbogeQvKhiQTKLeeuttZqf9kpLS/pRoWXWD5Ja0SG1HjzR39EpRdZvhzmp1XX5SWt8p+0oa5GBlS//x3aWNsmJtvjz51hY5WGJfN4SzQLqEnfJv+frXTXqP9JO3UdX/RSBPpBWIzpiP3Ls31zwzQtvZ2S0bcsulmrcotPea9+k5clugXHcEhMvO/ZUDjueVN8nKrRXy4MubZfe+QtN/NNIt55x7jlxyySUmCsjbt8/MHXxRQeonKTlFzjrzTLnqqquNot23f7/hlr0D9xbXSVGtRi9dvVLR0CGFDhwW13VITbuPft5uZNc6flDbx7lV8tjbO+XttbvNNRj7bA6NISMlxhujKyurTGrziwqemUibaPdrqgvZqLesvKL/De15BytkT0mHdKvRq2ns7OfPai2+IbJfdUB+WdOA49sK6+Xxd3fJy+9vNxsN911Mpk6ZIl++/HJTLEP5P/NlRyNbciwAw4XOo5CDKm0cB4pscMLgtrm1XbbpmFe6VHZtUqoy6shhSX2XBMVnmVSKzWqqaLBQA1pMTIzttttus23atMn28Zo1tl//+tc29agHfe+L1NQzsv3qV7+y7dy507Zy5Uqbhrsuv+fIndXOPfdc29JTTrGplzzguHaQy9+4/PLLbW+99aZNPT1zzcmTJ7n83helqUdvU8fItkZladu2bbYf//jHtszMzEHfQxYd+aOpB2dT5TnouK+v76DzaXPmzLG99uqrti1bttj+9a+3bCeddNKQ3/2itIsuusj22muv2TTKtz377LO20VljBn0HWXTmUKM52/nnn29TJ27QZ87n09TBtd177722/Px8c71rr73W5fe+SG3cuHG2F154wbZnzx7bihUrDF+uvufMH+3WW2+1ZWdnDzruSh7RP3fddZdt7dq1to0bN9puv/12W1JS0qDvfZFaTk6O7f7777ft2LHD9uHq1bbly5fbwsPDB30Pvpw5TE1NtT3zzNN8PvDLQ7XzzjvPNm/+AjVkgS4//yK2yy67zDZt2jSXnw3VzjrrLNviJUu8NvgobRTD17/+dZeff1Hb/PnzbcuWLXP52VANru6++26Xnw3VMJQXXnCB/s1w+fkXsaEYrrjiCptGpi4/d9USEhKMcp48ebLLz4dqN998s00jbZeffREbzj2GOz093eXnQzWMWVaW9zxp5GtbePIi29lnn+3y8y9aQ1+mpKSYwOGcs862RUZEeu14JiYmDs+YHW/eteEas+PN+3Y4xux4864drjE73rxrwzVm/z82jFd8fLwtLCzM5edDNcuYHX7Z2HEcx3Ecx3EcxwiBeW6KiA63ItVn6dKlWLfjGCGwAwOVeTt27jSbeR7HyEEjM/M69aeeeqrvyHGMFKiemzRpotmNht1+jmNkcdFFF8q6des9vqjyOIYP1lbecsvXxGfXrl3HjdkIgtJzPAyqc77IFZ+fF1jIjPd2HCMLf3/7G7mpmPuiloB/nkDhUp3n7Tqv4/AeyG5CQoL8P981gqrG0zRcAAAAAElFTkSuQmCC;rotation=-90;" parent="QIXlH9156Hlg0ZABz43d-1" vertex="1">
          <mxGeometry x="525" y="479" width="435" height="46" as="geometry" />
        </mxCell>
        <mxCell id="QIXlH9156Hlg0ZABz43d-15" value="" style="endArrow=none;html=1;rounded=0;strokeWidth=2;" parent="QIXlH9156Hlg0ZABz43d-1" edge="1">
          <mxGeometry width="50" height="50" relative="1" as="geometry">
            <mxPoint x="730" y="290" as="sourcePoint" />
            <mxPoint x="730" y="240" as="targetPoint" />
          </mxGeometry>
        </mxCell>
        <mxCell id="QIXlH9156Hlg0ZABz43d-16" value="" style="endArrow=none;html=1;rounded=0;fillColor=#f8cecc;strokeColor=#b85450;strokeWidth=2;" parent="QIXlH9156Hlg0ZABz43d-1" edge="1">
          <mxGeometry width="50" height="50" relative="1" as="geometry">
            <mxPoint x="756" y="290" as="sourcePoint" />
            <mxPoint x="756" y="200" as="targetPoint" />
          </mxGeometry>
        </mxCell>
        <mxCell id="QIXlH9156Hlg0ZABz43d-17" value="" style="endArrow=none;html=1;rounded=0;fillColor=#dae8fc;strokeColor=#6c8ebf;strokeWidth=2;shadow=0;" parent="QIXlH9156Hlg0ZABz43d-1" source="iqJlMScNOUQ2KsEhBfKo-0" edge="1">
          <mxGeometry width="50" height="50" relative="1" as="geometry">
            <mxPoint x="160" y="710" as="sourcePoint" />
            <mxPoint x="743" y="290" as="targetPoint" />
            <Array as="points">
              <mxPoint x="690" y="260" />
              <mxPoint x="743" y="260" />
            </Array>
          </mxGeometry>
        </mxCell>
        <mxCell id="QIXlH9156Hlg0ZABz43d-18" value="" style="endArrow=none;html=1;rounded=0;strokeWidth=2;" parent="QIXlH9156Hlg0ZABz43d-1" edge="1">
          <mxGeometry width="50" height="50" relative="1" as="geometry">
            <mxPoint x="40" y="240" as="sourcePoint" />
            <mxPoint x="120" y="240" as="targetPoint" />
          </mxGeometry>
        </mxCell>
        <mxCell id="QIXlH9156Hlg0ZABz43d-19" value="" style="endArrow=none;html=1;rounded=0;fillColor=#f8cecc;strokeColor=#b85450;strokeWidth=2;" parent="QIXlH9156Hlg0ZABz43d-1" edge="1">
          <mxGeometry width="50" height="50" relative="1" as="geometry">
            <mxPoint x="40" y="200" as="sourcePoint" />
            <mxPoint x="170" y="200" as="targetPoint" />
          </mxGeometry>
        </mxCell>
        <mxCell id="QIXlH9156Hlg0ZABz43d-20" value="" style="shape=image;verticalLabelPosition=bottom;labelBackgroundColor=default;verticalAlign=top;aspect=fixed;imageAspect=0;image=data:image/png,iVBORw0KGgoAAAANSUhEUgAAATEAAACRCAYAAACrDo8yAAAAAXNSR0IArs4c6QAAAARnQU1BAACxjwv8YQUAAAAJcEhZcwAADsQAAA7EAZUrDhsAAABhaVRYdFNuaXBNZXRhZGF0YQAAAAAAeyJjbGlwUG9pbnRzIjpbeyJ4IjowLCJ5IjowfSx7IngiOjMwNSwieSI6MH0seyJ4IjozMDUsInkiOjE0NX0seyJ4IjowLCJ5IjoxNDV9XX2Vk8UdAAB8SklEQVR4Xu1dB2AcxdX+7tR77829N9wwxqaYXkIvIYTeOyQhQCChl/CHUEMSICQBQhqQ0E0LYIppphiDwV2y1XuXTtLd/743u6fT6SRLlmTLtj5pbndn3vQ3b97Mzsw6PAKMYAQjGMFOCofb7fa4LTnmdOhl2KJT3PrKXQccmm6TeJMXD231arvT2tCNYFeHf7fsdndI3TutJ8MT9tW5CzKFyb7J366XPYfUr0dy55a6C5L8SR4pxL5eU47n31wnUswJh13HA4QpSAMNcxCgCfe4ERwSgvSEcORmRCEnPQwxUSEmEkl3Y5MbhSXNyC9uRkllM1pcLngks4QRbCPY1UEWF1YHIsKA4CDhGjdSnTWYlNaKlBg31pSGYH19HJrcYdIQbOG2q8A0NndzK5xtHXK3Y3heU2FHPUjtX8Ew3W6cdfxUZKXFaOekQuw/r63Bz+96AY3RLWgLcg9Ktu10h7QFI6opfNt7BA2ITAlkp8dhvz3zsHh2qgiwCASTQd0k8C0toZXIqJEVlrbgo5UV+N/yfKwvqBJWNpTqYzAyOYLhC6n/sJxsJCdG4Ij4N7E4ahnaM/dBVkosNq7fgPbazXim9kSsahyDYOnkdhWNzLQ7D0ryS9BRU71D+NzjobrgRp3IE3eQCNJBSgM17GCRJ9GNwXjm92dg5uQ0besqxJ4TIXbR/c9h/P4NGDUueHAilQjZG361wo2Kz+IQ5ZJw+wlWCDWv1KRonH7MFOw7J1U61yB0UBqZCMzFp6bsKT4pR1XOnE4P2joc+HRlJR7/72rkb6kSN9IPRiZH0GdYddUjxE3rzHocGKQjE74Jz83B2WP+h0VR72vDas1cgqzUWGxYtwHxjV/C5QnDHyvOw/qWUSrEdgWdjFooi7m0gEKsRu52BJ970BTuQvY+DRg3gaU6CBWrvOPBt1+5UfVRJF6872zM8BdiFz7wHBYc04iZ0+IQ6gyVOAcWK+Ns7WjEG+81o+CdaES7ZMjXD1AYhUgCD148FucePx7RkSIExa5zbqN/8AhTu9o8+Purm/DvpavhUkm4Iyp4F4bUT1BQiBhTrnbnYvUrBmLlEAvatba1WZbS2QQFITRI6lb82B2RlwetC62pYbeJPyvowBAaxjFlXBB+MfHPIqA6THwZByA7NQbr120UIfaV6AoObHHl4DdllyJI7s2kw84NU3KiidlCrNeC8oHxiNCQEAQ7dTDeA8yoqF0ULFd7mzyZkU8XiOeGiFZMOaIRC2ZFizyJsBwGhmZ3Ez74oAn5b4XhpXvPCSzE5osQmzc9EeFBkeKlj5nvAWSiho4avLasqf9CTPyGhwbj0lNn4ZCFGbZV98LqD0wAwtAefCha2W/+tAK1ja3GbSDhjqAT0lHsOz8Li2ZGmOKmlVzJ6O1t7UrS6nKhvq4W1fVu/OcNaWgdtPdg7ow0zJ4YLkIKSEpKEg1amFM6rJDgriODqlo3Hv1PAdrZinqqN0YqOH7qWpyUtwxuoaNVICHW4QnG7aXXorotWjrNnV8XMznfFiFGnw6cdEgeJuT2Nmoymt73+e145vUCfepNiO29RwIinFF9TkZP8AhjNHrq8O77Dd2EWGeteWPhtWfDDBhZ3FfTD2jgHhkyhuIX58/HIXtnyqMpXP+C0jcUJjH6Y56NURufe4XlnwrYXtOTcfuVC5EQMzg9xAgsSHGHhzoQFx2E2GinmCDExQQhMrwDNZX5qCrfiC8/exc333AV7r/rp9jw8a+R/+k9yP/st/jvX67DTWJ/6y9/gsLNq4V2E+prtiA6yqHhGOMUjdwanljx9QwH4oMqeyVhKE5HG6KcdcZiNwfLIzLcgRgpc2OcAU1sVBAihE5rwaqKHrEVucJhvq8JRKNGw6HpDhVivk58bWnb2PH7yg8mvUtQvoJiwPDokOLK0/fAXrOSlUl7HT7KMIETX0wfRyJmNELhpZNmAUFhyCHJhLwo3HDhPKmM0EHOw+4L1oPNHSxn0/FIffBXelJ2Kh0dHWgTbay9zSWW1MLEyLWjw6X2Lr5NdruVlvWiYXrD4lUuWwWJ3KhuT+nKq90gGqI7FA3uOCv83RmSf/MvP7wxZe5v5If/VrnKvV63HeQOrjqwuMRYWmA8Nnjv7CE2JxOmXoVheA1xhvFJYbdt+xoQzJQS9Ea0FdC/GCbxmAPGY8n8VGXkbhAam7mpUeUXtaKgpA3rCt34rsCNtYUebKnwIL9YGkm7SU8XbcwHjGvmxHicc9w0U1gDSP4I+guPDBdN5+SwrgaDVQnCSxLUypYpcCHEBOvHB4bbgU2u0ahrj9olJvV3GvjIIn2hIooKryokfdC1yhwIl2GpuTN0bquz89ZdmKvFOPU219AD2jxt3oC3GZLgMTmJOPPYcVbiu4dH63YKr+JWlFQHY/q0MZg/ZyyW7D0WB+wzFvsvGov5s0djj1ljUd8WhfwSCjPJjx9Mj+IUQejGMUuyMXdKpth2KbERDCmcWLBoMSZOmYZDDz8CM2fPRVoG62CQQNaROi5sS8L/6g7Qmg307rHZHYnnao8UgUfXAfLvCPoIKedtbGpmlEjvJgCPaPNsy96abQ0z80OOICHsQXvpCcHOEBEIZuJ2W8DYgiQx554wFSF+b7YMjMLZ1NKOokpgxowx2Ht+LpISIhEuw0GHM0iGklzr49S3K3Ex4Zg9PRPz545FbWskahr4FoyaHU1n3ij9uc7swpOniD/z9nME2wNu1FSZNUzUyGprqqX+BlsX4lDUiddEiL1YczQaRWBJtyVNyAMuf93cmodHKs5DmSs1gHiTzlJ4od1jenoZ4Opzmzzbu1vahW/a5J5/HZZ7h/1s3Rs7t9LpW1W5b5arSzpPQ7u7gTkevFwHhxuZ1b3+ugiPvkKkoQgRUy39TKSQM8bJ41NEI4oL4Fts5L+pqQM1TRHYe24e4mNFcAmDGmPU0EAmIixEhVlIRCJq6gMJWZPXvMwI7Ds3R+JhXN1T4Au6KgVJ9Y/3fPA1FtFObHjxPg8yHNKjctdFXV0d8vM3obSkBJWV0jsNGky92trVW3V74c7Sn+NP6/bHA5/Pwu8Kjsf95RdiQ2umdnxm3WBX0OaQOWkIiwjW6ZLYqFAct1cGPE6+0fRgbGY05o1N0LepkaFBOG5hOqLC2BHSrwdjMqJwzkE5OGFxNiLDzdu+GaPjcO6SHJx1YC7G58SoYNu9RFn3ch4MDGL3x8rdFm3Mmgvbf7T8dgomL6SOW2UMWdcSir3mZCEkNFQEpjBWAMbzBwUr51wmj0tGWFQCWlolMD+eYSicfjtqySjRKIWhjXVgCNORoe05QIf4c4hnLqykm1saJ41HG8ZOZsgKmrd2zQ/zaBoYy6zXUuk3+OJl5RcrULS5AKu++grNTY1obWkWl6FgcgdChQ9aRRNbXx2JFUVRKG+KFNsQhEq+GWOgWKldpceFYEp2jDw5MDEnCkumxup2N3L5XhOjIQMQxMeE4fyDs7FgQjRCQ1mWDoSFh+DH+6Vj6ReVKKxsxqmL0+CSSBJEEL6xshJvifnx4lRERoZIOWt0IxgAhFc9nmeXfo8LH/wP5h/dgMWzci2n/qPF3YwIZ4SyPhuBWSfW2Os6MarrCdHh+OtdSxAhPVqncJImxEYlj5tLO7DnvHEICTFDxv6AYbDRcNi48pvNiItsMz20FY82VPlnj3rhLe9hU6G9ylni9v6arVgc+gSHhiEuyikM6USkpDshJgRpCcFIiAvyDoXtsHcqSDlx+rC6rg0l1R16bWpoRk2jRzRgGf60tupEqikJnxLyySoF+iGLcrD/fGudmJSDLjJ2uZC/caO+rPl+zVo88efHhVq5RP0Z8Jlw4LobfonoqEjtsEaNGaOdkUICrZC03fs3rhOjKOkavy8oiKNycxEbL8LGsiM6Y+kdLolrj7HxmJUXicf+V4iLDspFZaMblfWteH9VBX5yzBg8+U6xTnGEhDhx3gHpeOTNEtQ2tGJSbqxoaTH4s/hzCk/88oQxuPu5DWhu43AUuhj4uuPG4g+vbZYRggvBg8gvJn/buE5MaM88ahQmjw62aieQX0O3an0rnnphszyxJ/ejExLvOrHZiYhwSKcxSHl8+d0t3nViM6ekq13QTYLV6yrx0iffIWuSC3npceqwLXAL4wRZSzSYZJenBevz21C7KRShHRYj+sEpGd5jchoO2TtLypFCyzezHjQ2i5BLSkZqMjd79r8g6Mcs0/DoEKaqug6hwnR2WEwp7ymANhY14/sN5WJJrQTITI3EotnJmDs1CfvNTcRBC5Kw/9w4LN5DmHR6DGZNiMTEvDBkpISIMHMiPtqp66LieN0ZTWyQ5DkEE3LDJG8RmCOax57TYrD3jFhd8jJ9fCxG58QhLy0SHW6HCLrWLgzMjmtcXhzGZfMNN0Ucy9bUAZdWhIaJFh1kph3SMvLQ6EpGaKQM2aLSMWr0OEyePBp5o0dh9uw9pIOIEk0lElFRXCjJkEw4zS1ufLSyVgWq2Oh/IHBIFxoXJ1oRd590QsMxt71Csoc2EToHzEzCx9/XYPG0JLzyWTn2mxaPlZsasGRGHF5dUYEOHSW0Y5+pCfh8QwNaXW4ZSkYiLMiDNVuaNLK545PwRX4DPNJJHDEvHYdIWX6+vharNjeogOXc7GCjoVbia2mR+PsTtgOzJ8chNVFGOvJkFhybIGxDB6a3TDqTld/X6rP10wWukA6kTGjTPc4hDtE41fPAsTa/DrUbg/GjQ2cjPSVa7QZViDEzpkIM0/VFiJHukMVjMHVsrJXRzszyaKC6ZgfGj0nXzd4DATuaCFHza+paZNgoQyafeAhqamTadz8rkidxk/8ZE+JwxOJ4ZKWIpiUNPFyGCyEhJo/8Y68q/yYkv7TvfLDyxQwJKIK4+JBKEIU+l9MlxAZrWYzNCUO9tE8ylMm3BfHb4QlBWU0H1hS4sG6zC2vErC/sQElNOEprw0U7T0ZK9lxEp81FrWccIlNmICp1BkZPWoRxU/ZEctZcVDTEoFToCytDNYy1lmFYaze3obC0UTs8Le8eirwnIdZX0E9LawcWTUlAWa0HGQlBWPZttQwbE9DQ4kG4jApWbKhTLapDkrLPlFh5lmFxazsyksMRFxGEVSLEqJwvmJyEL0Votbg60NLmQVmdC4snJ2BNUZPQ85igbUlh79hWIebqCMXmsnapvzatw+6G9q1YK/flVcIE6q17HIGEmL4UketAchtIiPVvbNYL2t3bqhZ7kJ0WpULGMKaBPkt2g4LCVF0fKFiIHA6GynAQujLYD2KVlhwp8fkKS186KXx5pI1mk/daIeZB//i8ExsFr9a93mr+eG+5K3ivjl3AYt24pRLvfrQFyz4uwrti9PpRId4Ru3fkau4L8elXRVLH5m0h49iwuRJvf1SEdz72obXCsA3D+vSrYl0aYyVuyMCgyY1rixqwz7REFUjuDg4nXZg3PgZrSpo17TatJoU8KzdVde2IizLaKPchxoe70SLaGhtxflmjCLQaFFc3Ykwap146eX444Ju1ZVj2qZR1j6ZQTDFWryuzfPSjElhn2sYHN88qHTjXpA+cFAmwrmpraHO3SI/DcTSD60emBNS2MkR4GHT12yo9V2a6raENDHZDTU+LgyvgQlgHkuPCECaa1gj6Bv+S0noS4+Gbar4k6cVIj6K0xqhntetKx7C62pGGpEMNW3h/tbkVs0cFY31Rsy4D4lByz3ERWFvY5O20VZiRkQm5XS+aYlpcCGaNTsAhc1KxtrgFHeJOYZiXFo1ZY+IxISMa68u4NnM7ZKYvsOtBf3ozdhsXY1v1EepzCCqP4errYwbtliFbG7fydMFWIhVBEOygfw2q32DoURHi1y9zfGwTYeP20G3bwg4EzqW0tFrbWnwhzxFhTu05bZBCjbiNmK6GJWOuuy7ICRuK6/G396pQWWsWg28oacJT71ahpr7VO/SmCvDGF7U6lCSNR8aXj75ZhFGp4aqBPf1+MRyixbXLUJIT/pnxYfj90iLU1koYGsIwAOtSjDMoGEHBIcaEhAYwtJfhYRB3QtCP5b8f2Fa24Zy7Fz5hOMmIlTUtXrsOcGGobyxU96VChY49DocA7Z42GT626T2hE+fbWBuMiXNL/j0S7SnI+CZnMCc+ueSCE5Z67xuu3HJuwzfn+uAdeurDiLENL4NXLcMSzF4H50lXleucKXmUguq9b8p1L6jNP7x+tq4GzTJy4D01tCoRUM9+XIylX1XoXCvb3/Lvq/HvD4uw9PMylFW3mDlIK4zhAQeOOzAT15yRg5+L4bW7ycU1p+fgmP35ZlAlgvHaDzDPW+0AAxSLy81lOHQSRx/3zqN4rCUW86Yn9XIUT2fEhodVkQ5I2dclFk648eD1S3RDNieS7Url/EGH9F5JaRlIiIsSwTOwiX0bzS0t2LypAMEiHH0ZiIVaUd2Kc371PzS3Ujh7kBbThLEpZSaPw4rZdhzIezy1s7g+AxvLwqUCh2e59LTEon9gp23dEsoDnRxv51wbpD5o81KwcVNTU+/iz/bZCSMUBxsmjm1fYnH20XmYOIptlanr7lfzJebr9S489aI5iqdbHGK1tSUWdln0tQRYxo1uHsVT38t5YpYQmztdIg0yGy0HBGZEhNjrWxFiZLZrzluIJfOStDDsgjOS2oOWjghMGp+hau5AYEv+wqIKuJpquhUqhebqDfX4yd3vmdf38hzpKEZi8GqLoq/FveuDTNzgnIrq1rRBEmJSNzZX9xlWvD1EPzhCbOeDKcZtE2IcUZ11dC4mjg5Vq56FGPD1ulYRYptloBKg4sTKFmILVYhFiJ+B1YIRYrVY9kH388S8QuyCB57Dnj6HIgbKQH9AmdEkQmzpVoQYx5KnHTUZpx89zlLRTWZN7+ZAW0cQRo/ORmhoD/77CIZH4bR5czHcbc2a+a7w4I2PSnD3Yx9LvEyDA7VbPkDt5qXid2BlsSsiKe9QRGUtZBUNGKwb8tu0cYlIircXWvaM8pp2fLvOnBXWvR4NRoTY8BBi5lDESKHrYzp6goTZ1IMmpvVrJ4PpcbkbUd9ehbr2ygGZho5KtHms19B2BIEgefv82yotGH+GpF8HWlFd06ACyNamtgX029TUgrbWpm71SregYCc+XVXBRFi2Il/bXULfiHbXiPE3HVI2gwYpcpb63GkxOGJxLI5cHNejOWJRLOZN4VYg428EwwxWE+WFO2Nc7gbUd1SjsaNqQKbBXYU2d7OEK39+YsCriV1xz38ROq4eMXEifwcqNQWmdwWqy0QUFcQi1B14TosTntHhQfjTrUuQGB/WLW7dttIRjHHjcsF1XvY5VP2F0cKK0OHqqoUZwehBs8uD829chpLKeuMu1jX576By44uGcARdkDzmKMTl7Sd3fhy1DVCGF233jGNyMbkXLYBgfX273oUnXtzUa+8+oontIE1MHz1wBXfAOaZOyl8e+5iErULCrqkUzWtjFJ5/6AzMmOQznOQn26656yWJ2IF2h7tLI99WGOEAhHQ4EOQzYd8NJBOGu/iUWTjugFx9U0nY9AyHJjgsBtnZqSrE+pM+e99kZWUN6msqTaZ9/DNsPi7/ugo3P/A+dC0/LVhgI0KsR4wIseEJUxs7XogRbU4P2sX0p732BpUDbidC2tvx7O9P7xxOagRWJCI8EdEehPA2GueAjIYjJljnk3rJhDiRGV98eyNauQg1ACnT2NZaj+Jivuo2w0qanmC7GwNUVdWitrpSl1Z0D542bjz7xgYRoL2kcwTbFWwsgf5stxHseLAW2FloI+MDr+ZGjMgTEThGngSWEf02ElYIl4r5NdMunZSRmB4EOXyP1OE6fLeasNAQkXo+CSV5L0aDkx+9bgVbSmrw+oclEo+R9DZsKc6XYC1NdSgqKkVzS6sKqK2hra0dZWXlIsAqrM+IifFJjAmjA598U4tV35eIMO2MbwQ7AFL0HdLL9mikPjvcXP4yUkfDAx4cccBMREeG6z0xJjcVC+ZM4AJU09S2ZixZwoMB9N7PXifqLTsTnjp2QTdNOz46HDdfdbjuV2QwTMzFZ+yLqePTceXZi5GZlmjCJ8RNBYH9LNBn1Zb4YOy2BupHFJVPPv8tKmvbVZhwGNgVZtGrq6URRVu2oKykHC0izHj8NJdHUEPjsJH76lyuNlRUVGHL5gI01depP3+t10ZrmweP/HMVOrjSNUABjWD7gXsTWWcb1q/FxvXrupkNG9bpGWTeDsy++oP2+s+DYoQnxGp3Mv4tp+8wbUBlhf3sZ/RlmzQmdvYOTwcmjUnEorm54iR2QnLy4VMQFc6VhKTlNzvkV9okvWt1mcatxlA49DDJa85bLHc8x05sxC06IhzRURHqb2sQeo9O7F9z54u6N80hET5w0zF44M8fYm1BOSIkgj/9+gScf+1/EBoehpq6Rm3r4aHm/KyYqDAUVdSLEGBwjNGJRfPGYfmK9WiXsPojFxwihObPzMLNl8y2ND7j2V87MgLOIQILCJX0hYSEol2EEBewuiUhzc0tCPJZvxRYu9LSwv1PrcFLb39PImNsiPPInFjPGMw5MYLn3J92VDYisQWtra0B64y8Hy482NCRjadeyjcxB6pbIVT2SUxGCLWEQNW/q0LyTc2kqaoazubGwOUTCCxcKaiZk1ORkkCtSEIJ5FXpPCit6sDXq8swZ1oGjjlkOm787VIEBwfjz3efgAt/+YJuZbzox3shlKd9fL0Fz7z6FSKjonD2CXNx35/f0Z0zF526CP966XOcetQsHHXwBCx9Nx8P/XWZnuxx2D6jERoaiuff+s7iMEmMnR53G559uHNOrJsQo9Q89uAZSE4Mx6P/+BQL98jFQftOxK33voLbrz0aD/71I0mYA9detC9KSmsRGRGCusYO3PHQ62ZOyeHEnT87FDc/8JoeZWJ0vb4XJClPOHgyzj+RHwwxwspeOzZY0HAl8y/8bzMe/gc/ohoAUnIjQqxnDIUQO12EWErIt8Kj1keNAyAoNBIlLZMsIebD2IFg8dPuBjNnyLLpR+691Wgfe9k7bMESJkLqkTuOwyU3Po/xuSk44cjp+OXdL+H+W47HH576GOsLKnH9JfvjhTdXY/3mWtxz3aE4++f/kop04MFfHY07Hn4bQSFhuP6CvXDJTS+IUhKGhTMyMGtaph6/teLLAny0qgwNjTybzUqZnxDrJh04yf7hinzMm5GDYIcbi/cch7c/WK/2keEhIpTM3rC46FDc9fBb+OU9SzFZVEpGfviSGfjZefti+uQUXHHWPjjxiNleVbKvINs998ZqPPGCmWjns3f4MAAwDGPM29dXlxXjkX+JABt40CMYKLR+PcJabkwI/gDTQl7DtNDXu5mpYj8++H2pv3avn95h8c9uZowW1Q8BRphxnNxwGmnrxo7D1daOld+VYs7UDCyaPxrvLF+HyOgYJMWFY83GUlFk2vD515tFKOWIH+ulnPyx7vjLKNtl9MR26G5vQ1CQEymJEYiJDBETiqSECB1hkbYnBFBxHKIq1qCxuQ2jR2Vi4pgkfP7NFsuN6ZYAxfBgOh5p0yGxt4nCFRQUjOWfb8A/X/gS6zdVi5q4Em9/uEYz2meQVv47RHj97cVv8MBT30ohmaoZHJjjgf/y3414+G8roFsk+1nXIxh8sHZZy8LvUkV84rxM4D/2ia387q5o51vlCtbt7mr6DcujbxhbM4S01beWb8A+C8ZjyrhkfPzlZp2XdnAlgLZ9vhAMljpr135HreSG5/tyyMnBGyvStHIPGuqb8I9Xv8UnEs4nKzfjn3LPKaze5EgAIUbWcOL9zzbhpMOnYVNhlQg0n9XZFuf4ajAqZCSSqtoG5JfVoayqGYVltSivaRQXSmyLsB/gEO+V99bjp3cvx3ebGiwbRmqkeV/gr30VlLTi+vtW4OmXV6FFMjB4wnEEA4FhDw/+82aJ8A4lWU+QDrbChRffLrGeRrCjQYXmu/WlmDE+WequCfWNLWhpblbt7KgDpmLsqHTss+doLP90PRqbmhEVEYxpk7KxeP54ZKRye6NH6eNjQpGdmWp9MhL48MtivPcplSepZfPfI7oJMdW05Lrsk3wcuWQM3np/gzwZJVVDt66dz7wTqSu39Ov0dODuP7wlvao5W4nGyBxbiTQWRq00z5azdSNQj/IjZs2mSvzs7vfxm798i/wis9qeTraAoicTlnW1wuA96ZxOD8qrXfjjv9fg8jvexYrVxRqN9hI0I9jx0LoAmqW39u0cu4OaP9AidMosI/W3/aFNzq4ktjoe492G3//9C/z9pVXqRC35vj+9p0eDH3XAFDzyjxVYW1Apoyo37vj9Mhy0eAJiYiJw2++Xo7axXY+Mf+qFVTju0OkIC+bXwhxi1yxKETUwxtN7PXef2CckJfyq0PjcJGwsqhKBZI4Rzs1MQkl5PafFkJIUg83FZs/jmJxkbCysFgaktuQDzaxQyIWvZdVKfzthrCV0O52B0qsl49F1atPGpWC/BTmYOiYOOekRIqToRIFlhK++3PU4UVTWjO/z6/H2J0X48rsSNDe5JH+BAu8BEtjIxH7PGNSJfeUTU/U3LXkBOQkNUp/dBwms502VsbjtnSNUL1eMCLLtC60rlnlnnRGmCo2b11UdLXrferLqu4sdey8+9qU+t/p2krAiMdFTOBjNi7+2qDCuBjadDUNvbMNCnIgIC0NqcjQSY4IQERGEyPAglcqNTR1oaO5AUXkzGhsb0dIuPjnpoWH1lBkJW9LHz3nFRoUgJTEWyQlhIuCC9PC5ytpWlFbWi4R3wdViveXSBiHp6Q/DC/nOJcTs+ugtj32h6RuGQohNGx2DM6f8E4nhtcqc/uC0QEVzAv767Qn4ZpP00kR/6nQE/QKrhaXL2uF6Uf45g5wID3YiOjYamUlhiIkMRqS0aU6+N7ZweVOHrvUsq2pAc6sLbe1uba+sJ1uKeOFbdxYP9Kk++yTEtgVMhBiuFcnNiMXMiUmYMSkFo7KjkBjPr52wQLivXYQUHzTNzJg8ixrW0NSOgqImrF5fhc9WVWDD5mo9wNDDT8AFypidad8yEUONjlaBGkG/IIHsGCFmZ2hb0q85N7cBMZCwu2KwhRh546xjsrBX2CMIau9+3htBTaw9JBkfNJ6NJ/jNQ5IMtJ5H0DNYL9JxxEVHYnReIuZPT8KEUQnIyYjUo9y5iJwqBwc4hvN4nLzhLi48L6tslXZcj89WV+KbNRUoKasXexkpsc4GUm+DKsR8BAk1rX3nZmPfPdNleBktThROIrvtcSIvzKBcbW+E/ezV8CQJlPYlZS34+MtKvP3xZqzJrzLh0Z3h+EK82cEZJ6MHDqSMFBJof4XYgoULUVNdje9W2wcpEh5MnDwFkyZOxLvvvIOammqxY+I8mDZ9JsaNG4s33ngDTaKJ7jF7DmbMnIG4uHh8/NFyfCSGhRMSGo6DDzkYIdJB2Kitq8M7b78tmmsHJk+Zhv323w+tIvRffvkVlJZYn52TOPi19AV7LcD0GTNQX9+Af/797+jo4OT5wApo8IWYA2cenYWF4Y+JEKtW5vQH+aQ9JAnvN5yFJ1/aYmIecEWPoAtYqFLQ/OjvtPFpWLJXNvacnoiEuBC0U0KpuyFkHbFjMW3Y8JvFdp31Iu5cNsEdMd9vqsdby4vx4eeFqKk3R00b0n7WoZ8QM9+dXF+JN9/v43IIcpIFUmekxuGMY6fgkh9NwbwZiYiPDtGMkU6lpBCpIb0VvNfO59lYmGduP+FbjIljYnHAwkxMGpuCymoXqqobRdJrtg2h+rO8Wve80ftBQEvtJjTXSLn0EQ8++AASExOx7N13LRuDiy6+CA/efz/KKypFOH0kNg4Eh4ThpZdexCXi9renn0ZEZCT++a9/6Jap2NgY3HjTTSgvL8fKlV9JmEl49eWXkDNqlAisyZg5ayZS09Lwpgi/JUsOxBNP/hXFxcWYPn06rrrqCrzwwotoaGhAWFg4Hv7DwzjzzDNRWVmBlNRUfPjBh2hv49vmgRVSZMJEhMePsp4GCoowh2ju8WjwJKDQNQ7F7ZPETOxqOiagyjEBTe5ErFxTa3kdpMrenSFtijKI89MhQUGYNzMbV5w+AycfOgpjc6MRHuLUpS3avGhIa5W7udrt3NSjudLW2LHNstUmx4diz5nJKhijhN8Lixt1yEnPqnpoIoRwaxCF5uQjZiItJVrD36bxIzMbHRmK046ehod+uRCH7ZOh6iVTKmFapi+pCQwtBPXOrUTA3KnxuOMns/Hz8+YhMyVOC31YQjNu3Xth1ja9u2wZTj7lh4iO4ceJPTjggANESJWpQKHQLysrw0EHHoTLL70UP7nySjzwwAO4+JKLJUhuAQHqRShdcsklOPG449X87Kqr1P7aa3+Ohx78Ha675uc4W4TV+vUbcNY554qLB6eefgYmT5qEww49DNdfdx1uENPcxOUq2143QwKr2FirLe1haGwPRVNAEybuIUI7zNK/C8ApPDo+Lwm3XLEAv7poOiaPjdWXZjpCYv0MoMhZX/ZHUdh046KD8cPDcvG7GxfhqCUTEM5Grk1629p134UYpanEwSWGMyel47fXLsLJh+ea7zQybuvt42CDairjZUEsnJ2Me3+xQDI+DsFMOR1odgJ88dVKFOTn4/Ajj1TBdO555+J3D//B0iyhQ8FyEWSmMD2ora3TkxsI2pCJQpxBCJIhJd8Cc3gdERGBSSKkvvjic6Xr6GjH/2SIue8+i+gD55x1Bh7+/R91L2KsDFHtrzyZEIcPTI4NtGftwZjOzQxhRjBw6FBQhogRIUE4/bjpuPvq+ZgxIdY0KX3BNlQwdRgdGYQLT56A236yEGOyEzi3xUQZ0w/0WYgx2DARmMcfOhk3Xr4HMlPDNC7hKWPkbyjgDZ/BS4T8RuX5P5yIn50zF3FR4ZKu/mV4h0HS/thjj+P8c8/GDBkOxsmQ8bNPPzFumjkbDoTKMPDUU07Giy+9Kt64vAUIF4H1zLP/xseffIx7ZWiamJQiQ08XSkpKMXfuPPVH8DsFSUmJiItPQHZ2Nn586il46+23sHz5h/jjo49amuDwBAVVTl4exo2fiLEBzLjxE5CTm6d0ii7lNoL+gkIjLTkGN16xECcdmoOQYLZzdhQs2qErWzt8XtmJTx4Tjbt+uicOWDgaQdsgR/omxCSiyNAgXH7GHJxx7BiEUg2yErFDIFrIormpIsEXIFMqQUpCkjjchZkDy955ByEhIfjd7x7CX594UoQQl4D4FqKZR7z66qt1L+rvhY6oranGscccj6OPPhYXX3wJ5syegzvvuhMu0bB+c889+MlPrsQTTz6BJ556CpdcejFamltE8+JwwIk//elx0cz2xRFHHoW5c+bgwgvPlxB3VMVtHTxXip/nC5Krv6H9YB8GsFuCTUU0rQmjknCXaF/TxvGbBbTcMW2aTTcqwoErz5yMHx0zzRzfI5Z9bdO9c4QVRnR4CK67YB72n59m2VFeb3/YwwnTS3gwOisCt121oKsqOgzB5DLNFFqP//kviImJwQvPP08XSbOttjPtDpx19tk44YTjceqpp6G+3kxet7W5sOKzT7B+3Rp89OEH+gJh/rx5CAuP0LeNBx9yGF597XX8STS9l19+GV9+9ZUOIdtkOPrNt9+KUGvCpg3r8Nobb2LGzJka5vCGYWB/Q2jVj2DboeXowcyJabj1ynk62W6wYwSYaRvWg9uBHx6eg4tO3UNX7tNaat649YJehRjXcEWI1vXTc+di9rREiY2aguW4g8FkUDCkJYXil5fOQVaqjOWN046DJMA0NtsQvvfA359+GkeKVlRf5/92zYHTTj8D519wAU466YfYKELH5JLoWujx8Ym6OLhd58w8+H71t/j7U0+KoPsMByxZgldfXYqKsjIRgvWYNnWa8SSIiY5BXV293HWmZ1ihSzbtcvM3IxgIOFE/aUwKfnHxHJ2aMUqB5bgDoemgNJIqPmRxOs46cRqCZSTRl6n2gEJMG6L883XrRafOwrzp8X0KbMfAg9TEMNxw0RzEx/AkSJP2HQH2GtOnTcPJp/wIPzzlVPzwRz/CpCkiRPhywkqUq7UFm/M36j2hE/vyP2fefNx991145tlnMWPGdBx/wolijkdySiqOOvoY3HjzLdhv/yU45rjj8ZOrrsDTIgz52bTExGQceNBBOOCgg/HIY49i3br1eP2112S00IHHHvsTrr3uGizedz8ce/yJOOjAJepvWMCuJzWmdNztHrS5OkTz7EB7m7uboT13ZfA0X8Lw6e5kmGnNuPwb01coqfxkZyTghgtn6umr/p3jcAEHJz/YLxsnHz7ZpJCJ7yWrARe7snC4zeDYgybhnBPH6rMZwg1nOLD8ywr83yOfopW7hAeaXim0/i52vfTyyzFrxgxv3CyzZ559Tudz+Cbx3//8O23VjRFERUXj/+65B7fcdDMSkpJwxZWXg3tWdeJayrxDzG/v+a3ObV1+xeWYPHmSNOI2/Otfz+DPf3pMNbHxEybgz4//CXUNDXjj9TfwyB//KFqaWUbB+beLL70ExxxzjK4b+/3Dv8crMtw0HDGw8hnwYlfJG9Pg9LQiKqgMUc5KxEc06pKaraWMMqyp1W3ohj1fDg5YXC53OJrdSWjsSEUbIk1B9TH/bMMx4aG4/Sd7YWxu1LAuNqaVCeTq/jv/uAoffblZuEwSbCe6Lyv2+dp18rhU3HblbISGWHbDONOEybgTjz+zDv95g0faWrrptiZcvA7+tiMJ1NtEeU/0JX2kdSJYXx95rGFkJ4JFWDH/ZkmGbxwG6i4M0aFniHd33xYMRIjxDSoPQIxzFCAhJB9BDrP4tq8lMjg52LnQmWdO8jhR156Jqvbxci88sbWDDYQ32NgvPmUmDt8307IcvrCFGNNd09CBq+9ajuKKemNH+Amx7sNJ8chz67kCnx8LoT8TXqcKq0ZJeS9X47NPoJ++wsRh3W/Fn2qKoof+6MjRyMu0JvqHHaxKUPDe97k3kE6El2hh/gKMoL29pixQmOpuPoIg6Gucgw+tEfnhl7PSg1YiKXSdCLA2SZKkSYz2qtZ9b6YvNLua8c0z12rGBRciK+RTEWEtbBzG9ARxmjMlHYcszgjYjkw7ttq0PptrX2D77Q968uO1Zz4t94SYIJxz8mQEi1VPiQooxH6w/zjkZUVoYXWDVaD808iEhr9bhdBqaLzaie0DuICzsUkqSv1Zlr0gPMyJM4+bLEO4zp59BMMD/AgN+SU1+FtEBZcrHxke6hMHjUBhyoxlFxbUgLTQr/QMv954PSI8BGedMNFnsbOBbzs0bdoCb/rYPvuz5MXb5uXSa+ji2M4pId7K/Z7TUrDnrNweFZOuKRCixPhInHDoKAmnUwjYfnme9urv1uDNN9/GCy++hLffWYa16zboq3zSkCyQcFIbseeWmG++Wa0H23HuR0YVxl8vflZ/vxbnnneBFjJtDb2/sSvD0MydnqBnfmum1X4EwwMORDlKER3Mk1m7NqhusOvOMlq/NIMAL79YRp/JcbadDb33sRdj+xvM9Bj4hNnXsKVNhDvrkRDEg0sDlKcVzqGLR2FUVpR5Fj+Mhy+U+MWh8spqfPrZ53j55aV46ZWl+PiTz1Bayg6G7bPnNNCFZtl776OsrEIPbdBwrTWbmpcAYJxPPPU08vO3aPgqA8Se/oja+nr86sZbsGED82RAOXn6MWNFQTHTKf7oIsTY6A/fdyxiorjNg/m1C8YhmVuBE44/CReefyH+8Mc/4p///BcefOBBnH76WTj1R6dj/caNFm1gMO7ComJccvGlOO644/HAQw9jzZo1kgmex92zNKcm1iAZ055C6DjJ7Wv0LG+5EkyuplniOv6wsQiWgh3BMIJUTWKwxSc2a/UAsiobAofP/JCENgzjNGAwahqGyQ6Yn/jj0pOqmhqUVVahpKwMxaViysrlvhxlFRWoqK5GjfAhj1h2yfDcnKoyeGD74A8/Dsw869ayrW79MYUYK0NLHVYGQGRYCI5akquT5L7aVkd7B37963tw/LHH4cYbb8JTT/0NTz35FG6S++OOPR633/FrPYhBG1UPoMuLL76M4084CeeccyFefPlV1NTViRdpd6YxGkJfSB7j4uJw3nnnY/lHn5jpPLFjTv/3zns4+cRTUFVZibS0dCXXNAtNdkYkFs7OVhnlH6rYWRP7d7yImOhw/P6WfREbHdxlrrCuvkHXLl122eXYf/999EgYCg8WclNzqxbAihUr8KfHHhFqM4noC2U+rSUIEzTh008/x5tvvYlPRerzxIaDDz4EJ518POKiYyVcJfP6Wfn1Klx88eU47bRT1b47PJg4cRL223exlipjJnPy3dWN932OL76TXj9QYW4NkoCd61DE7YttmdgP8TQiN+wDuSNjdq8Tc3wTjztulcZQb86TY0NmvQp9RHgE4mKj9ar1LCZQOL4gL5gxhdFAXCIguKOhuaUZTRIPv1NqsWafoQ1L+D88NAyREeH65pltwgzXAuetG3wibXW5tPE3iYA0+2I5UuH2s1DEx8ToiQ8SaOBwNRwPil0z0OiWhs+1UDadlN2h+47DZT+eaArLBy+JwHnir0/h/+75NTLS0lSTIg07jKLiUlz905/h/AvPx8EHHaBlHRASD9+Wl5aU4Z1l7+GN117HlsJCTJs2Dcccc7S1h1fyYgkTk2X+OPDhhx/h5ltuwelnnIEDD1iC++67X+TBp7j8qstx5GGHgcf3aN1ZeaHWll/YjJ/c+Z7E2YpnAk/se7DXHpkiwHhKQNccNzY0iioXhgMPXKIfLw0K5hYQ0YSk4qKjo3DyySeipLRUmS4QmAw7MZFSIczcnbffhiee+Av2228/PProo1i7Zh08ARajMeMtwnBffvlFYPPFFygoKDCR+IBMcODeOWZIOYIdC9aB/Ic7qg0vGNuuEBqSlYsmtKW4BA2Njfoywgw5REMRrYB2hdLAyqWn9h6FTk/+oJ0YNgKC33uorK5BgYwECrYUirZVifrGJtVGlCJgguyUilHeta7yT52QWkpTczMqqqqxubBITXlFlQpgxmub3kB3an9biotVUTCfLjP++MUgaojUBoukbVFjFAfLZyeMjQzTnRV6nI6XQm74AelDFmbp2+AukHx8/90aHH30kcjJzta33tqeRXBwWc6o3CwcJoJkw/oN2m67x2pB0sOvnGVmZeLUU36Iv/z1cdx++626p/cBGaVp/ll0FkwxMjwPFi5cgEce+SNefvFF1fxYF0///SkcdeSRKvRMVjs9Mx2jsyMxYVSiZdMJrxDjF7f3W5Al3oza6Yso6Q1YOf/5z39RV1sn6m6HROpGhzBHeXkFHn3scYwePVp6pQjLR2Bw3VNdXQNefe0NXH7FT3Daj08Xibxc9/tNmjRBCqVrvAqxyszMEi3vUTwmmf7To13No6L9nXnm6TapuUr6mYXZUxMQHyu92AiGBUIcTdogujUK4Qs2Xg7jaurr1MrUoWX45/NcK1oah3k9Dbc0DgnPCL1iFTAUFtQafMNRQ67pliCCWoClxWmLsq7yr778wqEA4nzOFhGUjI+HVuoppuq3O2hbKWmicCWNNyy/sIkmCjMRZIzDHzaN0yl50zsrPxJmbmY8xuZxX2R3TJw8Ef/+97NY9c23InTaVYiwTbfJ/ZcrV+H5F57HlKlTNBwTbmBQk+X81WN/ehw//OGPcP31v5TRVSyuvubn3rTZsEuioGAzPvv8C1RKh3XBxRcjPTMDGSIIN0sHs0LsP13xpQ7bO31orhT8vobWgw8cUtCe55Z+j9/+aRkeunERIkI7C88Xn3z6Ge64/S6Ulpapmhsmmlmz9ESMaNq06TKuvgHpaakarb9v2+6t/70rY+6bkZqaisMOPxQHiBqZm5OlR1qbib1O9dGkU4aTq77Fr264Ef/977PyZAlYOvqm0Xr2j5e0dzzyjX5+zrIw175AghwZTvaMfg0ntTIdSA5ag7jgfLXy8pjFkBQyFdKg7RoKxIM2bMGQlBCPhPh4pTV21GKgwqu6pla0F85dkZK8IW4M0nhVsMenJhEq2gdNiGgkwfKswx/GL541VOFNzlW1SaftanPpnJg2egopce+aUhMJfzliiZcGHStKgBkeWfmSm4amJtGyyjQ9W82r5s+N6MgoGfqlmvh8/TA8dzJK2vaw0iO/YvejH0zBqT8YrWH4xsFnnn3Pc+heeOEF1Zwio6I0DrZpjpZOPfXHOP30U1Wb6w2XXnYVVq1ahZkzZ+DwIw7HwgULEB0TZRyZdkmNHTXj5VFSd9x5tw49TUaMPTVblpexgB7mOWHcmG7prqlvx1nXvYl/3H9K52JXCrFnRIi98uZKXHfRTAmMGbZ8WWCPQkuq9Js25aO6ulpV/dDQMGSkpyFDJCl7RXvsa8MuPPayTklxwZYiNDU2IDMnG0EOJ2JioiVs6V3EXf7pw5toPvP2u+/X4umn/4Fzzj4Lo0bnSTxmkpd0vGpJmP9uoPOby0tx318+M4FZYfcJ4ndEiPWM/gkxc7GFmD9jco1bvmgv+pInYE0GBsPJyzadICu7qUWGd5XVaJFGaYdi4jL8RZEUFhKKiHDOY4UjXDpjzmUJNxlapbTYJEC26N9OH7UizmVxSMlhH+9tdPKmAdOXnJCA6KhIfQnFtlJQVCTCw3xj07c8eoIdXnZ6OsIl7V38iFtXIWZ+7rpqIaZOECHvN7piWNQZOISskc6jYPMWnTIiSYwI3VF5OYgSgcn8eo89sqDJsK3k4eNPV2D8uLFITk4RgSdWYq3DdHHzz5bmQSx5VDVf2JnAuoN0XKBNAdo93Q5d/HrH1YdhxhQR6CJHgm688cabVq+tRFi4BxNyo5XYP3IKIU6flYoKzwn8b0UFXbd+vZ5Gyon65ORkkd4ROtkZCEzrsmXv4YEHH8STT/4Nf+ObEMt89933GDt2HGLj46w5SW8JaUJaWl145l//xiOPPqpn0Tc3tyI1JQURUsjBziArbQaBmCFUetdXP9hihh4B3HtDf4+n3p2wLcdTRzorEe7s+iUj3nF+qoFbpcS+P0KMTE0NKjgoCOVVVSrA2Lmy4fnyEY/wYYeZmpgo2psRJhxJcDuYxmnTe/2Ze39j09BQADBuTrrHREcjRjQZ2um8FjtmDYOkZvtMfVOjniwSJh0/G3B1rSkHE9/WYdNRCEaxrfn5c3kiRZBl6D01sdiIUJx54iSEBvccB9sE05aamiKCKxfZ0iGkpiSJchKK5R9/okI2MTHBou4E5+dWfvU10kQrzJZhIOfLn5S2fPXV1+Cvf31S6qEKe8yepdon0Rk/NV+nHtS5YsXnKjcYPuOjPeuDAp+GClGgdJOO35+dNikLGancPiVhUoit3VSDxGi3VHCYFoC/Zz7/S8bP1/78WhQVFmpBiiVKS0rw7jvv4i9//ivGT5yA3NwcFVid3nnjwFJRHe+++zc45rhj8aNTT8EJJ54gw8nDMH/+XBRKj/Tw7x7GkaKK+vYw9pXMd+yxx+jwkyrvm6+/iT/+8VEse+891EvvkZScpEfbaI/hjbcTMdHBePmdzWhuNfMh/cGIEOsZgyXEiNr6OqPJiD3/+gMuiuSbvUAvlYI5nIuLR1pKsgoZfasucbD/7y8vBASZXcCwuJyHbynjhF8p3Dj0NBvVTTzMFxs/h7ocjtJ9m9Ig2mqcaEv+fn2FGAV3XlYSfrB/jvXcHRRQv7jhl7jxxpvx9N//gfKyChkSTlfhLoHj4Yd+j5DQEEyeNNHyYcOD2pp6nH/+BTj55JP0RcCHyz/Cr++6GxdceAH23W8fvPTiiyLIKrHn/PlK75tW3nJ+fenSpXrW3auvLNWXOQnSuXBqgELKvNyw6bvmk/YNTW4ZViciM9Wcsa/DydeXbURkaB1SEsNJ1s1jdXUNTjzpFNx3328xfTpPZeBcgKFhhEtffQ1/+ctf8fenn+wiQdlTku6yS6/AsccdgwMPOECeOWQwblq1og5eeOHF+OEpP8Q+i/dW//5QWobJq/SqJcUl+OSzFXhdCoKvZX98+mm47JKLSNkl7SRnZ3v5bZ9hTX6pxtVniN+R4WTPGKzhJFEknSEnr/sLchfhK/jIK+ShBBFeFCg8ZNE/vqEE42dsbBcUWFXSdlztbdLJ9oP3egBzGyqCOFc0pi55Ylx+c2IHLcjBFWdNN3RsCD7g0wsvvIx//uOfuPnWm9Da0qojpA0b1uuBBKNycnDNtddir70W4Jijf2A8WWD+qqrrcNKJJ+Lll19CaHgo7vm/3yJaBOvFF56n7t+u/g7XXPML/Pc/z+jorPuQlHUUrCsaPvvscx1hffH550gRjXD/JUtw4JL9MVaGqIGGkzyufk1BI0aLwjR9Yoq6a8ny45eJ8UYCB6rwFunlwsPDZew7TtV1zo1xIo6qKDeLz5m9hw4rOenZtbgMqEEVbN6sk6M8X57ChNocTX1DPSpFalPFZ/z+4NhdmVUST/aokWHD5198gQ/eW6Y7AHKkwJkuHz72gsFxDM3v5AUkGMGOhzAmec4WSP2Bv/CiiZbhXU5mpvTqcZ0TxdsRmiL5YZ5iZZiZk5WBhFhzJLim0frbNtBfH/wKSUa6mZ5h+fqDacvftBFHHHkExo0dgylTJuHOO2/F0UcfjUsuvAhr169Tocv0+oNWtOeLOJ6MQgHYLIajsA6xo4+EhESRGa36HLjVOdDh6dCh6+GHHYz77v0NXnjxvzjzrDPx7rvLcOKJJ2nbDgjJVHxUsGjWwZaF6DX84Ve6+QVfo2h3R7yoepwIvVNUxq9Wfq2vQktKi5Gfn48PZex8w69uxLy5cwIusWAmzjjjNDwhY+Vzzj0ft9x6G3577wP4zW/uxXXX/gInn/QjjB4zWr+36FvgdmHxprS0Av994QVcdtmV+MFRx+LPj/9F/IzB/ff/Fv/8999xyMEHKl0gAcwwEuPs0ytHMBzBIUy3tUx9gN3IeOUwJF2GjelpKTqcM7wQuFMeUvjGKyZIRg7JSYnISk9DqAzPbDlkp72vMG1ByiqUUz49w8TuQUSklKlGFgASVm5eHj6RtmuXO1v/KaecrJ8XvPyyK0SIrCdZNzBb1HT5zYfjjz9RRlgn6KcD+bLP1rg4RcS5rkCjKoVY08UZFIzyigq8svQN3HzTrbj3nnt1nu7iSy5BRoY9NPYFUylxh8nQPZxCzEo7h5NfrCpEVBjPoAoM5nNLYZG+kv1o+XI9VZSvSqmVpYkKeNhhh+Psc87UCcdukIyxAri/6s233sKa79foh2Kp5qelpmHh3gsxZ84eCPHrNe1K/v77dRL2uZKpdF2SccCBB2H82NHKtKTxMoPEE6jI6PrvVzfiL/9dbRirrxCPI8PJnjFow0mpP054by4u5m2/6sg0bI+OEjjvReHFqLa74Ooj2tvbdaFuQ2OTPvc7r4J0aW+c3xPP+qwQN3s4SXB921VnzseSPZO7kNlgWFyHddVVP8Ov77pDNCfR2nwI333vQ/z8pz/Ftdf/QoeTvkHQL4fKtbX1ugidpqG+UUdE8fExEo4TK774Sr/etddee2ra7LAtNkB5WTmWvf8hXl/6mgw9V0vHk4YlBxygi+nHiELDuUz684daSVBNze0YlZsn2jYn9mVERyG2cnURwoK45ylAjgVUHelED9yuwaNduBk8THoWvlngUgtmzt+7HSmtRcDK8JGriI2w4haL5tYWCSNUJ0Q5z0Z4M2xloqa2DjXVNcgRdTVIhp98A0ThSXC83epqw8YNGzBx4oRuY28DD55/awse+dfXDNyy6wMk+hEh1jMGU4gRXLxaL52bjZ54kVANwwqTO0bSkpKULwha9+Z3R8Lm6WprkauklLZ9Si/9hoWFIls0FPMSy8ePuPkKMR51dN1FC7HXzIQuZDYYFpNCYcSwDI25aluXdsW9pFyOEhbRVfNTv9Y1ONholnwjS6WL683YIUVJnbCdmxUBnfVBP1R+brrpNnz26af6cu9gGUXl5eZqWB1uLrsw9EyDb7wE00xLrnEbJX6iRZiT1pptpGvP6JysFzVVej2uJeFnwaJlzE8hRnsrnX6QcOX//Q8/xndr1ug91wLxbeWhhx2BxXvvg2OOOQ6vv/GmSaAPNCNi+CaGCwMvuugSPfL5XhmKcu6N82mcFPzxqafpSafMck+5sOTjCIYjLMZJEX7i28MeGKkLbAp+9i49OVm1evVn8cxwhc3TifHxSBXB25+kUkinJlrCeise2Q5UgPQCiiK+Jfziq6/x/dr1KtAoZLSty9+rr76GlatWecvaHxs35uOKy6+Uod+l+Prrr7Fuw0Z9+bfvvktw/nkXoay8wqqoriFwhf/555+L5/77LC644FyMHpWnmldzcxO+WbVaT8VhGRlB27VFM9sMjda+TirE2tt7av4GzCBfZXNC3xhO7psVyzRtck/37qGYDPAt4pdffKmJ4JYRLrfgx2OXvv4qLrv8ctx1x12oqqrqkjCCj5Ty11x9rX7K/7gTT8Bnn3+O++5/SFf+X3HFVVJo++LyKy6zqLtCMyvXZhcPDOzuPoLhA07Cc+E0376xqvwZmLAZm06cuOdcU78kwTBCbGw0UpOT5C5wg+3Mq2gvIrgyZBjJfct9RWNrL0JMyozbB8847UxccdnlOPfsc3GOmA0imDQVUqTck8zlVIHAtn711T9HVEwspkydiltvvQMP3P8ATv7hyfptVK75fPDB30naSd01XxzNvfrKKzo1ZUZOZhvZuedeIELtQpx15lm47fY7/L0paMUw+R0GV1sngQqxVpdZMmEi7Y76+gaccebZOP6Ek3HcCSfh+OO7mhOPPxk/v+Z6pe0WhKaTsp1uDlRUVCI2Lk78HIvMjHQccfihmDBhAlZ9s1rJbdjh5Bds1lfUt912C0487ljcfuvNePqpv8kwsxZPP/0kLrn4It3WwYgCs7NDVHdz/PEIhiksZuacVnZmBhIS4s28iKBb45Y/Lp1IEm2Gu0CGs+bVI6z8cpFsSpK9mNQnn5JnUnDxJ3mbZbK1fck2GAp919aT57u1RgXL7OVXluo81utvvoZXl76MfffbT0c7H338ibh3Ds0DYcuWQjQ3teCmX12PSy46H8dJW6bdKSefgDGj83DZpRdjxYrP0C4Kjr9Moab3xZdfIVeGgwTT8o9//EsUqTZJxyt49rln8e47y7BxE7en+dWtFVZTiwfNLZ37SDW1LWJZ12C0lUAJ52r85KRk5I4ahV/dcD2uv/46NTdY5hc3XIezzzpdvPeUbWCzSPUNonJyfouvwUNkGGrPYUXJ2JarnAOxI7dDxInE5/wb6eOEedMzM3HzzTdilKTHd6gbCEHiVFjGPZ4jGO5gPbLhJosQy8vKQkpi9xMLuH8wmUOxPgyrhjOYV5o4EVKJorkQtsDmL6dR8rIykSbaGheUal77mF/6r62x5rgD+ZF4qmXkM2fuHF1tz+VNZ515On514y9lhHML3nrrbTNs7QHcBaPLVyRsvvQbO3YMEqSuuDiW4JtLnVvjg1/0TFt7W7suu2I6uJbumX8/i4suuUSnB7Kz0jF+wnhRXgp0XswfLKOG5nY0NFFeGWhKm1raUVFl7f0y5dgFnKS76aZfoWDTJp2845ekaeZYZp6YqVMmaaF1jdaow5yUX/buMlxw/oX6dWsdnorkJThcXLt2HbJEMHWLWugYYMHmAlxy6eW49LIrcM0116GspEQ0v+twmTxfetmV+Nvf/i5+jVruD9oXldcHytYIhinsuuJKfhusW86/pnEOrI+NeaeA5IVzZHpmmA/qGxu881T9hwcbtjSbcgzYJoCp06bitdde05M91M7jxqKFC/Cb3/yfmHvw2WcrDKG6+YQht5nSVnmm20cffawW06ZOEWXmWt0zSRQWFiGemnK3epI2KsJt9tzZeOKvT+Dtd9/DLbfchtS0NOy9cE+Nh9NTXJcaIeXRPenSmiXM8qoWfUNpQ4VYq6sdW8r5ZoiRdvOpwjw+Lgb33/dbGQNP1gybAI2bMfQbGGefdQaef/45VVtffvlF/P7hh3SDJz22iVC84Ve/wLhx4zQcL5gDsUhPT8f5F5yPmTNmYObMmZgnBXDxJRdjrvQixm66CklNt18aqFeWVLSKltmqORvBzgHWFQ9F9N1UTc2Ak/hcWuNfzzsztOOXvKVK3nQju2XHuWfuQdyWvFKV2FxUp8O5gJC2tWjvhXr6TEtr103o06R9/+6hB3S7X4SMwLpJAys5N4pSM378eE1elGhyY0bzSHuG45ShZhPOO++8btocaSk7fnTKKeJ3HO75zW/1beav775D978yDdxKWFNdqyvytU37gSOvNRuoZfLJuOsSi2dfXY13lq/F5WdM1pX4Vn68MJJYLGnvIx57E1yErwRXryYXxkJszKNRO63keONWe5/wPXprnm1bCildlawPcuOXHqq6n6ysxC2/+9g4+bn3CvE7ssSiZwzmtiMbNi/wCJ2CwmIZknQ2wuTEBCTEybCrP3W4U8GDpqYWFJaWdCnSzPQ0RNnzYT3lXcrNf9sRhf191+6DUTmRoqmIra9feWTb4VtdN0+T0HZn3FkHDEMVFWl0PCjRP1ZdmsFY1IF11kmhbV4EGdPg34ZtkIThcmM+aTqsURlB4c2TQbh0hn59fdth33jfp/jFJQd6T7FQUcmb1RsqRCp2BuYLDUxCY4DmvjPTvaELLa9d7Dpp1M3HjlB7H+gJFywUZsQyXgFG+NET7LQ/WlmlBbr9sD3j2rXAGiSj8rRU3dImdcomwnkbzhHt0hC24a4YblXyBTdHU2j0F1w98PVarqLXrt6ytcBHKVsud2Db921rvOcwUD/irMstukOHieZfTCCKngWYQqxZv+ZTg50HVRIUvjEUYHzolm8HGpva8N1GaqjmmZD0SACi9hUW16KojMOuXacRNre6ser7Uuqgkl+T4aGB6dWiomNEBe/KhCPoO9jcWoWxuZrcZmrO7VIL0+chrcMdDLZDuXB+TIfMamXOsOfkd/9apSmnDz8v1rYdCKSwyzgQVC5sQ3mrP+vaE9SdRn586ew4fY0v+PzVd7WqqfnCm0Oqce9+WqJDvm0Q/MMK7AWYhdXr61BSXmsshxBh4ZGYPG2GmOmYOmMGRo+fIAUemHlG0APYc8sfl85o/VmGb864wLorO++64IJfHTb7gGePsSxYRn2HE2vy+b2Crsc876zQ7MvfO58Uym9XbuhsaSK83v2oAK2unT/DCsn1a+9t7pbhoUB2Xp7u32Mhs/SSkpKQmJwid3zaRcpzCGF3OpzIt/cVEhy22A16tyhFah5iOKS018nxmWd/NTV1lstWQZYXw5dm//u4pEdtbGcC67+i0oUvv5GRlR+65K68ulFU0LJdoNdzoFCGxp9+Xaz3QwfTtCIjIm2+UbDXiNYFuMTOX5rbA5zG4Jsp71eMBHzrZba17V6lyLVynAM0ZWF4rLa+QYV9f+CW0cCbH2yS4Tk/bt0/v8MNlMMvLytEU2vn0eM2uggxnr31zGsb4Go3qjzzvTMZvo2Uf+3QnnltE1paO9eSDA1YnDwRoOtXfDh2r6/rXOM0gt7BUuSLSG4A55BS7aQM+ZENfWKF0uxGUG1MhBn5mmXBk2v1s23kMlr2ASyxippGvP5BsYTReWLqTmckH9x188b7G7Us+OyLrnqm04GCwkr8b3mprhJWIz3hzmK4bYVfq9m4pQnvf1pgXgFvB97fkr8JTc1NJiop9fLyclRXlsvD7tXwthlWI22XRkomJViXPOFktyxCKQNqY9xqZGefSoUOtf1bcG9gWYrweva1tahr7EDYTtaevSY4GM+9UYCa+mads/dH5xfA73wRHupsUkgxEU7EtrwBd3ujKYidCOzJW6IPQFUTD4Xr/oajz5By6Ps6Mb5ODtJVxlxx3CoCbVeHrhPL3Y8cZNn0Aoukp6N46FxaXiHDyQZ1Y4NNTkxEQlysum1zHe7EYBnw82mFJSWSf6NF8etMORkZpjz8yrDLOjH/4hLLzKgKeOo/tCx2lvKUhMt/SHgaijx7iSbKJSGSdncbnvX5AnhAIcaCaCj8CGVr/23C2okQnToXKZN/qGtcBgQphJpNIsQ2jSx2DYTk0T9A3Cgudu0DyFCCHoWYmPwthRaTGuvcrEzvfNjuCY8uPOen3fjBEZYRy42fqOt2ZNHWhJh0rDyap+jLP6Clnsc+D7BtbE84gpEx/TxEJPrs6NmqECMsxir75m9oqPjC2A37jHtUYmfPuRTO4EgdGm8zJO/Mb2vl12gu/0C5IlBohsxoDnTXtmoTmiDgtK4E6S0vXUD/pGEsXu8ktKDDYsZheSS9qSn1pPDS2wHY0Ajl37oSvmF7YfsTN731D8eC8etBTMZiOOOmdstLQFjx9Xiyq8uFgsIiE6dklsc452aKxrELvFXbZrCgpTxKSsv0k3Y2tnayK4u6e52Irfy3NZRjy5cPmhFWTxU8zJCYexASRx8KtzCwl2/6IsTsRulua0bRF39Aa9MWtR+eGTctxBEUiayZFyIsNtvYda/JvsMEiYigeiSEV6gAUEHiD6XzYFIu5+PUxoIDdU0ebCq2jgCy/Qp9bJQTo9LNHjkDM9maX+IWP+2d6aaleByVEYpY3RuskSn4zdXVBdZbGi89EB7qxIRs9tLGr4EHW8o9qKoTT75hy31mUgiS4ig4O8OWzh+r89t0ot0bhC+UlI0mHbUt3b9/GBBW8D0JMX7+v7RCytmKkBP6PCTRm97dElJo8l+nZVOpZcZ2yQl/HsXdpWzEvnchJhAaturmsq9RvPpJeeZmbaVW5+EFwzBRCVOROv0MyQ/3VYqFnbE+aWI2JONtTRWihv4R7a4qsRimGXaEInPK6YhInjwwDcwfkv9e86zOHpxzeBTio+xDIckqDqwpduLF981bS98QRqWH47jFRnAYesKBZ5fJkKrU57NlZDqHE0cvjsK4dDJcp1SpaXDg8Ves3tmuWAksOS4Ypx1MAdnZa3FY/conIpg2SFp8aHm7z6wozJ1ghhp2OBSQj7zYCldHZ+p6hBXcVmEF1ZMQK7HmwzQ8ec5ITdWjh715210hZcEdDAUy1GZZsDR4aGTO1j7Z1luxCW1twXuo2PCCPPTUU+1oeBAWPQqZM8+FIyRAR+knxHrV11kgwZEpyJhxLoJC4y2bPjD3doGVFhFgGRNPQkTKlMGvDxZeb2FabsIXYvRH703ajGMg79xca9OTtlOc2VeBXXEWjTp5/dBZrr6B6z17a+tWbhiHxkP7LrS0M/EadzG86r3Al3aIwfh53LjGqdE7zAdcR6DgCgHdhmRVTbvbnKo8EMTmLkZS3qFyx+bPgK3AdzhMWsKispE5/UwjwIxDr+hViFHKsS2FRKfLUO0ihESkWS7DAw5nBDKmnIbIdOmB2ADthj/YYLCBjH2RH+0t9Oq19bp5jQWb1kvgm27b3rbypbWM6ZMt2PYWlNyy88Zjw7LvBOvXsrDc7EeFZdejGQTwrRsnrpknpoXHt/TlHPndAlIGLIUQfpDDAif7ByTErDDjRh+ob5hFTVHr4YLwmLHImHk+nGExhsX6wAe9CjEbDCY4KgXZsy5GRNwEedrR0tuDkLBkEawXGA2MGGH6nRI8zcBulOyIQkKCpSqHti4ZD4fQPB2DYGzcNsY9mjS055Ynaszc/mO+3mOejea6fcGTVMnzjJraMw8S1YdthSXIYnP3QfrU0+EM5qEFO6o9M14Td0zqfGTOEgEWGqXPfUWfhJgRiR4EhUWLlDwXiTkHSzmYrxwZbI8C6IwjOnkmsudchtA4c063VsqIDNu5YDVCCjE2TBtcpa5HvQwZTFy5ebm4+aZf6eF/aampuOD8c3Hu2Wfi3HPOwrXX/Ey/fxgfF4+LL74Ip/3oRzj3vPP0NNPtDZaEHk/Ne3ngZ/zbdeW+YECCjP8eRCVPRfYel6kGZGCHOYCw+wSGb+JwBkUhdfwJSJ1ystxTYDNxlukD+ibEBOwdOTHMNwUJYw4ViXkRwqNH0cUQDClMZoNDE5E+6VSkTj0NzpBoK5/bI/4RDBWoVRi9wIBCrK/Mu00QVuISjoMOOAC1NTXKPyWlJbj//gfx4O9+j0cefQy1tXV6xvu++yzSr/48+LuHsTk/H3vuOV/8D3Xj9oOkj6v37WhZNBxSDkqzY2CiYQZHJUt7vgDJo49SgWK3t6GHE1EJ05Az+3LEZO5lxJqkicnqD/osxGzoBLHDg7C4PGTNvgRpE3+IkPB042iSYW4HDDssfnAzBom5hyB33pWIzJitjOd907ZDIekjd2mW+SNp8t5bly5M3zmRrsWo9HJv2XWhtPyxt6S75taQ6Y/l7IX30evPN+zeQHcr3Urqvdku8B+e8bTPoQTjO1AE2OdffImWVmsJjClddZs+fYZ+Q5GnRozKy8P3a9bq4tI1a9chOyvAdyCGGpIm+5hnu6i4K0QxSG1AS0AEZWzevsiZ91PEZeyt880So48ZDNhhORAWPRpZ085F2owzERSVIlbk8W3LT7+FmGo+YnjhkozojLnImX8V0iefjsjY8UIxkIlC38JyIjQyCymjj0bu/KtF+zsEjhBzWoQd//CAA87gcDiCI6QXExMsaRTjDArt+kbQAhnSIXSkUT+8Bol/0XC7gwwcqmvgNEzJPw3EfyAwOoZp6E3YZuFvYMHg0LBJJ8YK2+GMlFgZ0mAxbu/wP7V0KDVrCil+ISspMQErVqzQuGhnNy0embxAtK2Pln+kH8cJk+EjP8dPGperVb/isyPAxs1iMUVj180glpMGbERIcFgckiaegDwRZok5B8noJ1ndDOyS2hp8aTrvHc4wRCdOR+b085A952KEJ1sfF9Lo5ceOpp/otxDzhRFo8h8Ugsi0mUibfaEItJ+rWhoVN8GS5kyZnXn/AvCzd4QhPCoHCTkHImePK5A9V9TMvP3gDIs2wWhuhxNY8R5kZ6YgLzdDem6adL1PTbG/J+gLByLCwzCadLnpYmw/GWIvAkUzacM8pabEGxqLPk+u2VnsuQyVDT5yUjzPSoPS8irPsVH+r6rNU0JCrLrn5WV6w87NS7OW2vlFMETwj4UCYyhgT9Iff9zR+i3TmbNmIioyQr/SxT2JRF5uHlytLSgrL9N0NLc06SZ08jk3IrcGOAZmu8FbLENTPpoxGql8Lt9xRiYgfuzhyN3zZyJ0LkR8xmKERnDEZb8ptdPBq7+x4ZSOIQbRSTOQPO5EUUauReqMsxGeNMF0rBrnwEt0QEKsK0z/HRqZJGrpfkjb4wKMXvQrZM++EskTf4ykUUcgQdTUmORZKo2Zsfi0BUjKPRjJ43+IzJkXY/Tev0LmvCuQMPYwhMTliBAMljAt1XkYQ48AouGf96o33UArNT505jkAscDQWzT8NTfGaInb8GhJMRxzJJH8KQ0tzXN3kMYyhsgYRSD6wUcXzUtuA6dzMMBOwYEvv1yJyMhI/YpWaGgYUpJTzFeGpAz2328fvPve+4ZS0rVu7XqMGTcOrrY2jBk9GmVlZVZY2xFWmWjVWEWjZeat3KGBQ4YRbHtUUMKTxiNx4jHIFoE2euH1SBehljzuJNHUliAudb605ZnanmOSZyNRhB2VmFQZmeXO/RlG7f1LpE0/A7HZCxAUzqOVrKmRQcSgCTEWrBauXiWhTKkUALcBxaXvgbi8A5AgamrKtDOQOvNskchnIXHyyYgbcyjisuYhPHGsDGs4rKJ/Dcb86M1wBZmL6bPYTP/FxuYvcerCaiosePX+CI1cyZCaTcvOCyvvPgxrYiK9P62B+rC8aXh2nF3gZ2NHI3/e+ZbtBH6ivxP8eMXQxM8s8q3eW/97G0uXvoZXX12K8spKvL1sGRoaGpGYlCgmGWvWrNXS4bD/w48+wl4yvLzgvHMwbepUfPDBhz5lu50gieHR8b7NwDtvOJSCjPFZ7c9uhvpRkbAYRIlQi83eUzS1I5E05RRpy2eqhpU87XTETzxOlZiYtBkIjk4TRcRoXMY/f6xwBxG9bzsaMKSQzb+Csr0TtOVzp6vvZaeAMBFlyRmHxyEuys4Hs+DBumInXnq/Th7E3q40uc1LC8cxi303WtKfA/99rx35pU1eWmpH7GN+sCgGY9N5b+iI2kYH/vJKjaH1oU+OCcGpB3ObhlopODRc+pkHqzfWe2k13XLZe1Yc5o7nIwWHcWtrBx59sQFt+gbMJ6CBgEkXdNl2xPzJ1SVDtPzCLXLr1Dzw82T8TNmgxW1Dy9OA8TAN4TK05xCRz3wDyG+htrTwIyUmLQTPNYuNjUFdXb1qZCZZg5y23iDpqKyuQZX1JpV1lZ6Sql8EUjBBQtPnbUcDhlWOOuGrsemj174LLLfBTk9/th0NHJJ6iYQRKeMyM15jP/Nq34vZCeFAG4IdbQjyGh7uF+hUWaloyWOQwyX0NPTXrn78mUDLS+BEh7qTztBL+OgethYfw5a0BMGEbafHoZt9u0PDFlr66QybG8XpauIfMtj544sOERo22jvau032Dwq8fGYZQXNLqworxsYFt/zytDiqm13+/NpQRUWlXi0X/d1eYNrsr3QrxML3/P3tD8YpRi/21b73N5bbEGOIhdiuDlNRNsMblrMboFHDzY8NWxelrkZK04B6XS5iMYOhtX34BaughaGlm01nlsTwpweom0/Y9G9ctgscoiranyhjWnimmNEMhw6mQ7U71q7Xzrr0oeMIxbrfEXD5fFzWW147KC3DESNCbAQ7FDxlg0eKK0QrcusGZxFiQ6GN7Uxg/qklimnjGF+EFq04H8ah7wg6MSLERrBDIXqOLmPo1L4caGltte5HwHk4bs1SCSaacogMJYd6QfDOhhEhNiCwt+TFGorJ2I172+xJYYXfrf1oSKwhge3fB94wePWGR3ozFPUjt8Cem+SGzrLqeu0CK62ckxI/fK3ujSqwhyEBN11rMqwk86MhIzBoVYHeWRfcqG4V0wgsjAixQUBScgZS0nPEZCNVTEpGDuLikyzW6yoMeG48aVOVXkya8RMWxo/vdkd8QrLQ5XrDp0lKTjdzXV3A7VnBEneWGNIxDoado+ui9C2pD/gUExsvdEKvac5GMk1a1nZvJDw/jMNKTaFE3txsVsmPAPo5QC0UC5E7YBP6cMeIEBsQOBHsESERiujIEERHWUbuw8O6b78iK4YEOcU92KKzryHQuVofZuU9n8LDLHqGryYYkRH2Eo1Oet7z9IfoCCstQhcldDESfrBOnHel5VNoaBBiJO2ks/0wPUYj8qUfOlBUcaeBntRAbVD++H1FDqN2Z7Bc9I0pdwlYKiqvYdbughF0YkSIDQBkNKMwuKXpmbVXnSaQJtFp50vra2/DHl7aYXXSGx9W7OZW0Dkc9fXni05a772l7XQLW+x9qYcSdho5pPRNIz+kq9hNNTLKrSZ+i7PDLKdhKXBd27Cb1GfCxKiiz7pSw4t9L2aIMSLEBgQ2dgeKShpRsKUO+Wpq5b4WFVUyDAhQf82t7dhcWIeCQqHjlfRybXFxLVd3D+WVzRquTUdTXFIvLnbzt0ENxo3NRXVW+CaO/C01aGyWhhAgLTV1rUpHP3bYhWIokgN6GApIa6WGwQ9g+KJBhJjbOixxdwTbPr87YHcs/OVXjuxlH8MGktDIcNGkrZEHuYapS4qJEOESuCvvGUK9DUIvoBDrIkUZplzVjpvyxHS6G/rdFcpg8t/RVi2mUkyFuboq0d7GFfJSRF0YzgG3ux0drUJHGpe5ul1Vam+q34Bhs3jb2xs0zHYaoVfTVuM/xWV8etwStsQv4dthazztLULgmw4Dd5uEzfBayw29+GuTtDBor1a2PSC8xLlCnvNlz4VxWUHz7vqWUsqgXYbUTc2dLzg4Z8gN68MRc6fn4NIfL5R082w4ID4uEnddd7hojYaL/LUyPjsoS8yDkStynTQuCxERopErreXWB/SoiaUmxSI7PUESYQJiYvaYnIUwieSIRROkUOnVROaNq29x7prgTDuNrhRgadF0B22pvWmZCb1eaK9l51OAtnetUHlQQl5NCD0Eb7mbqw5C5dojqf5KPWq4+qDp6Il+qMCoOZ8XExUt93wyKaiurZXsy7MYW7jtLqiureuS58iICBEKAznmSqDlaK72s3cYaD1r+eu1j5CqWrm6CDMnpSIijG9OPZg7IwffrS0RQexGakI0frDfBEwcnWqEjduNyaNSERrOOVAPEuOikZXGbXvhuPa8vXDA/NFITeYJMH1OQWAhRhZKEml69fmLJJNcowKkJ0XjqnMXIQgdcAeFmI/CakQeuW8XyUpNQp77Hvcuga4NXjLvY8Hbru7+YGFZwqYn6PDBuld6UvdGb12VVn57Ie2ERcufPtEPLuwhUowMKXmOl50eaiK745oxvtjQoaSlPVOYxcXwBIhtBIWUZZyiLQUFhyApNhy5aVEYlRmFHLkmxISrkHS4RZsSOj1Mk6YPqK1vRmFpPcaOStG0HrRwNF59bz2yM+Jw288O1rVtZxw/GwftM0nCbccFp85FhsgTcv7sGbk4fL+xSE6MQEJsKGLiQvX7qaZTlxz3IQkBhRgZf/3mCkRHhkng/OqISNeZufjoywK4OySDwmg8GX3KhFzMnpaHS07fFxecto8kIkps+5bxEYzAH9wTSEFGsMGSOatqRBuTv21uwDsRbK2zpq5Ody7Y0A+YcJjVV2g45kphJCNRZKXG4ZiDJuP2Kxfj8Vv2w59vX4LH1RyAx29bgj/ftj8ev3k/3HTx3jh0n3FISYgShUXqwUqTHV4gUF688f56HLj3GMRFhyM1MQrr8stwwqHT8M9XvsF/3vgW9z3+gTxP1RcTlM2+nStHdRvyy1Fa5ZJwNqKgqAoR0VGIjolCcEhoZ/w9IKAQYww8XeDL70qxh4x3KRaXLBiF199bh7DwYJxw8ASEiM9pE1Jw5Znz8Mq736OhrgnnnDy3U0PrIcMjGEFPIHMnxMXq/I8+iGlqbkZDg/kI8a4OZrnV5dKvfvvmNyE+zghxEvQBRkB4ECT00yek49bLF+HRmxfh0lPGY960RGSmhIu2w/lZzrlKFyGRRYQ7kZEWgb1np+BnZ04VwbYvfn7+nhibm2QJCSEKFL3EwS7mi2+LMHlMCmZNG4Wv1nCOtQ2xMRGoreVLKCcaW9sRKUPI0CBu+OdYgoHxE30+4wrmT4zTEYQrz1iIO646AHvtwe949F77AYWYfphVpONb76/DfnuOlnFrFGJFwm4srNYI9ZQBxif3yz4uEClaig8/34SM1FgEhQRjzpQc7ClqYoL42SGQ9HX2IL0bnWDUe8vvCHYcpA54QGFsdIxUSWeFVNZUG83Ex26Xg+TNI7xYUcWXPBQL5jggamGRuvykrzC8n5YUg2svWIDf/Gwu5k1N0LWCHjcFjgUVGPY9H+0HTlt5EBYajCXzUvHQ9QtwyalzEC8CSed7A9QBfdaIsKqoa8XJR0wRucEz2ZxYX1CJ8WPSxb0dGclRUo9NcLW70dwsAi46TKegpoxJFN8mTL7MCQ2SNLrbcNfDr+GqW/6D9z75Xlw60xYIgTUxC+s2lSElMRILZo/FitXlcLe5WESWq0hQyXhto1mUyLxRpoaFBGHPWVkiQTOlV90xQoynDpx17ChcedoYXHV672bRvAzxsQs3jp0M5K7EhDgdWtqCjMxdWW2GldrYAzSkXQH1DY1d3kiyfSUnJuh16zk2ZcMGvXBmDh76xULsOyeZgairLaRsDcj+s+06n21306Z5aOXR+2fh3msXYdq4VJKrkNS68AGPU/rf8vVIT4nCN+tKaYHnX/9GNMFU3H71kbjq7EX4w98/hSh+eP7Ntbj6/MW45eofIEmGrW1tlI5OvP/ZZlx/8b6Yt8d4kZc8KEoErwmcSeoRPQgxepIhpTDP59+U4OwTZuHtD0W66scsTGF1wrpXOw/qm1vx8FMf4r6/fIgNm6uM2/aGpD05IUikfzAykkJ6MVyxztUsIxgWUGblEMMpzJ2gbGisHairq0NjU7Ox2AXRKgpCuWhhhBE4nMyP0S1ZLBNbCPUINj8Zmh21/3j88qJZ4pdHbrMI++C3Bxh/HHa6kZUSKsO7uVi0R44EK/a+IkDo+PjOB9/jx5c/rTsNaFff7MKv7n0Ndz+yDD+7/SV8u6ZY0hiE5V9uxIU3/Bf/94d3cPN9S/Hk81/qgaz/evEz3PDbN/Hlqk0mXEFf0t6rJsYA/vfhOny7vgJrN5aLDdevePDdRlHvJdWlFU0orTSM1eJyY82mGglQIqWwk0TpxuJdGKY/8qlN65Z2rFb98xP45lmM/Jvq4b2hMb8GtGIYyh6Wg2EpAR19iQXm0dKT5cE3bPOmpxM2Lf84MaKMLjY0TJ9Jjp+n7Qwu7OyyT1ASV15R2eVsrV0CUthc1FtaVqHCgm2OdcCtWInxcSQwdFuFBz/YZwwuOmUSgjmnqLXZHaZ++R0G62vm1rPeK0cEio9hORERGoRrz5+JBdMzu07XKIkDHXKrAzNb8Mi1TeRZTV0Tml3tKmQJcmmjDClrG5sho0upUxNGh8eBaqF1tfOlhtDa4WwFQTcJVq+vxJvvrwnoqaK6Ee+IFsa3kUS7RLB8xUZ0yPg6f3M58gsr1V9jYytWrCzQuE04TIR62e4gI+w9K14aAUVqb4nwYFNxG9bl18l9/9NLcgqImOhw1DU7UFYfhPK6IFTWOVFY6UBJhXWcsVWuLMHg4BCEhgWjQujKhb6iln4c2FTi1tX8Nq2pageiIsLQ3OYQGqf6oSmtcWJTKb+ZKPDSG9U/IiIEFUwHw1Z6JzaWetDQJPReWrlKYjjfwrNdy+pN2Ex7Ra0TG4radN6zL71gfxDprES4s3br4UrcXGbAhsbTVw250Qh4+mq0CDizTnHnB3mipLxc8mmUAbtsoqIi9YgiXfbQW3lZQiQrMwVXXfADFWCkt40/VEzRi5jmVn5TwRguTDWp6e7PG5YYbsNdMCsVn6ysRFV9CzlJ7RVKZ25t6LOaTocudl2MbW+ZniB8cfIRM5GWwg9oS5wigXs5Y18ypa86mDkBI7Ilr8ZiMq1XHzKl24Hg+PzqM0YhKY7pEOOfHCu5vHnn82a8umyL3FFzVMs+g0VBL3a2u8IIIYUdLgnlPhB996gtZvN18b1VR7Gw7axn31fXNvytLJ8B00EYeptqEGBF1OWM/UCQPHDjd0VVtb6VpEctY4veaAtG+GampRpBtoN5bVthaz7llVWolaEyy9o/n0S4DCc5L8Y8K/zza9GOHj0aP//plV3KywbPaqMSJKM7uDqCEC8aXhpfwtFSaG1qfjClpakRTWJYZ4HqSWOT8NZtacJVd72HVpeoXgHohhT9O2OfmeSFVyuh9r3X3roqrWV2MJgCMkJ9fT3q6mpRX1vX1Ygd7fmV54Gk1pttqdruxriZGwvWvW3ta7rDMLV/mF56LWveWLCeaeVv/GHb+dPZxqDzbsjBliemUQTXluISPX7GNOTOhk3ovfw3idZSWl5hvsykdDsXNG/yzzVwtXXd98H65pmLfQtLSnXtmBe+eSZpV+9eMB5jgOLKDkTGJmHKpDzkZCXq20f9OIoYXmni4mKRmp6O9MwshInQtP37wkTlwIScKBx74DiJhHWgljsMWxFiOy9Y+MWFhWqKCrf4GdoVolonUnvggP5AG1cAMxgY7PCGKbg+qqSs3Dsv5NuQfUGxzr960RaKS8vQvhNuEidvllfJcKy6Rp8D5de2s+2psTWohtQ/iUFBv6Xcg8mTc5GTGS/CyqkaLEcr5toZDw3teP5cWkYGomPNUpdugkzoaHXiQTLaiefi5B0rxboIMSa2QxLU4RgkI2EFKoShh4mPQ0SjvzCbnUbtpRLNCagj2KGw+INv5vQY5j7CKfXHE2ApyPRrQOQx2wxXSNp0El+0SKOBGYHQV1CQdbjZqnoH3SUmvV+3uR1zZuXpvK0Krj7GR80sKSUV0TExlo0fpH3HxYbg4L3z5LZ7vbFOOY8+qPJEjM7N+xWAQxjH85/X1uAn//cCmlIb4AwbXCbwNAYjspJbGLaf0seK+ulpWUhqeImlKTbd86RVGZGO9zbPxcvbOCc2gj7CKv6Ac2JSPy2tLdhcVCIP1AaMdV/BFxDcm5eanKybpAkNor8BDRHYmJkSFoFLtE0KMGqdtPH9VF1fwLBSk5N06UVn/kzhjh7VOSdmytGNtfktmEQNLINvOemlf2XC+DraO1BSVKhp9/VvvongQX5RCy69/R208jUkc2pltsPpRmNqvciTvndMfYG7KQjR5RH4z+8658S8Quz8B57DnB80YsoU7pQXdXGATMA5HBbCh++7kb8sGjFtvh+MHVowY9ecnoEJ9ffIE5cQBIYrfCxe2HICXnm3QFI7IsSGDFsRYr4fh91WkNe4JCEhLm54TfhLupg2bugur6rW+20F/UZGRiArPd2yIQIJMS5bcGNjkQMH7zdGyoP7FbetPBhnA9NeUiRPZvjpC+7uOf+m5diwhUuwTBsSK9RFtGLqYU2YOYOSYOD1YS+w/WS5yJO3w/DKved0ndi3izXE6UFsSCxSI9KQFj5AE5aG6JBwiX1wJXGfIBlas6kVHR7dwir/LMROY0+T1zS4UVjW6s3/CHYApHrYy/Omv+2bDcxXKFTV1mJzcbEuilV722xPWGmy00Wtq6i0FKUyFORwmQ1xmyENlrsXPFsbdkuZfre+EXNnZ3cTOv0F/UdFRelEfyAwm3OmJMiNPhk7/RWRJvIkJiQG6YHkQz9NqpiokEgN0x8qxAgmltoXr4P5J7Gy7LcrWMmvvFusJ270BKYpv7AVX31bJg8UbpbDCLYz2KGY+hgIn9h863K1qdAoKSvTN3s9c8DQQPMipr29HeWVldgiQpVbiTRrVv44FBuQMNsKGE1LewgS4/gBlm3XwmzQf0RkD3NjgtzM+G5x8MnUq/XyYKB/Go5Ji39uvEKsLzCemTSjyxD+AQ4LSKLcOqTYOqMMdNg8goGCX2nq3CfZX/C0U66l4tyYNwyp0obGJhQWl+gbTy6Q9dXMtjWuQGBYvoYvGcpEeG0uLEJNLY/UMXFplGJCg0MQHxNrnvsL8cS1Xb0LJa7GN1++6t7ctx08359hByq77LQoOKWtbWOWrLIxvrclxU678M02ArHRUAIH1RmNGY4RXi/DCZIovjHRcuktcUogRq8j2BEg79nbiwI1kK0hJjoGmeky3EhKFK3D7pNNQ2dj5ln9m4uK1XCtFXcCKEtYcWmctrE4vPPZBz52Jp3GMCzuFayvb0CxaIAFIrz45lHXsBG2wJFLfFwssjLSERcXoy+f+pNfmzbCennRG2rq2iSuwT18wSkdTaAXEUxXYlyoaENMX2+NzQfih9nxzb6WJJ/VGAebxjZGKNPNxGOXib5x1QLVJ86LUeL2D53BDg84gpw45bAshPAdRYBlFKYnc2BcXjgWzMroFOAj2AFwIDIiXI/g6Q/IwPRDvxReFBC5WZki1KIMq1sMrsMPMa2uVl3GkV9YqAKtorpaF9VSAHm1OHqx/CnUzjL6KFqOCCcaboeqrq7Vhaj5W7bo1iF7g3qnpkS/FDzhyBHhlZyYqGnm5+kiVLMxYfYVDJd7SrcGngrB9WCDCW0x3nz5wgGRb/0a0dgKkD9YEuadJwW8WnVBuIOnwdKvcbSjFPllZKhCbjyt2zYRHyDOHYr0ZKtR2EwYwERGBCExViWdod2eYJSDbvws7LzucPinoesz93wmJcSZVEt6+5rkpPj4Tu1L/ISIgEhLSUE2F2paXwbyFVBsADyzq8XlQnVNLYpEAG3avAUFWwpRVFqGsooKVNbU6Pn2tfX1aqi9cWU9h4jFZWWiaRWKn80611UugpDbo/T8L6tFmfSbDOj2KNESs9LSdMhrN12mg6d0qAbRB9hlEhcbo/spA0FptAT5QZEg0QZbvfENBpjHQC8UmIUW7vnV8jX57gnGddtTxcMSfWOwNcNu4jp4gB/nHMyC21YYae1AgyMd9Y401KG7qRfTgv6dmDmY6L26tw1GJfcxwwxuTVPXnNuNn8dS81RXg600BmmwpI2JYc9sgeGIYXj8wGxGagpyMjMQLw2fW2sYpjZykim5oSXaOvhloWYRWg2oFMHEgwnLKiq9hs8cIlLT0reDGoxDhZBvOEwXhSq1wezMdB06UlPk+XZCZAwhVx6xkyJDYNtvT7AFIuf+zPFEPuH4QFfiqxtPAAlFVW3LVkqxf6DGyrR0S6/YlVRys7713Avo016EO5gYXJ1TYHqDHY92hGBV0yKsbNoXXzft18WsFPOVmI2ts3ZAeiU+MmZbIzrq8tFeP3imo6EAeWluTMh2qkmOluGNq9aKd8ej1cMJYOvBB6YGHEiR4RY3O1MzszUoFpUxZsKaxxmz8WuD7g0SD7WW1KQk5GVni1BLRXRklIbNOu8Mn4FbfgQUTp2QJ6GnYNK2q06d/mzDhh0VEYH0lGSMkrioDYbrl38o4OinO2gfKwI2XYQthay+sWR44iaXLmFTEKdL+gNpbkorEiRBykM1E82OG63NTSJwZags2hPDGQjovYkfMw4QP9NXWF5v0tGl7AKAyRiCzlVPsXh26fe48IHnMP+YRiyelWs5bSuYUqk8yVVDRw1eW9aIgneiEe3anotdnfjpaTmoLltvGMGyt2GqlF/XicK6smS8smyz2LG3VIehhySgrfY7NGx5wfTSJkEDBpn8zjtvQ3Iyj/x14L0PPsQ/X8pHWOo8Q7CDEexpRm7Y+1rMWtT+jULqikXRbn3th5oPt9mQmttgokVQUGMLDmbfawYvfdFkbAre86+11aVzWty2xLeJ9ryYqQiLWp8F9qN1S95iWrhLIFyGixwyhoeGwSmakDclW0mTLzRNImj4xXO+UeWLB9pRsHHejNpmWEhoj3klLY/uPufsszB/7hyTUMG6gkZExSVjwR5pIoS3cpxPD2DYBI/f2rI5H54Os6+1Cxwe/Pqxr/Hm8k12AWkaGrjY9YhGLJqdgMggfkCI9iz9/qfDF68s24KNb4bh5XvPwcwpZtHvoGtidiHueDh031eMmOiY2C4mRk0MwvVjpNs/waxGxqr8IDe8DIYxAfIq2obc93XOZXuhHeFodnd+y7QbJL1sJJz4ToiP1+FgXlaWmExky9AsISEewXxbQ43Dot0alMYyRqsS4SDCMFHCykpPEy0tC7licjIzkZmWptt6kqnpiVaYJFphcmKSaH7J6kYavjygycrI0In6qMhIXSLiG09/QH9OEVhxsbE6f8a8jtL0SPiiRYaJgNS09xJubEwcJk6Y0IWVx+dG48tVhdaX5bcdFGS1NdUiwAKH09bmwddrKiSN8tDPvA8WBlWImX60BwbdnpCy5BAgMysbmdm5YnICmiRhzu2aWvZsVu9mruZee2Prqs/8Uzv7aihtdxv+z90h7qRRzzTW846CRF3VNlYuW5sCNm1CYTXg3hrxtoJpYLh8IcB5NJ7eECudG+fbeM5/oghS3nM4Fy1unMeigPW+TBgC9CuvUpfkgf3331fTaIO+PaIh7TExCq++tV40Tbdomv2bi9K9kRJ2Y2Mz6mo5JdE1XcqXYr5eW4vyahlq9hmDz3+DXBuSwCFgtm2ClQxeejLbHVLp5mPE/Ny7X2WKG4c17R38CDHfBsk9hxby1yFXGhsc+pB2azAx+MTJeRe12zHgdIjLEy+CbDSfjGVPIB/ZDXqIeMobthWPbcTCGMvNNr40hm5woWH6mq3Cg6zssThw//2UJ7zp4lX+MlJCERrkwjvL83VurD+Q4NDY3IqKshJ5CDCMlLh5GuzL72wyQ/E+pXdoMKhCTJR1+d1xmRm2YCUjCMcfNArnnjhOzf4LMkQQdTbk8ePH4corLsOpp56iQ5krLr8MF114PjJlWHHeeefg8ssvkftMZZiZM6bjpBOP3+qkLV+LL5qbifNOGofzJc6TDhsjjCfDsZ69DDEccAuz13SMQa1rtEm7bUbQB/iUlwiWhvY0rCqdiEaXEVr+4Dzv9AnRaG+txYuvr0Nzi8vM/+k8Y3ewPshTPKOtrr4JRVsKxY4CrLuYoFBbW9CIj7/mxvA+QpJoQhrc+u6WOp53tNODZSQVYqu8PRn5sYiHHtztPzY7FFNGh6nJTAmxYjZpmb3HLLz+xpv4xz/+hQkTxuP7NWvw6GOPo7S0HH/729P4/PMv1D46KlKGD/t4T97sFeKcmixxjmK8oRifGypDITL79smzP9hZ03C+rsIzHkWumWhxW9+YtLREu25GTHdj6s2DVnc4Sl1TUNo+HdUNbXjiv2tNvSodS9qANU31d8KoaOSkuvHsS1/ji29KRZiZlwf+hp1efUMzNm0sQmlREYKDOPDXUDohdEwDL489+511BE9fYRggkMAdCFSIdQlSPxjQO9xgwn1Ky0J3mx0DvhnNL3Zh/eZWrOvVuFBZzfUvlschg1QbW69PSXeq58btjbfewkEHLMGxxxyNz0RgZWRk4Nyzz9L1PzNnzcT+++2L/IICHHHk4XjppVc7Q/KG0xNk4CokFBzcSjrYDLRNYJrlvxmp2OKar6aybbxoFsloco+YQKaxIwWVrlHY0jpHymsh6j3ZWqcsx9c/2IRPV1VKa2bddmdm1nlibAgW7REHV2Ml3n5/DV57ew2+Xl2M/C1V2FxYiS9XFeDrbzdiS36BCIUWhATTF8PrCobOfZIvv1eMz1cVmdi2yoOdGEhT49IRE1PX+PQ8seeWrsEFDz2H+Uc1Ys8ZyQgLjuw1NhNYdxXTFztyiYWmnWpwH4pMGUELRUzXshk8SDIcQUH42WmjkZHCjbkeLP9oBR5++CEEO7kQUxgjOEi0YDd+etXl+N3v/6gnMJx0/LFYueobrPl+LbKyMvGDI4/QjbjsNamVXXf9jaiprvYKRL59u/OOW5GcYl5YvLfsfbS1O3DgQftIGjyoqnHj13/eKHY74OMOPcGqIrumOoX7CHzBOrdLhmVleNv6FbfkpGjce/VeSE8SDZ12fuVo/Bs/DmuxXourHe52swE/LNSpNCQhFdE9DDM39v2mevz8ng/R1MLvswm1f52JVcAlFj5gVL1CyJle9WfRtnQ04K33a7DprTC89NuzMWsqP3xtDyfVg/wpvfjoJQYmhae06rE+fBiOYLqkQXtEQGzN2K/rhzYvLFNepHTNSx8xXat14YIFonmdie+++x6jRuXhvHPOQmhomB5Id9ZZp+Pggw7Ec/99Hr+970E89vhf8O9n/4Oqqkq7fgNDIxAKxumWB2+9Dmlm+wcmRYxWgSZLC2rE+BktG5+ysnmW0xTUwCqqGnDT7z5DVb31mUA/qECyeN3wH0/UCEJ4RLBqXYY1NECl9RdgBO0KSppx68OfigDjJwDV0jj2E/SmPnvwzmzR0Y6CpsPR7o3ON31GE3ttDS588D+Yf3QD5k5PRIRITgYQCP62GlcA7FBNbLhBOcSBlIRwBOvGXA/qy7/B5m//LZVh+hEKNRVsUjn807dJUtg8S56vx9XWrk0NT4y4+daHvyb2wfsfYOm7JUjIWaDk7W4Pyqqb9b6LxxHsxLAqkxfprcZkJeJXF89FVlqEdFyGn3qCerHQKzuQ/4S3Vm+ow62//0R4iEsqKBCNczdIwF00MadoYj2kw9/WN01doPKkFu9+0NDbYlczWcdAjVqp3Xc3Y7ZHdJpANDTGrcck7ZYor25BcUWTmGZU17ZaNSg/LHepZN3ewmf55wpwXY8k90GiMdprk9SLQil7hxDU1LWiuLwJRRWNKKuiALMqeQS7CKzK5EU6tY1bqvGTX3+AD74oE55i++PYylwJbdsW1ItlbHS623480okCL75biGvv/UB4uEnj6eLJB52hi0hV7/TfXT7Ypj/yhC1AO3sN3dwTnUJMnjtkfFzVXIfixlIUNg3MFDWXora1BR1tTIBv1nZDqAbFqzG8sGeyxZCtfemf7731Z8PuVZXGuu8N6lf+ObEvHvReryPYZeGRoWVlXRNuf/hj3PnoKunAmsFdWmyCfW2HFDpcysN9pus2N+KG+z/HQ09+jobmth41qm5gVB0OVLeIPGkuCygj+mOKJIzqFh6d5NsiDKyJ/e/xk9+8iOakJnhCOXln+H0gsMvL0xyMmOooOLUljUBrV/5dtd+hqegFuWevNjhlY++dTEpO0gr84H3undyE0JT5FsUIdidwcXN4eDAWz87FYYtzMXlcHILMZJPCK9O0vXun0cFVEyu/q8Lz7+bjs5WFaBPlpr882uZ0oympHgg183n9890dnFDRBLcEIa4iHM/87jTMmJyuS0tUiC37uAD3//Vjicx6fzHQGAVaPnZgEnl3+bl7QstF0FyzAVWb35byoTI88LJhL8v6O+1Hx+m+UMb03fdrsWK1C9GpM6w6GMHuCXNEED90u8eERIzOiUR8DDfUc8rCgfYODxqbOlBd34G1mxrw5dpq1DQ0WuPB/nGN8re3zZuh32DIE4IyzNy4cdfVB2LcqATNlwoxOurWgRFsP0h5D8Uw25dhTOjSfQwWF41g54YwBHmC3ECW6MIr4qAyS6DWg8EyVniDEpYvJFxueSJ0akUakh3VCEYwghHsZAD+H5E2F0Fi8tiFAAAAAElFTkSuQmCC;rotation=90;" parent="QIXlH9156Hlg0ZABz43d-1" vertex="1">
          <mxGeometry x="66" y="319" width="178.8" height="85" as="geometry" />
        </mxCell>
        <mxCell id="QIXlH9156Hlg0ZABz43d-21" value="" style="endArrow=none;html=1;rounded=0;strokeWidth=2;" parent="QIXlH9156Hlg0ZABz43d-1" edge="1">
          <mxGeometry width="50" height="50" relative="1" as="geometry">
            <mxPoint x="120" y="280" as="sourcePoint" />
            <mxPoint x="120" y="240" as="targetPoint" />
          </mxGeometry>
        </mxCell>
        <mxCell id="QIXlH9156Hlg0ZABz43d-22" value="" style="endArrow=none;html=1;rounded=0;strokeWidth=2;fillColor=#f8cecc;strokeColor=#b85450;" parent="QIXlH9156Hlg0ZABz43d-1" edge="1">
          <mxGeometry width="50" height="50" relative="1" as="geometry">
            <mxPoint x="190" y="280" as="sourcePoint" />
            <mxPoint x="190" y="200" as="targetPoint" />
          </mxGeometry>
        </mxCell>
        <mxCell id="QIXlH9156Hlg0ZABz43d-23" value="" style="endArrow=none;html=1;rounded=0;strokeWidth=2;fillColor=#f8cecc;strokeColor=#b85450;" parent="QIXlH9156Hlg0ZABz43d-1" edge="1">
          <mxGeometry width="50" height="50" relative="1" as="geometry">
            <mxPoint x="120" y="540" as="sourcePoint" />
            <mxPoint x="190" y="440" as="targetPoint" />
            <Array as="points">
              <mxPoint x="120" y="500" />
              <mxPoint x="190" y="500" />
            </Array>
          </mxGeometry>
        </mxCell>
        <mxCell id="QIXlH9156Hlg0ZABz43d-24" value="" style="endArrow=none;html=1;rounded=0;strokeWidth=2;" parent="QIXlH9156Hlg0ZABz43d-1" edge="1">
          <mxGeometry width="50" height="50" relative="1" as="geometry">
            <mxPoint x="101" y="540" as="sourcePoint" />
            <mxPoint x="121" y="440" as="targetPoint" />
            <Array as="points">
              <mxPoint x="101" y="480" />
              <mxPoint x="121" y="480" />
            </Array>
          </mxGeometry>
        </mxCell>
        <mxCell id="QIXlH9156Hlg0ZABz43d-25" value="" style="shape=image;verticalLabelPosition=bottom;labelBackgroundColor=default;verticalAlign=top;aspect=fixed;imageAspect=0;image=data:image/png,iVBORw0KGgoAAAANSUhEUgAAAS8AAAErCAYAAACPTwXOAAAAAXNSR0IArs4c6QAAAARnQU1BAACxjwv8YQUAAAAJcEhZcwAADsQAAA7EAZUrDhsAAEMASURBVHhe7b0JmBxHef9f0q72vrTSaler+76sy5Yt29jCmGAbTMAQHuwAIQYCJr+Qf2wgkISEhCshccgDgXAlgANJOJwEG9vIGMc2h2186r7ve1fS6thTe+o/n1KX3OrpnumZ7p7pmX0/fsqa7p3p6a7p+vZbb71V75jzCZQgCEKBMdb6VxAEoaC4xPLq7+9XP/zhD9XevXutPUIxM27cOPWJT3zC2io8duzYob7//e9bW0IxU1JSol73utepq6++2tqTAPGC/fv3n29qakLIpIySMmPGDOvXL0weffRR1+uSUrzlrrvusn798+cvdhu//e1vqxMnTlhbwmhgZGTEelWYyP06+vjOd76j2tra9OuL4rVhwwbrlTBaOHz4sOrp6bG2Co/jx49br4TRwsDAgFq/fr1+LQ77UUzC8labN2+2tgoPxFcYvYh4jXI2btxovSo8fvazn1mvhNGIiNco56GHHrJeFRbr1q1TW7dutbaE0YiI1yjn4YcfLkgR+N73vme9EkYrIl6jHPxef//3f29tFQZnzpxR3/3ud60tYbRyMUj1tttuUw8++KDe6UV1dbWaPHmytRUchuoPHDighoeHrT3ZQQBbc3OztXUpjE6cPHnS2kpNY2OjqqiosLYuhWNwrGKktLRUjzYvXrzY2hNv7rzzTvXv//7v1la4LFq0SK1du9baeoVz586phQsXWlv++au/+iv1vve9z9p6hW9961vqM5/5jLVVuEycOFE1NDRYW8EhUP7QoUPWljv8Prfccot/8aqpqVHLly/XUdlh0tnZqZ3GQ0ND1p7MaW1tVT/5yU+srUthNI2b3Q9f/vKX1TXXXGNtXcp73vMetWnTJmvLG77L6/uIT7njjjusrXiBcD3//PP6ARVn6Ob+9m//trUVPkuWLFE///nPra1X4ME1c+ZMa8s/n/70p9Uf/MEfWFuv8G//9m/qk5/8pLXljw984APqHe94h7V1Kbt373b9nihpaWlRCxYsUGPGjLH2hMOxY8f07AkvjHj56jbW1tZGIlxQV1enli1bpp/+xUBZWZkWercSZ2HA7+VmIcSJo0eP6gYcJRMmTNAPVGfB8soGLBO345WXl1vv8A+fcbuvKFVVVda7ckNUwgX07rBy0x07reVlhCtqcenq6tJdl2wssMrKSvWO1yxLXKy+lEs42T2sHvjFS9ZWal7/qpVqSoO7QP/4mZ2q4/QZa8ubN9y4Ur3xVU3W1qW0nx2rPvXPj1pb8eTzn/+8+vjHP25txYcjR46oG2+8Ue3cudPaEw2vfe1r9fxeNxCiTGFg4fWvf7219Qo/+MEP1Ic+9CFryx9vueUK9borJ1hbl3Lg+Hn1999IthijAHFBuKKmvb1dbd++Xftl7fjqNubaKuru7tYCNjg4aO3xzz23LlUlY5OVesuh02rt+tR9aMOaRZPVVXPdhefLj25R/YPpfXNrltWoz39girV1Kb/a2K0+/s0j1lZ8+fCHP6zuvfdeNXZsPMZzDh48qIVrz5491p7omDRpkrriiiusrUuhO5npw3XVqlWqqSn5nmJ2wEsv+XuoGm69ul594l0t1tal/PS5s+qz37swbSZKcNHMnz/f2ooeNwFL222sr6/PicVlB/M3qu6p4J9/+qd/Um9+85v1wyTfPP300+r666/PiXAB3UOExa1k00U6ffq067HoOhYauRYuYCCOQRS3uncVL0YPsLgYxcs1CNiKFSu070jIHzjGV69erX71q19Ze3ILcy7vvvtutWbNGm15CfllypQpORcuA9YwA0pOAUsSL4Rr6dJEFywPwmXAsY0FJgKWX3DiIx5vf/vb1f79+6290UO3gIfnl770pYJf+aIYmDp1qpo3b561lR/oejMSbBewJPFiFCGfwmVAwMKMHxGy5/7779emOw7ml19+2dobLsT3sNwJD603vOENsiBmjKC7GAcYMLGP0sbDIyvEHnxB//Iv/6Kd2QjMF7/4RR26EAS6ho8++qj6yEc+oqZPn67e+973FvREcSG3iHgJGYPA3HPPPdoPMm3aND1S/dnPflb99Kc/1V1NIqSZwsPMCUaJTp06pYOFH3vsMXXfffepv/zLv1TXXXedGj9+vA4jYIAAJ7YgZEJg8SI6YWzif75KFqM1QrxhTS1CbJgGc+utt2q/BFYUwsRINYXAT/yoN998s56p8LnPfU6PImYTEiPEG1q4a9v3KEEUIbB4rblmhrp+datak6asXjlJNY7Pvy9NyC3icB9dNI6vUqsvd9cAZ1m6oEHV1GQvQYHFa+WyGaqivNLacqevf1AdPMLk6OK/kSuratSY8ibXUl7tHh0txAesxD//8z9PKvjlsrEUb7jhBtfjMYqbKZVVta73FaWiutF6V/559bXz1UCaWN5Tp3tVx9nOpOj5TEiKsGdOESOOfrnng2tUeXmpWrfxoOro6LL2vsLwyLA6fvK0YgCzt++8OnnKv4DhP/HjC0k1MXv7tq3qXb/3bmsrNV/76r+oK69abW1dil9n8v/7w7vUe9/3fmvrUtrb2xJdqzdaW0IcifPE7Hvu/v/UO9/lfi/v2bNL3X7771pb4XLVVVf5njs5IWF5vf/dF9KT/fKZHWqgP1nF+s71q87uLoUX6dSZEdXd41/AfvOb36gf//jH/idm+2Hu7EkJ0atJKghbPiMvhob9i2Wq9/p9QgwNe79vZCT7p4yQG5jLy+ohzpJqlYNUEHbkdrxslldKdW8Np/hbvpg+tclVE4ZGRrRwBSU0y6ur+5w6cKjd2vsKJzt61NG2CymqorK8uOF+93fdnzp8/oEHHrC2UkN8EQF5bnAMP+fC6BvFDcINooqTyjU44om4Lg8QSDw0PKyXP+no6AjUfQiTOE/MZiDE6/5kKldUYSbZWl77D55KWFXJvbFde0+ovr4LWauCWF5FIV5C7mCyNjfOda961SUBgzBzZq+qq3efvN411J8wX8eofVuT/X7HT5zQma/jMA2IqSivSlybGzSaTCHDs9sCnlxrphOz84WIVwIRr8LnHQkL12vVhXe+65xqbnaPxv7uhoTwjRlSx3/uPiGZmLB//ud/VoePxH/VjdFGXMUrNJ+XUPzMmTPHU7iCgm8orqvMCvEkNPHq7DynuruGksrYsaVJs8GFwmTxokXWq2ige4X/UigOenrcNaGmMnVolV9CEa+2450JM7BPtbbUJpWZUxvUgjnTta9EKGxIUJKKzs5+1d5OSIhSRw4qtXPdhdcUnBN+OgfEWQmFz649x1VNVYmrJiyY26SmtEyy3pk9gRWlPSFc3Z09qmycdzzExMaqhIBNU2NEwAqadP7HurpyRRInypTpSs1feeE1BePbj/3NyplCYbMzIVxlpfzm3r/4rOkTEgLWHChkIrDDvrW5Vs9R8kNXd78629VvbaVHHPbxgm7dh++5x9OKDuKwh127dqmvf+Mb1pYQFzJx2I8bN1Y1T6yxttJz4lSP6u/3n/owVIf90fYudfhYp6+SiXAJ8YOYrP/7v/+ztsKlt7dX/fBHP7K2hEJlcHDEte17lUyEy4n044SMePRnP1Pf/8EPXLt3zzwzqJ56cq9raTqxQ41vT15gkIQWW7ZsUf/4hS/o9d4FwS+Bu41RIt3GeMPSvGUBkqUQYU8m8qAZ04VoyaTbGDUpu41xyWrCDc1Km0J8OXHihDpy9GjWBetNhCv+xEUTiGiwr+yRJF4s7ZurNFNe0JUgf6OIlyDkHyal57sHhE90/fr1lzzsXH1eLOO7e/duayu3IFxMMC3EvHaCUIzgWdq2bVvewliMcJGkxY6nw57lfRm6ziXG4hLhEoR4gYCRuTrXAkbvC+FyW0Io5WjjkSNH1M6dO62taKEvy0l2dSVP5BQEIf8YAWtra7P2RAvL/HgJF6QUL8AHlu1CbH5BuLC44pBeXhAEbxAw9ICYvyhBC9CEVEtvpxUv4ERRXCuqIlRQVdRVhEsQCoOoBYzeF5qQLmdAUpxXKoj/YjXHsCCzDLFcOOQEQSg85s2bp9PchQVOeYKW8X97sXbt2symBzHJklUFCFYLq9TU1Kj6+nrrGwRBKCTKyspUQ0ODa9vOtrAkEv/6wZflhXAtXrxYR1RHAaOaDA7ElY997GM6Q7Sb4xDTlqcFha7vt7/9bfUf//Efnk8O1mvPpIvMJGizJj7HffWrX+2aC5GfkXPge7Fk/+u//kt961vfShq5ZbSItfQ5xqxZs6y9xc9///d/60hx63bXXR6WaE4HdU6aMj5XUVGhPvGJT+jMP0B7WbFihaqsrFRvfvOb1bPPPqv3ZwuuGY7FQz3uSwMhXFy7X6HJBGK5CJc6e/astedSfFteNB7SQUUlXIDp6ZVYIA7wQ5kus7OwuijCvnLlSnX99derr3/96zrJxiKPhfvoz7sdx6vYu9Tc2NST2/tmzJihE2JwLqtWrVL/8A//oLvky5cvtz59AYST9xOtPJqgkfEQMPVFPbJefSq49xE88znez4qvhurqar0fUQsDHo4cL+7+X3IXRCVcQB0vW7ZMW3WpSCleRriyyZqSKXPnzvXMuhMnsFwQJ1N4QjAjAcsRQeCHJbX9Qw89lPJ6zpw5o52S9mO5Fa/I5v379ye9d/PmzTq4mGOT3WfKlCl6Hli6Rjoa4WH07nenzudJwthUdYeFgGUb1hQn7h2Ox0MqrkQtXAYjYKn8aZ7ihXBddtllOTVfsWJ48sQZBId13E3BskF4Efm//uu/vtj95VoQDi8QOtJs2Y/lVrDm3Lj//vuT3otoYsWSkdmcB13Dj370o/q1cAG67jQOr3R5hj/5kz/RPlmvAaU//MM/VDfffLNObUYuxqC8/e1v18d705veZO2JF1iYppucC9Ag7mmvFXxdxYsfNtWHomT27NlZZSbON/TP7733Xp0d2VhLCNitt96qX+cSuq6//OUvrS2lrrnmGuuVP/BxYjXiX2OVEbrNUcF3IbikG6urq7P2+iPbXgGNApqbmz0tKyxXjg/OFG+GvXv36lUOKOm6enSBeBC5pUEzENdkjhc3ci1chlRGVJJ4GeEKc/gzUxCvQnUmP/roo7oLB9ywPL3zAXkQccyD399ywYIF2unMAAoN6JFHHlG/+MUv9CwLusfXXXed9c4LVgIivW/fPvXUU09Ze5P5yU9+ot/DChTXXnuttffCevg//elPdZf717/+tX7NEDlz6NyyCL3tbW/TTnYKDwjex7nR4NetW6etWL+YhwtC4tV1xJqia4mFzLm78T//8z/62jin1atXW3svuBbY//DDD+tr4bqwzKjPF198UXft3/Oe91jvfgW6/XwuVxHsfkGwEK6wfHuZYgTM+aBKEi8sn3SOslyAA7pQkzF84QtfuPgkzlc3GKvCWAx+4ujuvvtu9cQTT+gROCxGGjYjkgzU8FvwQDPrKAGixLwzHjTm/U7ocmG98B66as8884zej0X3wgsvaIHgIcVNiaWDEx1L7ytf+Yr6z//8T/1eA39HTDifz372s/p93B+tra26jr0Exg2EHYGgUXilW/ujP/oj7ZDnfZyrG1wf18b7jDUHPDTYj6B98Ytf1IMoXBthAJwv9cU98rnPfc76xAWobz7nnICcbzj/fAmXAQude8neC3C1vOJCnM4lE7C8TIgCXSEvEWZUELHwKtlanwy1f/jDH9Y/ODDFKxU4X//4j/9YNyyc/Vg0hIa84Q1v0I2YIXxAZD71qU/p1zRQrB7gc3fddZd+bef3f//3Lw5aPPbYY/pfbr5//dd/1Q9JrBqyRr/rXe/S3et//Md/1L466uuNb3yjeuc736k/YweRwJLEujEDFFxfJqnuWTXFRIcbQbSD6DNyC1h46SK9veA8uV4syw9+8IM65AYrDJHibwjnuACLOeaKuLRD7mf7QyJJvITgnDp16mJMGD+8m++QBoPT/Wc/+5lrobF/6Utfst6dDE+h3/u937uk/MVf/IWO70JU8CMBYvDxj39cv/YCgTIWItM+GGXju2l0X/va19R73/tefU1gN90///nPa7HjhnrrW99q7X0FRInGidAgTPDpT3/6oihj0Vx55ZXaEqLr+ad/+qdaxFjRBNH/m7/5myR/EzcwVi1iizWIyLzmNa+x/uqfBx54QMduYTEisnaI2WI/30MW72yhXrgufF3f+MY3tE8UawxfGXAPcP1Cdoh4RYQJUqW74zaszH4aqFehi2F/yjjBKvrud797SaEbwggaVg3HZ4llhCHdxHp8WnTT8HN94AMfsPa+ApakES8sCXNevN9YMHRT6coZ6P5gkQFidPDgQf2a8+bcEDT8PiZo1IDwYu0AVhFxVk4QZIQf+DzXmSlYf5w713L77bdbey+AlUQ3iXN8/PHHrb2ZQ5cTkbVDV9vUGfdFHFw0hUpg8Vowp1EtnDveV2moj7+JHAYIj/ERYIG5rQiLD4hYMJy+qUqmEARLN4oAVZzqWDPpIFL8zjvv1KOSdKnwSWHFMfhAdwzxM6NyWD52vwO+LwSEv9PVNDBQQZwZIk6kP/BZurSARfqd73xHd1GdxYgg78W6cuIVeZ0JCIgREaws03XEf4X4AwMBQWK46FqbkBU7Zh91UGziVV01zrcmzJ/doCorspegwOJ145qFqqGuXLU0VaUs+DdKS0bHeuV0i2gEgL+EJ7gTRA3BYBTNq9C4vWBU8DOf+czFQncMSwaHOl0RRmeefPJJ693pIVYNKwPLh1EyrDhijhAPHPbmepzgkDY+NUTP8LrXvU7/S0PFKgTEzIg63U+m3bgVe3Av8WtODhw4YL0KBtYbwouFyG8BCL7x/XFtQTCjvU7sPrRU1nUhUlE+Tl13zRzV2FDhqgOmNDVWqJ7e7oSAZ79STeCaqygvVdeuXqD6+pPn2xn2HjypzqvsnJ6FCMPK5omKlRDFAov4oz75yU9eLATI3nfffXpEDzFxdsdSgajgZyPcAOFAqAgnoDv5q1/9Sv3t3/6tp2DQNTJ/o5tHvBYWnBl9pAtoLE97Q2V0EKFMVbD63EYReRCGAQ8HxBWLENGC973vfdpPR1fUjI5mSya/QTHRNKFWLVk0LfGAdteE4eERtefgiUDCBaHIfllZiVq5bKY2g52lqxfHtffyFsUG/hwc5DQIiGPAoRMmk9NVorExsvj+979fW2/EfWEJIY78lsB1OUfIvvrVr2org9CBD33oQ7owSIFo46Q20CU11giijsi7FUZhL7/8cj174c/+7M/0+6MAgbZ3HakDM3Dx9NNPj1rxCYMJjTWJh2JTkh5Q2k52J3phwes2NJu1pGSMqkz0d51lXGlhhjtkC1NzjM8EJzWrEMQduoWAFUWIAj4q42AH4pLMoAPi5Yz5oftl/DiID8IDHM/edUUMjBVGqIA96NUOAasEazIqxxScKGF0Fr8W4sVruoz4I1ON9Ar+KCkZ66oJY8deeLAHpbg63HmAJwkBiHSVcMBjddC4cVTT5TLR3HEFMcJaBCKpnbFlWFM/+tGPLjq03cQL/52ZVYAvy8S14UNzWi8EuvJ+3kP4gDMGjrAFrD4sIM6HQYMo+d73vqe72XRpsfT4PREvnPVCvBHxyhAcyPh4TME6IF4JnxFWC6NuRriIj4o7iIsZUMBP981vflN3I4kbwxJ57rnn9Ox+s4YYjdwt9IOYLxo94oXQ2WO77DCwYHxkRG5zfCw9fHYMQvzd3/2dPg/qkL9hgUUJ52ysRiPKP//5z/W/QrwR8coQGidWgb3gqCY8ggZOwzTTaEygatxhriCxWIDlxaglzn9ixggC5ZqIhAd8WW6TzbG8jP8IeG2CMe0gSsRV4Vtj1I0uKSJPQCqzCui+4ZBHuJzxV1HBaKgZAcRS/vKXv6xfC/EmNPGid3B+5HxySfxX6PBkZlqH24gY3QssBvw0WBVYZoxceQkX04b43OnTp3VDzgQzQZpzsfukMgFHOd+PxWFgRJAwB/xTTJRGeBAzJhOzkih+LLrDxI5RvKLCERzgulKFeVBnHJNuI+fC2mR8JyLJd37kIx/R52Of40eQLILH391EMR18lu/iWp1BrQTymr9zfGdQr6l3Pmt3A7DNZ6greywfAxXs9wqeZUoT38Pn7b8Dx+ZzUYxO5wPd+l00gb+EQdIy0AQIYkn45Z4PrlHjxpWoTVsOq/H1yUuHcPTNO46qs51nVW/feXXylHdIhRMaStx9RsUI1iUim6nlSAMnLgwxIs7MLTjXDbqidDUJizDdUyE+MMvBzVXgxoTxVer9775a9fQOqP0Hjqva6uTllAYGh9WGLQdV/8A5derMiOru8S9mjN6bnk1gy2s4oaSbt7oLFxAxsHRha+LvMg2iUMBiyFS4WECPeDHAAvMrXIBg4SMT4SoOurv7E1a0u3BBWcLYWbFkuqoov3TgJ1MCi9fzL+5TfX2D6lh7d8rS2FCrxpUGO1khXjD1iJVl6TazACL+MCxlnO/C6GRgcEit23hQdXUPuOqAKSdP9anmiY0J4yb7UKrA3cYokW5jvGECM6tOGPDVsBYX8yKF4iGTbmPUhNptFEYvOJeJkaLg8CZmSoRLyBUiXkLW0F0kVIQQB1K9sS6YIOSKJPGKk9NUHLjxh6k1zFkUipe4tEM8XPZzSRIvYmjiEGdCbFU2i8wJghAuxKPlO+Aa4SL+zn4eSeJFgCG+DLMGez4g6I8MNoIg5B/CXtCEfAkYwoVPlYn+dlx9XggYAYdhrFiZKXRBiEAWBCE+IGCExeRawBAuLD+3BT09Hfb5EDCmvDA9RRCE+EEKPQQsV6nZEK5U4VKe4gU4YxEwlsSNGrNCgyAI8SVXAoZwMYc3VT7OlOIFCBiTSJlIHBXMhYt66RNBEMKBVT+iFDBGFMnJmW7ALq14gREwk/4qTBAtxEsQhMIBAWN1EK8kI9mCcGFx2Vfb8CJpelAqWPXSntklKJwoowj5HoYVBCE7WEKcJb3DAmuOkIhUsWVr167V04N8ixeTblnmJOxUTVGboIIgRAPC5Vw2PAzo4dFt9BKwjMQLi4v08mELlwEBI44kbBOUZYZZXz4TXnzxxYvdY34YkzbfL1S6yWPIBHeWUM4ERlvNiCurs7I2fiYQC8MgC7A2/Y033qhf+4XBmeeff97aUvrzZo17PzBK/cQTT1hbFyb1ZppYlc9zHKD+Ml0ogGlLJtCa3y/TBsbDVBYESA0Z0SlRgY8dV5WbgPkWLxamQwSiEi4DwsVNE6aAMUn4rW99q7Xlj7vuuuviksckImUF0Uz41Kc+pRNxwE033aRzHmYCa8hTgCWYWUc+Ex577LGLk6MRv0wSzwLiaxKwwlNPPXUxy7Ufuru71Q033GBtKb2cNBZ7JrzmNa+5KD7UH/WYCe94xzv06qdAun2SemTCRz/6UX3dgjs8DEzGqSjhQYqA4XO3Y8QrpSKxumWUFpcdkh+sXLlSZ4wRBCGekNYvF8IFWOyszEtGJzc8VYksOFhcJnlqLigvL9drm8dl7SBBEF6BZCmsIpJLEDBcB26uC1fxam5u1kuc5FK4DCJgghA/5s6dG2qkQSaQO9RNwJLEC4uL1VTzIVyGsrIyLWDShRSE/INwZTrwFTZ1dXU6KbDdhZUkXoRE5FO4DAgYDmdBEPILmhAH0AN0wZA02lgMa9hjPYYROMeyPKmC5YJgT4sfV3iIccNkOmBD0HEmvxu3IIW6tv/rtY/EtLgX7J81pZAhzMW5EAI+prB6IMwTzGaWTFzXsC9K8aKyGWwAuxWZ6c1NFuWgDcLZEM02jc+klxcEYLoN8Y523va2t2UUqmLH2YMiq7nz+H4o2gQcNdXjfJfysuzTHGUDAsHggyl2k9MP48aN058JUhAonpz8+NyE9N1xQIpwCU6cIoXFW11dbW1lBvceAbr2QthT1JSUjHFt+16lNPH+bAksXjdcO1tdflmTWrVsUsoyf3a9qs3uARIaQa0oQYgS50wEHnJx8D9nQkNdpbpyxRRXDXCWqS0ViYd4HsVr3pxm1dQ0XmfO9uJs5zl1/CRL6uRXPES8hDhDUDizEbDKETK6a4XI6lWz1diS1L2co+2dqvdcb+JV9m0ysHiBFrCJ41VXz2BS6TjTp06cOpMwga03C4LgyapVq9Qdd9yhfdAMTBQqV10xS40ZO85VE462d6lz/QhXMEKTlMkt9YlSm1Sqq8pEuARhFNI8qcFVE8aEpAciK4IgFCQiXoIgFCQiXoIgFCQiXoIgFCShidfx412qr284qVSUl6uSEv8rcQqCUBycOdvrqgkTxjNnOXj8WijitffASVUydkQ1T6xJKq3NtWrpwhmqtGSc9W5BEIqdzVuPqMb6MldNmDl1vJo7a0rgANzA4rX/YIcae35YjR3rfSI11WVq6aLperqNIAjFzaYth1VdTeq23tJUq+bOnBpIwAJPzK6tKU+cgLWRhoGBYXWu/0JiBT8EnZjN3Eb76hIksTSJHQShmGFuozNBBvkJMs2JAJlMzGY+Zk1VQrh8akJf36AaHPK/ckuoE7O7uvtVZ5e/kolwCYJQeLBqSmcGmpCJcDmR0UZBEAoSES9BEAqSJPHCLxSH1RfIoN3Z2WltCYKQL1iBNQ6wyiyr9BpcxWvLli15FTASz7KqZNgZtAVByJx9+/apAwcOWFv5gQS0ZILHp2Zw7TYiYIxM2N+YK6LInC0IQjAQsP3791tbucWk/ndmzvb0eXV0dORcwPr6+sTiEoSYgnghYrmEhCFuwgUpHfZ8MFcChnBhceHrEgQhntB9zJWApTOgUooXpFK+sOjt7dUWlwiXIMQfBGzv3r3WVjQgXPjeUxlOacULvPqcYdDT06MtLvsogiAI8ebgwYNqz5491la4+PW5+xIvwNu/fft2Hb4QVkEURbgEoTA5dOiQFjG3tp1taW9v9x3t4Fu8mNs0d+5cnXcwrMK8w9bWVusbBEEoJMj4PnXqVNe2nW0hg1JjY6P1DanxJV4kvlyxYsXFFOthMmvWrKQJpIIgxJuJEyfqJLZMxA4TjsdxOX460n4zwrV8+XI9Sz0qEK/Zs2dbW4IgxBmsoyiEy2AEjO9JRcpvJ/04FleUwmWYPn26mjNnjrUlCEIcmTRpkl5uKupM3hyf7+H7vPAUr9raWi1cuVxAcNq0adqvJghC/GhublaLFi2KXLgMfA/fx/e64SpeOM7oKpaW5n7teRyA8+fPt7YEQYgDLFDKQqW5Ei4D3+e1QGqSeNXX16tly5blRbgMjEAuWLDA2hIEIZ/QHvMhXAYjYM7IhCTxwu+UT+EyTJ48WVuAgiDkl7j0hJznkdJhX2xENToiCELukdYshApTOgYHB/WsCXsxUz0y7XoQac1nSZxiLyYCO19dGSH/JGUPuvzyy2PTXXv55Zf1lIFM8coexCRzv1ORnnvuOd1ImHtpoM992WWXab9gV1dX2rlXBo6zY8cOPR2K10C1Ex7C6Coju9lcZxxpa2u7mPXJvrTRmjVr1Lx58/Tvwdw1v7AMC9NQnPPobrrpJh3gXFlZqaeuCZcSZvagG264wXqVf5566im1du3a4NmDyspK1KrlLeqqFc1py8olE1V9bYn1yXiDKDGrnQZ49OjRi8UIGaJonvx+oLtKoz58+LBujBRm5vMdUFFRof8tBpi8jzXkrB8aE/WQSb0B/le37j7fw7HE8ooXrc116vKlk1w1wFkWzWtItKXsf79A4jU2ceO85vqF+uaqqiz1LCUJzTrecRo7z/pkvPFqgCbmze1vqTCNz9kIi7EBpqq7TOsN+JxbHfE9QvyoqBinVq+ak2jzY1y1wJTBwSHV1d2V+F2tD2ZBIPGCkpKxas2rFqpzA+cTJ4S/49LS2zeoDh45qQWsUEjXALMBC6LEUQnF2ABN3Tm71EHEi2ONBuEvFurrKtXK5bNV37lhV004dbZPnTh1JvGbWh/IksDiBaT6XzCvVY1vrEoqff2DBSVcQGNJJV5+fV12aHxuDbDYSCf8mdadl3ixT8QrvtTVVqiWlkZXTejq7gssXBCKeBUbqawHGlGm1gNgdXmJVzE1QurMS7yyqTsv8SpG4RcyQ8TLhXTWQzbiReMbDeIVdt2lEq9iqjchc0S8XKBhuFkJjJhlK15ulpfdsitm8eK6uX72O63ZdPA5jiXiJTgR8XIhVdcnmwYIbkP+NEDIRgzjirkmO2ZJJbc69YNX3Yl4jW5CE6+BQQI6B5OKc4StEHCzHgDxohFl0wBHk8/Lrd4g27rjc151J8SXwQF3TRhXGs4yW6GIV8epbtXfd05NnlSXVBbPa1FNEyZY7ywMUolXttZDKvGC0SBeQerO+RA031Ms9VZs7Nl3QtXVjHPVhMuXTlPVVdXWO7MnsHid7OhWHR2dqqLceyWKBXMmqUk+1qSOC7kWr2yOF1fSiVc2Xe50wi/EC4SrZAyDLO4PFvYvXzxN1VTVWHuyI5B4DQ6NqGdf2Kd27TulNm0/nrL0959X50cKowvpJl5sG99LWA3QHIfv4fjFANfirJ8wLK9Uwl8sdVcMdJzuVtt2tqstO0+46oAp/H3M2LLEvZL9bxdIvIaHR9SWHYmT3JY4oXQlccKd3YPWJ+ONES97IwzaAPn8aGiA1JmzfozDnusPW7yEeHG2s19tRqDcNMBR0I6BgcwNAUMg8SpWaIDOhhZ0xCxdAywW8aJunPUTZbeR7yqWuhMyQ8TLBbenetAGOFpCJdwsr6BWa7q6E/EanSSJV39/v/Uqv9AIWNQuH6RqgE6LzC983tnQzPcUUwOMQrxS+QuF6ImLJjjPI0m8tm/fnvfF3bgxN23apPr6+qw9uYWnetgNkM9zXV6NsNjFK9t6A+k25pf169dfsrBkPuD7OQ87SeLFTYFwsOpnPsj394NXA4RsGyE+M66NhmjHTSgLGerOCLJBxKuwwYjIp4AZ4XIaM0niBfkSkDgIF6QTL2fj9AN+Gz7n1giLqQF61R3Xna14ic8r/3gJSNSkEk5X8QJuQoSEdd9zATfjxo0bY7EeOQ3C2dCCDvfTgPmcVyMslgboVXfZij4Yy81OtscSsifXApbO4vMUL+AGYdF+s9Z6VJCUYsOGDers2bPWnvzCdTsbh7G8IBvxAq/uD8crZvEy4pNtvfF5fg973YnllR9wmiMovb291p5o4Ph8T6rBgpTiBdw0W7ZsySjjSyYgXFhcccqewzWH3QCBxuclXsVCFHVXyOJF0hUaYa4LbWr37t26tLe3W2cTDlELmB/hgrTiBdw4+/bt0/+GDVl14pb2iwbh1gBpPNk2QBgNlpeXeAWpu1TiFWfIOPXCCy/o7g89C7u4pCu4bMgylennTOFzO3fu1IXzIOVfkHvXCccjA1YUcN1+UhT6Eq+qqiq1fPnypIYXBlOnTlUzZsywtuKBVwOMyvKCYhEv6ser7rJ9+PF56slNvPiuuNYd/ttp06bpB3Sm9011dbVatGiRvvZsoE5M4TwQhCD3rpOJEyeqBQsWWFvhsnDhQtXY2GhteZNWjajEFStWXHRYRwHJQ50JMvOJm3gFdTqDm+VlviuuDTBTohB+Ps9x7WEm5neIe92R4zMbXy7uFD4b5H6LCoRryZIlkRgzwHFJ7jwhzVJaKb89F8JlQLwQsThAg3BrgFRqtg0QvIb8gxwzTtDQnAJvhCtI3fH5VF1uIXc0NTVp4Yr6gcFvzfcglF54ildNTY0WrmzN1myg+zh79mxrK3/Q+NzEix8sSGPxaoAQ9c2QC7gWZx0h2MD+IFYEny/muisEJk2apBYvXpyz+jYChmC64SpetbW12seVS+EyTJ8+Xc2dO9fayg+5Fi+OWQwNkGvh+ux1ZKz2oHWXymoV8Yqe5uZm7YPLdV3zfQimm4AliVc+hcuAE3/evHnWVu6hQTitBCNeQayHYu/6cC1OkTL3kXN/phS78MeZlpYW7UTPVz3zvQgYlp+dJPHC6jGmfj6ZMmWKFtJ84GV5Oa2KTKEBUuwUUwNMJV5B647PO8UryINE8A+jivm+P/l+5+hmknjFqRHl61yc4mWe+s6GmSmp5ujFqd6zJZ3lFZXVWgx1F2fiUr/O80gSLyF5tDHKro8RymJogFyLs46k2yhEhYiXCzQIe0MzTmcaTxDrodhDJYzlZa+jqB32wuglkHiVjStRly9tUauWT0pbViyZqOpqCiN7kLGGDGFZDxyHz9stBdMAi8F6MOLlVncIT5C6E8urMJg8qTbR1ptcNcBZFs6tVxVl2f92gcSL/Gs3rlmgShI3VU3VOM9SVlaiTnScUWPGZn/z5gpjNbg1wDDEi+PbG2ExNUCuxSlSpu4gSN2JeBUGlZVlavWqOWpcaWpN4Lfr7ulJaIL1wSwIJF5QWlqi1rxqoerrH0mc0Pmkcu7coNp/6Hji5ou/cAHiQmOwd33s4mXfnympxKsY4FqcAs81O/dlA91GBMwOdSniFT/GN1Sp5UtnqnP9w5dogSmnz/apE6fOJNpBsHsisHhBSclYNX9uq6pvqEwqvf1DKqFvBUMq68G5P1O8xKtY8BIvrjeI6IOX5SXEk4b6KtXc3OiqCWe7+pRHMu2MCEW8igm3BhiW05njpBKvQrcgvOouaL2BseDs8H0ct9DrTcgOES8Hbg3QWF5BG6ERLTfxKoZG6FV3QesNjNVqr6NCEy+ugdkr1113XdpyxRVX6M9cffXVrn+/6qqrVH19vX7PaEXEy4FpIG4NEII2Qmf3x3Sngh43DnjVHdcb9PqMeNn9Xkb4CwUixFeuXKlnsaQrzDBhQT5WWnH7O9NlELbRjIiXgyitB3CK12ixvIxIZ4sRL2fdFVK9sainXyoqKtT8+fMvEWsnmRyvGAlNvAYHh1RPb3IZE2QsNA9ELV40PjfxgkJphF4gLk6RCqvu3MSL7UISryhgHTwWLYwjQ0PDrppAhEIYhKIsHad6VP+5fjW5qTapLJnfoiaOT7+ka1xwEy/jdHY2zGwoZsvLiImdsBz2XoMdo128Jk+erNfeixv7D3So2qpSV024Yul0VVkR3GoMLF4I18mTZxMn470SxcJ5zWqijzWp44ARL7tQmakpQRsgpBKvQscpXlynud6g12e6T251J8QLhEudH0r8Vu4PFUKrViyZrqqrqq092RFIvIaGRtRvXtyn9h08o7buPJmyjIxwA8c/4IsG4WxsYVkPQCM0DRHsDbDQLQjqx15HiD44HwbZwnFEvOLNqTO9atvONrV9d4erDpiyY09H4v6oUMMj2d/zwcRreERt2nZcrd/S5qO0q86uQeuT8YVG5hSqMH1eqSyvQhcvp+WF6ENYdeecnG0EsRjqrlg4c7ZPbdja7tL+kwvaMTCQ/UMtkHgVI4iJm3jRaMKwHlI1wELHKV7UG3C9YVwfx7HXXTEJv5A5Il4OvMQrLOvBy/KCQm+AXuLFdYUh/M66Iz2YMHpJEi8/mWpzATf74GDuu5l2MQEannQb/cFvZhcpu3hFUXfmu4qh7uJMXDTBeR5J4rV9+/askmSGCTflli1bdJr0XMN32xta2E5nZwPku8x3FnoD5BrsdRe1eEm3MTesX79e9ff3W1v54dy5c2rDhg3W1gWSxAtTfOPGjXkTMBry5s2bVUdHh7UntzjFyzidaTRhNEAatL0BAo0wjGPnm6jrjgcJAmZwWslCNPT29uZVwBAuvt9pzCSJF3BTIGBnzpyx9uQGvnfTpk3q1KlT1p7cQwOkGMK2HmiATivBfF8xW172Os2WQre88m29BAHhQEAQklyS6ntdxQuMkJw+fdraEy25/j4vUjVA+/5s4Xg0ZGcjLJQGmAquK8q6K3Sf186dOy8Kbhh0d3dbr3JDrgUs3fd5ihcYQYnaEuJ78mHpuVFZWXlJQ2u0ZgbQOMKwHswyJqYR0iCZmxZG48431dXVSXUXlnBBQ0PDJeLFbwWFIl40xm3btllbwdm7d6++f3Jp0Xl14cLGT1c1pXgBDRYfVFQCho8NR1y+BwkMLEVCxRlM5m4ENgzxwg9E5l/TCFtbW/UNyPHDfCrnAzIrm6ckgkzmcwhr1Ji6sk9Cth8/jN8mF7z44otq3bp1gQWd9kjb4V7NtQUWtYD59bGlFS8wAha2E90IV2dnp7Un/zDJddmyZbph/NZv/ZaaOHGi3o+4hiUurATAcieUa6+9Vu/jhoj6aRY106ZN09fE9d1yyy1aoGmkYbkCsK4WLVqk17hatWrVxQzKPT09eQmryRbu+ccffzzrEASE65e//KWelN3W1mbtzS0ICwJjf9CHAb8lx/VTN77ECxAwGhgHDatQAXG86WiECJd5socN1gOND+EyXZ9iALFasmSJuuGGG9T48eOtveFCt/vVr361uuyyy7TFWqgcOXJEPfTQQxkLO8L15JNP6h5BV1eXOnbsmPWX3IPxQRt2a9vZFo7n10jwLV485ehS0e0Jq+AjYWXJYmrAguAXxOeRRx5Rhw4dsvakBiv22Wef1cJFI8d/FpY/MVMYNWdJax5Sbm0724KfdOnSpb4eTGnFC1N94cKF2kSNAqyQFStWjPpVIYXRCdbLM88846sHgm+rrq5Ot0mCuPPl50O4cK1wLlHAwAzHTydgKcXLCBeO2CgxAoYlJgijDXydiFE6EKvm5mZ18ODBvA3uGIsrKuEy4B7ge/g+LzzFyzhHqaxcgMkoAiaMVo4ePWq98oYGTWMO20nuF+L2aKO1tbXWnmhBIFMJmKt4IVxkJ2FIP5eYyonjsraCECUmxCQdPOTt4SK5graJkOS6bSKUfK8JeLaTJF5GuJqamqw9uSXX6i4IccCveOEHyrV/2PSK8mVUeAlYkngxqpgv4TKYfjXpnwRhNECYgB8/Fg041+IVB3cOwokm2EkSr7iM+iFgKL4gjBb8WF+IV65Di+KiCc7z8HTYC4KQW/yIFw/0uIhJvhHxEoSY4Ee8cKXQK3FzYI82AokX+demtNSo1uZqX6WqsnCncwhC1PgRL6Zg5cPv5ZfqqjLXtu9WJidKaWn2q4EEEq9xpWPVmmvnqNkz6tX82Q0pS3n5+cT7C2PmvyDkAz/ixXQgLK+4TqlrbqpVSxdPdtUAe5k3q0GVjB1IXIv1wSwI3G2cMW2Cmj5tks7h6MWBw6fV8HA/cRjWHkEQnPhdVSQf4RKZsHLZdFVR6X1+IyPn1e79xxNWZDBjJhSf1/SpjaqpqVH19Q8nlbYT3Wp4pHCXvxWEXOHH8oI4dxsNK5ZOU2NLy101Yf/hUwkBDt4LC81hX11drpomVieVceNC+wpBKGr8ihcjjoWwEkttTYWrJowJSRJEWQQhJvgVL6YHMepoXxJ7NCLiJQgxwa/PC8sL4Rrt6+CJeAlCTPBreTHiWAh+r6gR8RKEmMDcRr/Losd9xDEXhCZeJ090KjWSOJyjTGlpVKWlEg0sCH7wa33FOdYL+vuHVP+5AVdNmDl1kl69JiiJowVnw6ZDqrGhQtXVlieVxoZKtWzRDDWuVCZZC0I6MhlxjKvlda5/UO3afcxTE6a01Kn5s6cFHnAI9GnW/l+34aCqqSpNmLuYvO6FSPxF86Ym/g0QTisIo4BMRhzjaHkNDg2r7TuOqcqK1JrQUFehZk+fosYGiJsYc95KP3LbbbepBx98UF1++eWRr0/tl5dffjmrnI5XXXWVXlCRH9iegou0UaybJAi5YOvWrdqP9dJLL1l70kM6PHJfpoNmS8bsF154wVXwsMquuOIK/ZqwCjJ/8b4f/OAHel8mkMouDrCGP/kq165deyEvqLVfEIQY4NfywmcUd79X1Ih4CUKM8CteMNpHHEW8BCFGZCJeoz3WK0m89u/fn7dklnaOHz+uMwoLQqFy4sQJ65V/MhWvXHQb8a3FAed5JIkXTu1NmzblLakltLe35zWVuSAEpaenR7clv1N+DJm8nwGpXFheJLndvXu3tZUfdu3apQ4fPmxtXcC123j69Om8CVhbW5vavn27CJdQ0NDYGdk+dOiQtccfmVhexHphfeG4jxqEI18CtnPnTnXkyBFr6xU8fV5nzpxRGzduzKmAHTt2LBbCRbeZc8ikhIHbcU3hnFIVfidTCg2367UXt+s1xX7dbMeF6dOn63RdQ0NDGaXw6+/3v/admaCdK78XAoYFlCv47Xfs2OGZTTylw/7s2bNawPgBooYT5ETjADcEQ9GZlDBwO64pnFOqwsiTKYWG2/Xai9v1mmK/brbjAvGFt956q7r99tvVHXfcoV772tdaf0kNAuxXwGjcWF25dNpjAWEJRY0RLgwaL9L+2rkQMBQ9FxUiCPmAJM5XX321uuyyy3x18TINl8h1rJcxNBCYKOC49MBwIaXC16OKKPcNGzZEImD4BPLtDBSKjzh1Iek2knG6tbVVTZ482drrTSZO+3yFS2ARRSFgHI/BOgbt0uHbziZsAeuoo6MjtEIF7Nmzx/oGQQgPuptxBLFJR6ZO+3zFemEZHThwwLVtZ1v27dunw6T84Fu86uvr1YIFC9SECRNCKzyF5s2bZ32DIIRHXMXLD5mIF+ESlHz4+7AkZ86c6dq2sy2zZs1SLS0t1jekxtcVNzQ0qGXLlkXiDGbCKKIoCMIFMhUvhDrXfi/arZ8J5JnCtSxcuNBX9zqteDFqsnTp0kiEy8CJcsKF/LQUhHT49cNlIl60mVxP0J46dWrkPSYMGiy7VKQUr8bGxsiFy4CpKAImFCOIFgNTfkMgMo3Kp33myu81bdo0NXfuXGsrWrDsEEovPMWL/idDu7nsSzc3N+t1uETAhEKH0bL7779f3Xfffeqhhx5Smzdv1vu7u7v1v6nIxPKCXM1xnDFjhpozZ461lRsQSgTTDVdlmjhxolqyZElenIDExOTruwUhLIhdZH4jMDeQuKV169b5GknLJCIf6CFFbXnhmMeZng8QTGYsOElaSRXxiIP1w7Dpli1bsorXkZVUhXyD9URoUab3L1bU7NmzM7KkiCHjXn/yyScvxl0RQmHv3rHNOWWzkiqihdWVbwijIDTDrKQqy0ALQoGDoYGA2buk7HPGlDFb5oc//KG15R9ZBloQhEjA/nD60hAuunr2kouBt1wi4iUIQkEi4iUIQkESSLzKy0vVtaumqDWrW9OWK5Y1qYa64jJbBUG4lGlT6tXqlS2uGuAsi+fVq4qK7AcGA4kXX7vmVQvU0AhrLnmXvnODqu34KXU+8Z8gCMULiaWvXT1PDQyOuGqBKSdP9aiunvQxb6kIpdu45toFamBIqd6+oaRy5uw5dTQhXEXmKxQEwYPy8nHqmtXzE+1/OEkPKMeOd2nhChqNFZrPa/asZjVpUk1SGT4/okrEsyYIo4ryslI1eXKjqyacGxgILFwgsiIIQkEi4iUIQkEi4iUIQkEi4iUIQkESmnj19Q6oru7BpFJeXma9QxCE0cS5c+6aUF2Z2aoZXoQiXoePnFYlY0bUlOa6pDJ/VpOa1upvTWpBEIqDbTuOqQkNFa6asHzxVFVfV2+9M3sCixfCNdDfr0pLvQ81Y+p4NW1KQsCs5ToEQSheEK7qSu/ATsIkli5sVQ0BBSyQeA0MDqunn9+nXtxwTP3mpSMpy7G2XjU8kj7hpiAIhUv7iS61cWt6PaB09Yyo4eE8TQ8aGTmv9h08o/YePO2rdPcMWp8UBKEY6ekd8K0JvG9wMPvkwKH4vARBEHKNiJcgCAVJkniZpAH5ZnBw0HeqKEEQoiMumuA8jyTxImmAnwwnUYJwbdiwQcRLEGLA+vXrfaVsi5Kuri6tCXaSxIv1sLdt26bzzuUDEmTEobIEQbiAMSYQkHxAEh6+f2hoyNpzAVefFwJGnrm2tjZrT24wwhUXM1UQhAvkS8DIeOQmXODpsEfAduzYoY4dO2btiRa6iCTl7O3ttfYIghAnEBCEJJt0hNlw5swZtXHjRjU8PGztuRRP8QIjYEePHrX2RAPJMLG4+vr6rD2CIMQRI2BYRFGCcG3atMlTuCCleBlw4h85csTaChcRLkEoLBAULCIEJgpOnz6d0uIy+BIv2LVrlzp8+LDu3oVVcMrTVUTABEEoHBAWLCOy0Lu17WxLR0eHPi7ZsdPhW7wqKirUhAkTdAr9MIszJbkgCIVBbW2tqq+vd23XQYrfzN6+xAvhWrFihaqsrLT2hAPCtXz5cl0JgiAUDuPHj1dLly71LTR+qamp0VpTVpZ+HcC04oVgrVy5UgtYFBgBq6urs/YIghBnGhsbIxEuQ3V1tdaEdAKWUryqqqq0CmLKRUlpaalatmyZNkEFQYgvuI4uu+wyNXasb49TViBg6bTH8wxyJVwGETBBiBZ6UYhPtkycOFEtWbIkcuEypNMg17Mwquen3xkmmKEIWENDg7VHEIQ40NTUlFPhMqRyWyWdSSYOsygwAoZDUBCE/DNp0iS1ePFiNSaMNNdZ4DVgmCReOOLyHb6AukfpEBQEwR8Ix6JFi/ImXAbOAwG1kyRecREMBCzfFSYIo504tUOnNuW2AysIghASIl6CIBQkgcSrvq5CLZgzXi2cm77Mm1WvKsqlGygIxUxrc61vTZg5tSbRLbU+mAWBxKu6qkytXjVLTRhfoVqaqjzLxMTfe/t6Ap2oIAjxZ0prg5o/t1k1T6x01QJTqqtK1OBwnxobwJ4JLCetLQ1q3pwpnvnXBoZG1L5DJ1RJiWTLFoTRwBKyYTfUqxGPDPmd3f2q/cRpVRJQfUKxhVqa61TTpEY9GuAsbcc7E/+KcAnCaGLRgsmqvKIySQ8ox092htILC60jV1o6VlVWjUsqQcxCQRAKl7Jxpa6aoFQ4xkxo4iUIQniwmigLdb788stZFVYnZgVke2Ghv2JCxEsQYsjevXv10uvkj8imsOoxqx/bS66S6eQKES9BiCFz5sxRU6ZMUa2trXr9rEyn7JFGkOQ59rJnzx7rr8XBmPOkCEpw2223qQcffFBdd911enkaP7S21Kl3375Kv96197hr2rJde9sTFXlhjfqTp0ZUb5///u6vf/1r13xt6bjqqqv0PCiW0rBP8Ga9bX5UP5AQ5MUXX1RTp06VaUpFysKFC/UKJidOnEib7CHf0A7+93//1/f9m4pM2hTL0tCe/HLlymnqtWvm6dcbtxxW588nf9embYfV2DEX6vto27Aa8ln16Mvzzz+v1q5dq2655ZZwxOvM2V7V1nZaVVUmPx36B4bVxq0HEv/2F5R4Pffcc3o2Patr5CpPnZBbWKXg+uuv1/P3Dhw4YO2NJ1hhL730knr22WcjTztmJ1vxOnT4tBpMtHkG8pycOXtObd11UI2MDOdXvN50y2JP4TIgYBsSAna0ra8gxOvQoUPaZ8Bsem6WuD+VheyZNWuW+p3f+R3tD8qlKGTK9OnTdddv8+bNasuWLdbe6MlGvObNnqiGBhPClSKQ62xnQsB2HlSHjg7kR7wax1epRfMmqLLS9CtRDAwOqfWbj6mePv9CkA/xIg0b33vllVfqm2T//v061blQnHCvv+Utb9G/N+KQzf2WCxAv7sXt27frBpwrMhWvmdPGqxlT6hLWbHpXS2f3ObVuc1vCArN2pCFU8YqafIjXCy+8oB2kwHBzV1eXfi0UL7gH7rzzTt2NjGv30YjX7t271TPPPGPtjZ5MxStKnOIlo402GJrGymKtbp7CJMUVih8c9o8//rgWL1mCvHAQ8bIgWy8mORbb1q1bdSpzyygVihx+Z7I0E9yJYzwuPQ87ZJCWXsClJImXnzTbuYAbKpfigSN0xowZOrKZIL8whqSFwgGL+4knntBWGOEx+Qah4p5EVHFlELbDOeb6voyLHoDzXJLECyd1vkfXEC2sn1ydByNNxHXh+9i2bZt0F0cpTJ957LHHtK80391HpvPg48IH197erkWV+5SR8FzCABbnkm8QbdqmnSTxYrh4w4YNeRt1QV0RUH6sXECl8H0k0qRypLs4euF3x9ohnirf3ceZM2eq5uZmnXKMgrOaQlpCzs0U/hY19ETwAeerXdBGGTzr6emx9lwgabTRUFtbq1Nu5/IHNMIVdAJpJqON+DlI98Z7Mc3FryCQmPWmm27SI23MMUzH5MmT9T1Ety7XDZyH/COPPGJtRUtLS4tasGBBTmec4IvGmEK4DZ6hEnYQMHIo5iIVGsLFUw+BCQrdP25Aiv3JdPz4cW0GG7Au6SKSE+7pp5/Wf49TH1/IDzROwmV4CDpzBbpBOyFV38mTJ1VbW5u1Nzw4vpeFxT37la98xdqKHqxBplXlQsAQLiwuXDp2fIkX8ETBAotSwBAMHJM4y8OCRc94UtjTm2PRUSF2sLi4QfElOP8mjF7ocWTi9yLI9cYbb9RxWGHfR3V1dfpedgPL62tf+5ruUeTqwYtxEHUuR4wMLC6ncIHvOC8sE9QvqihznPJhC5eBm8i+TIjbTcU+nl4iXIIdrHLmtHL/+ym/+c1v9JSyXI9U8pDGwMhlGn7aCwNqUXWRES43i8uJryvGUcbBnP6ioEQpXDyFuPn8FPFzCW5wv9OQ/BTu4V/84hdaTEZDoCsWH/7psAUMwUJrqNN0pO022mGFBdJuh4W5OQShGKCrefvtt2s3CwHPYXXjUnUb8RHfd999epQ8HxECuFzCdCkhXul6eb59XoIg+IfwBeZJ0qxwVYRBnMUrH8jcRkGIAAQL/xchOn5GKoXsEfEShBDB4kK8iI7HChOiQ8RLEEKGAS6c92CWVxLCR8RLECKAUIKNGzfq6HtGIIXwEfEShAhgpBHrC4c6AiaEj4w2CkKEkMKMJB9Mfcs2npBZIqy17wZdVFYcHo2jjRfFi3W8H3jgAf1HQRDCgRgoLC/il6ymljHMbWR1XzcQLKa2jSbxevTRR9XNN9/8injde++96mMf+5j+oyAI4YH4MIc2SkaLeBEoj1gzv/KieDG9gcmWLHwmCEJ4MIE56rmH+NiytewKBerw7rvvVl/4whf09kXxAsLyH3744dgn4BQEYXTBiO2tt96qZs+ebe1xiJcgCEKhIKESgiAUIEr9/0bGU7GDdNBHAAAAAElFTkSuQmCC;" parent="QIXlH9156Hlg0ZABz43d-1" vertex="1">
          <mxGeometry x="557.86" y="760" width="162.14" height="160" as="geometry" />
        </mxCell>
        <mxCell id="QIXlH9156Hlg0ZABz43d-26" value="" style="pointerEvents=1;verticalLabelPosition=bottom;shadow=0;dashed=0;align=center;html=1;verticalAlign=top;shape=mxgraph.electrical.electro-mechanical.loudspeaker;fillColor=#f5f5f5;fontColor=#333333;strokeColor=#666666;strokeWidth=2;" parent="QIXlH9156Hlg0ZABz43d-1" vertex="1">
          <mxGeometry x="640" y="960" width="80" height="120" as="geometry" />
        </mxCell>
        <mxCell id="QIXlH9156Hlg0ZABz43d-27" value="Aluminium Tape" style="shape=tape;whiteSpace=wrap;html=1;strokeWidth=2;size=0.19;rotation=0;" parent="QIXlH9156Hlg0ZABz43d-1" vertex="1">
          <mxGeometry x="462.41999999999996" y="394" width="198.58" height="50" as="geometry" />
        </mxCell>
        <mxCell id="QIXlH9156Hlg0ZABz43d-28" value="" style="endArrow=none;html=1;rounded=0;strokeWidth=2;exitX=0;exitY=0.5;exitDx=0;exitDy=0;exitPerimeter=0;fillColor=#e1d5e7;strokeColor=#9673a6;" parent="QIXlH9156Hlg0ZABz43d-1" source="QIXlH9156Hlg0ZABz43d-27" edge="1">
          <mxGeometry width="50" height="50" relative="1" as="geometry">
            <mxPoint x="330" y="800" as="sourcePoint" />
            <mxPoint x="140" y="710" as="targetPoint" />
            <Array as="points">
              <mxPoint x="440" y="419" />
              <mxPoint x="440" y="460" />
              <mxPoint x="460" y="460" />
              <mxPoint x="460" y="750" />
              <mxPoint x="140" y="750" />
            </Array>
          </mxGeometry>
        </mxCell>
        <mxCell id="QIXlH9156Hlg0ZABz43d-29" value="Aluminium Tape" style="shape=tape;whiteSpace=wrap;html=1;strokeWidth=2;size=0.19;rotation=0;" parent="QIXlH9156Hlg0ZABz43d-1" vertex="1">
          <mxGeometry x="462.42" y="319" width="198.58" height="50" as="geometry" />
        </mxCell>
        <mxCell id="QIXlH9156Hlg0ZABz43d-30" value="" style="endArrow=none;html=1;rounded=0;strokeWidth=2;exitX=0;exitY=0.5;exitDx=0;exitDy=0;exitPerimeter=0;fillColor=#f8cecc;strokeColor=#b85450;" parent="QIXlH9156Hlg0ZABz43d-1" source="QIXlH9156Hlg0ZABz43d-29" edge="1">
          <mxGeometry width="50" height="50" relative="1" as="geometry">
            <mxPoint x="449.4200000000001" y="375" as="sourcePoint" />
            <mxPoint x="337" y="541" as="targetPoint" />
            <Array as="points">
              <mxPoint x="337" y="344" />
            </Array>
          </mxGeometry>
        </mxCell>
        <mxCell id="QIXlH9156Hlg0ZABz43d-31" value="" style="endArrow=none;html=1;rounded=0;strokeWidth=2;fillColor=#f8cecc;strokeColor=#b85450;" parent="QIXlH9156Hlg0ZABz43d-1" edge="1">
          <mxGeometry width="50" height="50" relative="1" as="geometry">
            <mxPoint x="570" y="775" as="sourcePoint" />
            <mxPoint x="357" y="540" as="targetPoint" />
            <Array as="points">
              <mxPoint x="480" y="775" />
              <mxPoint x="480" y="520" />
              <mxPoint x="357" y="520" />
            </Array>
          </mxGeometry>
        </mxCell>
        <mxCell id="QIXlH9156Hlg0ZABz43d-32" value="" style="endArrow=none;html=1;rounded=0;strokeWidth=2;" parent="QIXlH9156Hlg0ZABz43d-1" edge="1">
          <mxGeometry width="50" height="50" relative="1" as="geometry">
            <mxPoint x="570" y="884" as="sourcePoint" />
            <mxPoint x="377" y="710" as="targetPoint" />
            <Array as="points">
              <mxPoint x="377" y="884" />
            </Array>
          </mxGeometry>
        </mxCell>
        <mxCell id="QIXlH9156Hlg0ZABz43d-33" value="" style="endArrow=none;html=1;rounded=0;strokeWidth=2;fillColor=#d5e8d4;strokeColor=#82b366;" parent="QIXlH9156Hlg0ZABz43d-1" edge="1">
          <mxGeometry width="50" height="50" relative="1" as="geometry">
            <mxPoint x="570" y="793" as="sourcePoint" />
            <mxPoint x="357" y="710" as="targetPoint" />
            <Array as="points">
              <mxPoint x="357" y="793" />
            </Array>
          </mxGeometry>
        </mxCell>
        <mxCell id="QIXlH9156Hlg0ZABz43d-34" value="" style="endArrow=none;html=1;rounded=0;strokeWidth=2;fillColor=#fff2cc;strokeColor=#d6b656;" parent="QIXlH9156Hlg0ZABz43d-1" edge="1">
          <mxGeometry width="50" height="50" relative="1" as="geometry">
            <mxPoint x="570" y="812" as="sourcePoint" />
            <mxPoint x="337" y="710" as="targetPoint" />
            <Array as="points">
              <mxPoint x="337" y="812" />
            </Array>
          </mxGeometry>
        </mxCell>
        <mxCell id="QIXlH9156Hlg0ZABz43d-35" value="" style="endArrow=none;html=1;rounded=0;entryX=0;entryY=0.6;entryDx=0;entryDy=0;entryPerimeter=0;strokeWidth=2;fillColor=#f5f5f5;strokeColor=#666666;" parent="QIXlH9156Hlg0ZABz43d-1" edge="1">
          <mxGeometry width="50" height="50" relative="1" as="geometry">
            <mxPoint x="570" y="867" as="sourcePoint" />
            <mxPoint x="640" y="1032" as="targetPoint" />
            <Array as="points">
              <mxPoint x="510" y="867" />
              <mxPoint x="510" y="1032" />
            </Array>
          </mxGeometry>
        </mxCell>
        <mxCell id="QIXlH9156Hlg0ZABz43d-36" value="" style="endArrow=none;html=1;rounded=0;strokeWidth=2;fillColor=#f5f5f5;strokeColor=#666666;entryX=0;entryY=0.4;entryDx=0;entryDy=0;entryPerimeter=0;" parent="QIXlH9156Hlg0ZABz43d-1" target="QIXlH9156Hlg0ZABz43d-26" edge="1">
          <mxGeometry width="50" height="50" relative="1" as="geometry">
            <mxPoint x="570" y="903" as="sourcePoint" />
            <mxPoint x="630" y="1008" as="targetPoint" />
            <Array as="points">
              <mxPoint x="540" y="903" />
              <mxPoint x="540" y="1008" />
            </Array>
          </mxGeometry>
        </mxCell>
        <mxCell id="QIXlH9156Hlg0ZABz43d-37" value="5V" style="text;html=1;strokeColor=none;fillColor=none;align=center;verticalAlign=middle;whiteSpace=wrap;rounded=0;" parent="QIXlH9156Hlg0ZABz43d-1" vertex="1">
          <mxGeometry x="140" y="495" width="30" height="30" as="geometry" />
        </mxCell>
        <mxCell id="QIXlH9156Hlg0ZABz43d-38" value="0V" style="text;html=1;strokeColor=none;fillColor=none;align=center;verticalAlign=middle;whiteSpace=wrap;rounded=0;" parent="QIXlH9156Hlg0ZABz43d-1" vertex="1">
          <mxGeometry x="70" y="495" width="30" height="30" as="geometry" />
        </mxCell>
        <mxCell id="QIXlH9156Hlg0ZABz43d-39" value="3,3V" style="text;html=1;strokeColor=none;fillColor=none;align=center;verticalAlign=middle;whiteSpace=wrap;rounded=0;" parent="QIXlH9156Hlg0ZABz43d-1" vertex="1">
          <mxGeometry x="340" y="319" width="60" height="25" as="geometry" />
        </mxCell>
        <mxCell id="QIXlH9156Hlg0ZABz43d-40" style="edgeStyle=orthogonalEdgeStyle;rounded=0;orthogonalLoop=1;jettySize=auto;html=1;exitX=1;exitY=0.8;exitDx=0;exitDy=0;strokeWidth=2;endArrow=none;endFill=0;" parent="QIXlH9156Hlg0ZABz43d-1" source="QIXlH9156Hlg0ZABz43d-42" edge="1">
          <mxGeometry relative="1" as="geometry">
            <mxPoint x="238" y="710" as="targetPoint" />
          </mxGeometry>
        </mxCell>
        <mxCell id="QIXlH9156Hlg0ZABz43d-41" style="rounded=0;orthogonalLoop=1;jettySize=auto;html=1;exitX=0;exitY=0.8;exitDx=0;exitDy=0;endArrow=none;endFill=0;strokeWidth=2;fillColor=#ffe6cc;strokeColor=#d79b00;" parent="QIXlH9156Hlg0ZABz43d-1" source="QIXlH9156Hlg0ZABz43d-42" edge="1">
          <mxGeometry relative="1" as="geometry">
            <mxPoint x="258" y="710" as="targetPoint" />
            <mxPoint x="235" y="824.5" as="sourcePoint" />
            <Array as="points">
              <mxPoint x="238" y="870" />
              <mxPoint x="258" y="870" />
            </Array>
          </mxGeometry>
        </mxCell>
        <mxCell id="QIXlH9156Hlg0ZABz43d-42" value="" style="html=1;shape=mxgraph.electrical.electro-mechanical.singleSwitch;aspect=fixed;elSwitchState=off;strokeWidth=2;rotation=-90;" parent="QIXlH9156Hlg0ZABz43d-1" vertex="1">
          <mxGeometry x="194.5" y="811" width="75" height="20" as="geometry" />
        </mxCell>
        <mxCell id="QIXlH9156Hlg0ZABz43d-43" value="Mode Switch" style="text;html=1;strokeColor=none;fillColor=none;align=center;verticalAlign=middle;whiteSpace=wrap;rounded=0;" parent="QIXlH9156Hlg0ZABz43d-1" vertex="1">
          <mxGeometry x="171" y="803" width="50" height="30" as="geometry" />
        </mxCell>
        <mxCell id="iqJlMScNOUQ2KsEhBfKo-1" value="10 kOhm" style="pointerEvents=1;verticalLabelPosition=bottom;shadow=0;dashed=0;align=center;html=1;verticalAlign=top;shape=mxgraph.electrical.resistors.resistor_1;strokeColor=#6c8ebf;fillColor=#6c8ebf;strokeWidth=2;" parent="QIXlH9156Hlg0ZABz43d-1" vertex="1">
          <mxGeometry x="588.93" y="250" width="100" height="20" as="geometry" />
        </mxCell>
        <mxCell id="iqJlMScNOUQ2KsEhBfKo-2" value="" style="endArrow=none;html=1;rounded=0;strokeWidth=2;entryX=0;entryY=0.5;entryDx=0;entryDy=0;entryPerimeter=0;strokeColor=#b85450;" parent="QIXlH9156Hlg0ZABz43d-1" target="iqJlMScNOUQ2KsEhBfKo-1" edge="1">
          <mxGeometry width="50" height="50" relative="1" as="geometry">
            <mxPoint x="140" y="540" as="sourcePoint" />
            <mxPoint x="400" y="280" as="targetPoint" />
            <Array as="points">
              <mxPoint x="140" y="520" />
              <mxPoint x="220" y="520" />
              <mxPoint x="220" y="260" />
            </Array>
          </mxGeometry>
        </mxCell>
        <mxCell id="iqJlMScNOUQ2KsEhBfKo-3" value="" style="pointerEvents=1;fillColor=#6c8ebf;verticalLabelPosition=bottom;shadow=0;dashed=0;align=center;html=1;verticalAlign=top;shape=mxgraph.electrical.diodes.diode;fontColor=#ffffff;strokeColor=#6c8ebf;strokeWidth=2;rotation=-90;" parent="QIXlH9156Hlg0ZABz43d-1" vertex="1">
          <mxGeometry x="670" y="530" width="40" height="20" as="geometry" />
        </mxCell>
        <mxCell id="iqJlMScNOUQ2KsEhBfKo-4" value="" style="endArrow=none;html=1;rounded=0;fillColor=#dae8fc;strokeColor=#6c8ebf;strokeWidth=2;shadow=0;" parent="QIXlH9156Hlg0ZABz43d-1" target="iqJlMScNOUQ2KsEhBfKo-0" edge="1">
          <mxGeometry width="50" height="50" relative="1" as="geometry">
            <mxPoint x="160" y="710" as="sourcePoint" />
            <mxPoint x="743" y="290" as="targetPoint" />
            <Array as="points">
              <mxPoint x="160" y="740" />
              <mxPoint x="690" y="740" />
            </Array>
          </mxGeometry>
        </mxCell>
        <mxCell id="iqJlMScNOUQ2KsEhBfKo-0" value="" style="pointerEvents=1;fillColor=#6c8ebf;verticalLabelPosition=bottom;shadow=0;dashed=0;align=center;html=1;verticalAlign=top;shape=mxgraph.electrical.diodes.diode;fontColor=#ffffff;strokeColor=#6c8ebf;strokeWidth=2;rotation=-90;" parent="QIXlH9156Hlg0ZABz43d-1" vertex="1">
          <mxGeometry x="670" y="479" width="40" height="20" as="geometry" />
        </mxCell>
        <mxCell id="iqJlMScNOUQ2KsEhBfKo-5" value="1N4148" style="text;html=1;strokeColor=none;fillColor=none;align=center;verticalAlign=middle;whiteSpace=wrap;rounded=0;" parent="QIXlH9156Hlg0ZABz43d-1" vertex="1">
          <mxGeometry x="620" y="479" width="60" height="24" as="geometry" />
        </mxCell>
        <mxCell id="iqJlMScNOUQ2KsEhBfKo-6" value="1N4148" style="text;html=1;strokeColor=none;fillColor=none;align=center;verticalAlign=middle;whiteSpace=wrap;rounded=0;" parent="QIXlH9156Hlg0ZABz43d-1" vertex="1">
          <mxGeometry x="620" y="530" width="60" height="24" as="geometry" />
        </mxCell>
      </root>
    </mxGraphModel>
  </diagram>
</mxfile>
